Qubee-Sheek-Bakrii-Saphaloo.ufo
<glyph name="parenleft" format="2">
  <advance width="682"/>
  <unicode hex="0028"/>
  <outline>
    <contour>
      <point x="608.256" y="-430.08" type="line"/>
      <point x="479.232" y="-430.08" type="line"/>
      <point x="124.928" y="16.384"/>
      <point x="124.928" y="530.432" type="qcurve" smooth="yes"/>
      <point x="124.928" y="1017.86"/>
      <point x="479.232" y="1490.94" type="qcurve"/>
      <point x="608.256" y="1490.94" type="line"/>
      <point x="487.424" y="1284.1"/>
      <point x="448.512" y="1193.98" type="qcurve" smooth="yes"/>
      <point x="309.248" y="878.592"/>
      <point x="309.248" y="530.432" type="qcurve" smooth="yes"/>
      <point x="309.248" y="49.152"/>
      <point x="608.256" y="-430.08" type="qcurve"/>
    </contour>
  </outline>
</glyph>
<glyph name="plus" format="2">
  <advance width="1196"/>
  <unicode hex="002B"/>
  <outline>
    <contour>
      <point x="1081.34" y="638.976" type="line"/>
      <point x="681.984" y="638.976" type="line"/>
      <point x="681.984" y="237.568" type="line"/>
      <point x="512" y="237.568" type="line"/>
      <point x="512" y="638.976" type="line"/>
      <point x="114.688" y="638.976" type="line"/>
      <point x="114.688" y="806.912" type="line"/>
      <point x="512" y="806.912" type="line"/>
      <point x="512" y="1206.27" type="line"/>
      <point x="681.984" y="1206.27" type="line"/>
      <point x="681.984" y="806.912" type="line"/>
      <point x="1081.34" y="806.912" type="line"/>
    </contour>
  </outline>
</glyph>
<glyph name="four" format="2">
  <advance width="1139"/>
  <unicode hex="0034"/>
  <outline>
    <contour>
      <point x="1040.38" y="350.208" type="line"/>
      <point x="841.728" y="350.208" type="line"/>
      <point x="841.728" y="0" type="line"/>
      <point x="661.504" y="0" type="line"/>
      <point x="661.504" y="350.208" type="line"/>
      <point x="26.624" y="350.208" type="line"/>
      <point x="26.624" y="516.096" type="line"/>
      <point x="694.272" y="1466.37" type="line"/>
      <point x="841.728" y="1466.37" type="line"/>
      <point x="841.728" y="516.096" type="line"/>
      <point x="1040.38" y="516.096" type="line"/>
    </contour>
    <contour>
      <point x="661.504" y="516.096" type="line"/>
      <point x="661.504" y="1177.6" type="line"/>
      <point x="202.752" y="516.096" type="line"/>
    </contour>
  </outline>
</glyph>
<glyph name="C" format="2">
  <advance width="1479"/>
  <unicode hex="0043"/>
  <outline>
    <contour>
      <point x="1399" y="465" type="line"/>
      <point x="1339" y="233"/>
      <point x="1028" y="-25"/>
      <point x="791" y="-25" type="qcurve" smooth="yes"/>
      <point x="338" y="-25"/>
      <point x="180" y="350" type="qcurve" smooth="yes"/>
      <point x="102" y="535"/>
      <point x="102" y="743" type="qcurve" smooth="yes"/>
      <point x="102" y="1219"/>
      <point x="438" y="1403" type="qcurve" smooth="yes"/>
      <point x="600" y="1491"/>
      <point x="795" y="1491" type="qcurve" smooth="yes"/>
      <point x="1012" y="1491"/>
      <point x="1313" y="1270"/>
      <point x="1372" y="1065" type="qcurve"/>
      <point x="1182" y="1020" type="line"/>
      <point x="1085" y="1325"/>
      <point x="791" y="1325" type="qcurve" smooth="yes"/>
      <point x="631" y="1325"/>
      <point x="518" y="1251" type="qcurve" smooth="yes"/>
      <point x="397" y="1174"/>
      <point x="348" y="1026" type="qcurve" smooth="yes"/>
      <point x="301" y="891"/>
      <point x="301" y="745" type="qcurve" smooth="yes"/>
      <point x="301" y="344"/>
      <point x="526" y="211" type="qcurve" smooth="yes"/>
      <point x="641" y="141"/>
      <point x="774" y="141" type="qcurve" smooth="yes"/>
      <point x="1124" y="141"/>
      <point x="1204" y="514" type="qcurve"/>
    </contour>
  </outline>
</glyph>
<glyph name="I" format="2">
  <advance width="569"/>
  <unicode hex="0049"/>
  <outline>
    <contour>
      <point x="385" y="0" type="line"/>
      <point x="190" y="0" type="line"/>
      <point x="190" y="1466" type="line"/>
      <point x="385" y="1466" type="line"/>
    </contour>
  </outline>
</glyph>
<glyph name="L" format="2">
  <advance width="1139"/>
  <unicode hex="004C"/>
  <outline>
    <contour>
      <point x="1067" y="0" type="line"/>
      <point x="150" y="0" type="line"/>
      <point x="150" y="1466" type="line"/>
      <point x="344" y="1466" type="line"/>
      <point x="344" y="172" type="line"/>
      <point x="1067" y="172" type="line"/>
    </contour>
  </outline>
</glyph>
<glyph name="X" format="2">
  <advance width="1366"/>
  <unicode hex="0058"/>
  <outline>
    <contour>
      <point x="1353.73" y="0" type="line"/>
      <point x="1112.06" y="0" type="line"/>
      <point x="743.424" y="522.24" type="line"/>
      <point x="718.848" y="559.104"/>
      <point x="679.936" y="620.544" type="qcurve"/>
      <point x="626.688" y="534.528"/>
      <point x="610.304" y="512" type="qcurve" smooth="yes"/>
      <point x="241.664" y="0" type="line"/>
      <point x="8.192" y="0" type="line"/>
      <point x="575.488" y="763.904" type="line"/>
      <point x="75.776" y="1466.37" type="line"/>
      <point x="307.2" y="1466.37" type="line"/>
      <point x="573.44" y="1089.54" type="line" smooth="yes"/>
      <point x="657.408" y="970.752"/>
      <point x="690.176" y="909.312" type="qcurve"/>
      <point x="735.232" y="983.04"/>
      <point x="806.912" y="1077.25" type="qcurve" smooth="yes"/>
      <point x="1101.82" y="1466.37" type="line"/>
      <point x="1312.77" y="1466.37" type="line"/>
      <point x="798.72" y="774.144" type="line"/>
    </contour>
  </outline>
</glyph>
<glyph name="Z" format="2">
  <advance width="1251"/>
  <unicode hex="005A"/>
  <outline>
    <contour>
      <point x="1200.13" y="0" type="line"/>
      <point x="40.96" y="0" type="line"/>
      <point x="40.96" y="180.224" type="line"/>
      <point x="792.576" y="1118.21" type="line" smooth="yes"/>
      <point x="872.448" y="1218.56"/>
      <point x="944.128" y="1292.29" type="qcurve"/>
      <point x="126.976" y="1292.29" type="line"/>
      <point x="126.976" y="1466.37" type="line"/>
      <point x="1175.55" y="1466.37" type="line"/>
      <point x="1175.55" y="1292.29" type="line"/>
      <point x="264.192" y="172.032" type="line"/>
      <point x="1200.13" y="172.032" type="line"/>
    </contour>
  </outline>
</glyph>
<glyph name="bracketright" format="2">
  <advance width="569"/>
  <unicode hex="005D"/>
  <outline>
    <contour>
      <point x="436.224" y="-407.552" type="line"/>
      <point x="38.912" y="-407.552" type="line"/>
      <point x="38.912" y="-258.048" type="line"/>
      <point x="256" y="-258.048" type="line"/>
      <point x="256" y="1316.86" type="line"/>
      <point x="38.912" y="1316.86" type="line"/>
      <point x="38.912" y="1466.37" type="line"/>
      <point x="436.224" y="1466.37" type="line"/>
    </contour>
  </outline>
</glyph>
<glyph name="g" format="2">
  <advance width="1139"/>
  <unicode hex="0067"/>
  <outline>
    <contour>
      <point x="1001" y="143" type="line" smooth="yes"/>
      <point x="1001" y="-55"/>
      <point x="973" y="-150" type="qcurve" smooth="yes"/>
      <point x="928" y="-297"/>
      <point x="791" y="-371" type="qcurve" smooth="yes"/>
      <point x="682" y="-430"/>
      <point x="522" y="-430" type="qcurve" smooth="yes"/>
      <point x="336" y="-430"/>
      <point x="227" y="-354" type="qcurve" smooth="yes"/>
      <point x="98" y="-264"/>
      <point x="102" y="-88" type="qcurve"/>
      <point x="276" y="-115" type="line"/>
      <point x="299" y="-283"/>
      <point x="520" y="-283" type="qcurve" smooth="yes"/>
      <point x="756" y="-283"/>
      <point x="807" y="-92" type="qcurve"/>
      <point x="819" y="-39"/>
      <point x="819" y="139" type="qcurve"/>
      <point x="700" y="0"/>
      <point x="524" y="0" type="qcurve" smooth="yes"/>
      <point x="307" y="0"/>
      <point x="180" y="164" type="qcurve" smooth="yes"/>
      <point x="66" y="311"/>
      <point x="66" y="537" type="qcurve" smooth="yes"/>
      <point x="66" y="872"/>
      <point x="281" y="1016" type="qcurve" smooth="yes"/>
      <point x="385" y="1085"/>
      <point x="526" y="1085" type="qcurve" smooth="yes"/>
      <point x="715" y="1085"/>
      <point x="836" y="934" type="qcurve"/>
      <point x="836" y="1063" type="line"/>
      <point x="1001" y="1063" type="line"/>
    </contour>
    <contour>
      <point x="834" y="545" type="line"/>
      <point x="834" y="702"/>
      <point x="768" y="809" type="qcurve" smooth="yes"/>
      <point x="688" y="938"/>
      <point x="539" y="938" type="qcurve" smooth="yes"/>
      <point x="391" y="938"/>
      <point x="315" y="811" type="qcurve" smooth="yes"/>
      <point x="252" y="707"/>
      <point x="252" y="551" type="qcurve" smooth="yes"/>
      <point x="252" y="383"/>
      <point x="311" y="279" type="qcurve" smooth="yes"/>
      <point x="387" y="150"/>
      <point x="543" y="150" type="qcurve" smooth="yes"/>
      <point x="696" y="150"/>
      <point x="772" y="276" type="qcurve" smooth="yes"/>
      <point x="834" y="379"/>
      <point x="834" y="545" type="qcurve"/>
    </contour>
  </outline>
</glyph>
<glyph name="x" format="2">
  <advance width="1024"/>
  <unicode hex="0078"/>
  <outline>
    <contour>
      <point x="1010" y="0" type="line"/>
      <point x="788" y="0" type="line"/>
      <point x="512" y="420" type="line"/>
      <point x="233" y="0" type="line"/>
      <point x="14" y="0" type="line"/>
      <point x="403" y="553" type="line"/>
      <point x="43" y="1063" type="line"/>
      <point x="268" y="1063" type="line"/>
      <point x="432" y="813" type="line" smooth="yes"/>
      <point x="473" y="750"/>
      <point x="506" y="694" type="qcurve"/>
      <point x="541" y="745"/>
      <point x="588" y="811" type="qcurve" smooth="yes"/>
      <point x="766" y="1063" type="line"/>
      <point x="981" y="1063" type="line"/>
      <point x="614" y="561" type="line"/>
    </contour>
  </outline>
</glyph>
<glyph name="bar" format="2">
  <advance width="532"/>
  <unicode hex="007C"/>
  <outline>
    <contour>
      <point x="344.064" y="-430.08" type="line"/>
      <point x="188.416" y="-430.08" type="line"/>
      <point x="188.416" y="1490.94" type="line"/>
      <point x="344.064" y="1490.94" type="line"/>
    </contour>
  </outline>
</glyph>
<glyph name="uniE022" format="2">
  <advance width="1876"/>
  <unicode hex="E022"/>
  <outline>
    <contour>
      <point x="1875.97" y="1179.65" type="line"/>
      <point x="1875.97" y="1044.48"/>
      <point x="1705.98" y="823.296"/>
      <point x="1576.96" y="776.192" type="qcurve"/>
      <point x="1556.48" y="770.048"/>
      <point x="1540.1" y="770.048" type="qcurve" smooth="yes"/>
      <point x="1501.18" y="770.048"/>
      <point x="1449.98" y="827.392"/>
      <point x="1449.98" y="866.304" type="qcurve" smooth="yes"/>
      <point x="1449.98" y="921.6"/>
      <point x="1509.38" y="948.224" type="qcurve" smooth="yes"/>
      <point x="1691.65" y="1032.19"/>
      <point x="1691.65" y="1179.65" type="qcurve" smooth="yes"/>
      <point x="1691.65" y="1282.05"/>
      <point x="1597.44" y="1318.91" type="qcurve" smooth="yes"/>
      <point x="1538.05" y="1343.49"/>
      <point x="1413.12" y="1343.49" type="qcurve" smooth="yes"/>
      <point x="1384.45" y="1343.49"/>
      <point x="1351.68" y="1325.06" type="qcurve"/>
      <point x="1312.77" y="1306.62"/>
      <point x="1312.77" y="1280" type="qcurve" smooth="yes"/>
      <point x="1312.77" y="1228.8"/>
      <point x="1411.07" y="1228.8" type="qcurve" smooth="yes"/>
      <point x="1503.23" y="1228.8"/>
      <point x="1503.23" y="1136.64" type="qcurve" smooth="yes"/>
      <point x="1503.23" y="1044.48"/>
      <point x="1411.07" y="1044.48" type="qcurve" smooth="yes"/>
      <point x="1275.9" y="1044.48"/>
      <point x="1200.13" y="1110.02" type="qcurve"/>
      <point x="1208.32" y="1067.01"/>
      <point x="1208.32" y="1026.05" type="qcurve" smooth="yes"/>
      <point x="1208.32" y="819.2" type="line" smooth="yes"/>
      <point x="1208.32" y="653.312"/>
      <point x="1091.58" y="514.048" type="qcurve" smooth="yes"/>
      <point x="985.088" y="387.072"/>
      <point x="821.248" y="323.584" type="qcurve"/>
      <point x="808.96" y="319.488"/>
      <point x="604.16" y="256" type="qcurve" smooth="yes"/>
      <point x="473.088" y="217.088"/>
      <point x="397.312" y="163.84" type="qcurve"/>
      <point x="430.08" y="129.024"/>
      <point x="542.72" y="108.544" type="qcurve" smooth="yes"/>
      <point x="632.832" y="92.16"/>
      <point x="706.56" y="92.16" type="qcurve" smooth="yes"/>
      <point x="907.264" y="92.16"/>
      <point x="1069.06" y="178.176" type="qcurve"/>
      <point x="1095.68" y="190.464"/>
      <point x="1118.21" y="190.464" type="qcurve" smooth="yes"/>
      <point x="1155.07" y="190.464"/>
      <point x="1210.37" y="133.12"/>
      <point x="1210.37" y="94.208" type="qcurve" smooth="yes"/>
      <point x="1210.37" y="49.152"/>
      <point x="1163.26" y="18.432" type="qcurve" smooth="yes"/>
      <point x="1144.83" y="6.144"/>
      <point x="1097.73" y="-16.384" type="qcurve" smooth="yes"/>
      <point x="935.936" y="-92.16"/>
      <point x="706.56" y="-92.16" type="qcurve" smooth="yes"/>
      <point x="526.336" y="-92.16"/>
      <point x="393.216" y="-40.96" type="qcurve" smooth="yes"/>
      <point x="204.8" y="28.672"/>
      <point x="204.8" y="176.128" type="qcurve" smooth="yes"/>
      <point x="204.8" y="296.96"/>
      <point x="417.792" y="378.88" type="qcurve" smooth="yes"/>
      <point x="614.4" y="452.608"/>
      <point x="811.008" y="528.384" type="qcurve"/>
      <point x="1024" y="636.928"/>
      <point x="1024" y="819.2" type="qcurve" smooth="yes"/>
      <point x="1024" y="933.888" type="line"/>
      <point x="389.12" y="933.888" type="line"/>
      <point x="389.12" y="819.2" type="line" smooth="yes"/>
      <point x="389.12" y="727.04"/>
      <point x="296.96" y="727.04" type="qcurve" smooth="yes"/>
      <point x="204.8" y="727.04"/>
      <point x="204.8" y="819.2" type="qcurve" smooth="yes"/>
      <point x="204.8" y="1026.05" type="line" smooth="yes"/>
      <point x="204.8" y="1224.7"/>
      <point x="507.904" y="1527.81"/>
      <point x="708.608" y="1527.81" type="qcurve" smooth="yes"/>
      <point x="833.536" y="1527.81"/>
      <point x="950.272" y="1460.22" type="qcurve" smooth="yes"/>
      <point x="1060.86" y="1396.74"/>
      <point x="1130.5" y="1286.14" type="qcurve"/>
      <point x="1132.54" y="1390.59"/>
      <point x="1222.66" y="1460.22" type="qcurve" smooth="yes"/>
      <point x="1306.62" y="1527.81"/>
      <point x="1413.12" y="1527.81" type="qcurve" smooth="yes"/>
      <point x="1875.97" y="1527.81"/>
      <point x="1875.97" y="1179.65" type="qcurve"/>
    </contour>
    <contour>
      <point x="1007.62" y="1118.21" type="line"/>
      <point x="974.848" y="1212.42"/>
      <point x="806.912" y="1343.49"/>
      <point x="708.608" y="1343.49" type="qcurve" smooth="yes"/>
      <point x="608.256" y="1343.49"/>
      <point x="438.272" y="1212.42"/>
      <point x="405.504" y="1118.21" type="qcurve"/>
    </contour>
  </outline>
</glyph>
<glyph name="uniE025" format="2">
  <advance width="1413"/>
  <unicode hex="E025"/>
  <outline>
    <contour>
      <point x="1411.07" y="94.208" type="line"/>
      <point x="1411.07" y="49.152"/>
      <point x="1363.97" y="18.432" type="qcurve" smooth="yes"/>
      <point x="1202.18" y="-92.16"/>
      <point x="909.312" y="-92.16" type="qcurve" smooth="yes"/>
      <point x="729.088" y="-92.16"/>
      <point x="595.968" y="-40.96" type="qcurve" smooth="yes"/>
      <point x="407.552" y="28.672"/>
      <point x="407.552" y="176.128" type="qcurve" smooth="yes"/>
      <point x="407.552" y="260.096"/>
      <point x="520.192" y="331.776" type="qcurve" smooth="yes"/>
      <point x="602.112" y="382.976"/>
      <point x="753.664" y="432.128" type="qcurve" smooth="yes"/>
      <point x="856.064" y="464.896"/>
      <point x="958.464" y="495.616" type="qcurve"/>
      <point x="1024" y="518.144"/>
      <point x="1097.73" y="534.528" type="qcurve"/>
      <point x="1052.67" y="577.536"/>
      <point x="964.608" y="663.552" type="qcurve" smooth="yes"/>
      <point x="921.6" y="706.56"/>
      <point x="921.6" y="745.472" type="qcurve" smooth="yes"/>
      <point x="921.6" y="823.296"/>
      <point x="1026.05" y="823.296" type="qcurve" smooth="yes"/>
      <point x="1226.75" y="823.296" type="line"/>
      <point x="1226.75" y="933.888" type="line"/>
      <point x="591.872" y="933.888" type="line"/>
      <point x="591.872" y="921.6"/>
      <point x="591.872" y="894.976" type="qcurve"/>
      <point x="593.92" y="872.448"/>
      <point x="593.92" y="858.112" type="qcurve" smooth="yes"/>
      <point x="593.92" y="716.8"/>
      <point x="518.144" y="624.64" type="qcurve" smooth="yes"/>
      <point x="436.224" y="524.288"/>
      <point x="296.96" y="524.288" type="qcurve" smooth="yes"/>
      <point x="204.8" y="524.288"/>
      <point x="204.8" y="616.448" type="qcurve" smooth="yes"/>
      <point x="204.8" y="708.608"/>
      <point x="296.96" y="708.608" type="qcurve" smooth="yes"/>
      <point x="342.016" y="708.608"/>
      <point x="407.552" y="774.144"/>
      <point x="407.552" y="819.2" type="qcurve" smooth="yes"/>
      <point x="407.552" y="864.256"/>
      <point x="342.016" y="929.792"/>
      <point x="296.96" y="929.792" type="qcurve" smooth="yes"/>
      <point x="204.8" y="929.792"/>
      <point x="204.8" y="1021.95" type="qcurve" smooth="yes"/>
      <point x="204.8" y="1114.11"/>
      <point x="296.96" y="1114.11" type="qcurve" smooth="yes"/>
      <point x="356.352" y="1114.11"/>
      <point x="411.648" y="1089.54" type="qcurve"/>
      <point x="438.272" y="1271.81"/>
      <point x="729.088" y="1527.81"/>
      <point x="909.312" y="1527.81" type="qcurve" smooth="yes"/>
      <point x="1110.02" y="1527.81"/>
      <point x="1411.07" y="1224.7"/>
      <point x="1411.07" y="1026.05" type="qcurve" smooth="yes"/>
      <point x="1411.07" y="731.136" type="line" smooth="yes"/>
      <point x="1411.07" y="667.648"/>
      <point x="1355.78" y="649.216" type="qcurve"/>
      <point x="1329.15" y="638.976"/>
      <point x="1249.28" y="638.976" type="qcurve"/>
      <point x="1316.86" y="559.104"/>
      <point x="1316.86" y="495.616" type="qcurve" smooth="yes"/>
      <point x="1316.86" y="397.312"/>
      <point x="1148.93" y="356.352" type="qcurve" smooth="yes"/>
      <point x="731.136" y="256"/>
      <point x="600.064" y="163.84" type="qcurve"/>
      <point x="677.888" y="92.16"/>
      <point x="909.312" y="92.16" type="qcurve" smooth="yes"/>
      <point x="1099.78" y="92.16"/>
      <point x="1271.81" y="178.176" type="qcurve"/>
      <point x="1300.48" y="190.464"/>
      <point x="1320.96" y="190.464" type="qcurve" smooth="yes"/>
      <point x="1357.82" y="190.464"/>
      <point x="1411.07" y="133.12"/>
      <point x="1411.07" y="94.208" type="qcurve"/>
    </contour>
    <contour>
      <point x="1210.37" y="1118.21" type="line"/>
      <point x="1179.65" y="1212.42"/>
      <point x="1009.66" y="1343.49"/>
      <point x="911.36" y="1343.49" type="qcurve" smooth="yes"/>
      <point x="811.008" y="1343.49"/>
      <point x="638.976" y="1212.42"/>
      <point x="606.208" y="1118.21" type="qcurve"/>
    </contour>
  </outline>
</glyph>
<glyph name="uniE026" format="2">
  <advance width="1681"/>
  <unicode hex="E026"/>
  <outline>
    <contour>
      <point x="1681.41" y="1026.05" type="line"/>
      <point x="1681.41" y="927.744"/>
      <point x="1566.72" y="765.952"/>
      <point x="1474.56" y="731.136" type="qcurve" smooth="yes"/>
      <point x="1454.08" y="722.944"/>
      <point x="1437.7" y="722.944" type="qcurve" smooth="yes"/>
      <point x="1398.78" y="722.944"/>
      <point x="1347.58" y="780.288"/>
      <point x="1347.58" y="819.2" type="qcurve" smooth="yes"/>
      <point x="1347.58" y="866.304"/>
      <point x="1419.26" y="911.36"/>
      <point x="1456.13" y="931.84" type="qcurve"/>
      <point x="1208.32" y="933.888" type="line"/>
      <point x="1208.32" y="731.136" type="line" smooth="yes"/>
      <point x="1208.32" y="692.224"/>
      <point x="1157.12" y="638.976"/>
      <point x="1046.53" y="638.976" type="qcurve"/>
      <point x="1114.11" y="559.104"/>
      <point x="1114.11" y="495.616" type="qcurve" smooth="yes"/>
      <point x="1114.11" y="395.264"/>
      <point x="946.176" y="356.352" type="qcurve" smooth="yes"/>
      <point x="532.48" y="260.096"/>
      <point x="397.312" y="163.84" type="qcurve"/>
      <point x="436.224" y="129.024"/>
      <point x="544.768" y="108.544" type="qcurve" smooth="yes"/>
      <point x="628.736" y="92.16"/>
      <point x="706.56" y="92.16" type="qcurve" smooth="yes"/>
      <point x="907.264" y="92.16"/>
      <point x="1069.06" y="178.176" type="qcurve"/>
      <point x="1095.68" y="190.464"/>
      <point x="1118.21" y="190.464" type="qcurve" smooth="yes"/>
      <point x="1155.07" y="190.464"/>
      <point x="1210.37" y="133.12"/>
      <point x="1210.37" y="94.208" type="qcurve" smooth="yes"/>
      <point x="1210.37" y="47.104"/>
      <point x="1163.26" y="18.432" type="qcurve" smooth="yes"/>
      <point x="987.136" y="-92.16"/>
      <point x="706.56" y="-92.16" type="qcurve" smooth="yes"/>
      <point x="528.384" y="-92.16"/>
      <point x="393.216" y="-40.96" type="qcurve" smooth="yes"/>
      <point x="204.8" y="28.672"/>
      <point x="204.8" y="176.128" type="qcurve" smooth="yes"/>
      <point x="204.8" y="294.912"/>
      <point x="428.032" y="387.072" type="qcurve"/>
      <point x="591.872" y="442.368"/>
      <point x="755.712" y="495.616" type="qcurve" smooth="yes"/>
      <point x="815.104" y="516.096"/>
      <point x="894.976" y="534.528" type="qcurve"/>
      <point x="886.784" y="542.72"/>
      <point x="761.856" y="663.552" type="qcurve" smooth="yes"/>
      <point x="718.848" y="704.512"/>
      <point x="718.848" y="745.472" type="qcurve" smooth="yes"/>
      <point x="718.848" y="823.296"/>
      <point x="823.296" y="823.296" type="qcurve" smooth="yes"/>
      <point x="1024" y="823.296" type="line"/>
      <point x="1024" y="933.888" type="line"/>
      <point x="389.12" y="933.888" type="line"/>
      <point x="389.12" y="815.104"/>
      <point x="387.072" y="800.768" type="qcurve"/>
      <point x="370.688" y="727.04"/>
      <point x="296.96" y="727.04" type="qcurve" smooth="yes"/>
      <point x="204.8" y="727.04"/>
      <point x="204.8" y="819.2" type="qcurve" smooth="yes"/>
      <point x="204.8" y="1026.05" type="line" smooth="yes"/>
      <point x="204.8" y="1224.7"/>
      <point x="507.904" y="1527.81"/>
      <point x="708.608" y="1527.81" type="qcurve" smooth="yes"/>
      <point x="882.688" y="1527.81"/>
      <point x="1163.26" y="1288.19"/>
      <point x="1198.08" y="1118.21" type="qcurve"/>
      <point x="1456.13" y="1116.16" type="line"/>
      <point x="1419.26" y="1138.69"/>
      <point x="1347.58" y="1183.74"/>
      <point x="1347.58" y="1230.85" type="qcurve" smooth="yes"/>
      <point x="1347.58" y="1269.76"/>
      <point x="1398.78" y="1327.1"/>
      <point x="1437.7" y="1327.1" type="qcurve" smooth="yes"/>
      <point x="1454.08" y="1327.1"/>
      <point x="1474.56" y="1318.91" type="qcurve" smooth="yes"/>
      <point x="1566.72" y="1284.1"/>
      <point x="1681.41" y="1122.3"/>
      <point x="1681.41" y="1026.05" type="qcurve"/>
    </contour>
    <contour>
      <point x="1009.66" y="1118.21" type="line"/>
      <point x="976.896" y="1212.42"/>
      <point x="804.864" y="1343.49"/>
      <point x="708.608" y="1343.49" type="qcurve" smooth="yes"/>
      <point x="608.256" y="1343.49"/>
      <point x="436.224" y="1212.42"/>
      <point x="405.504" y="1118.21" type="qcurve"/>
    </contour>
  </outline>
</glyph>
<glyph name="uniE028" format="2">
  <advance width="1638"/>
  <unicode hex="E028"/>
  <outline>
    <contour>
      <point x="1638.4" y="65.536" type="line"/>
      <point x="1638.4" y="32.768"/>
      <point x="1613.82" y="4.096" type="qcurve" smooth="yes"/>
      <point x="1529.86" y="-94.208"/>
      <point x="1394.69" y="-94.208" type="qcurve" smooth="yes"/>
      <point x="1251.33" y="-94.208"/>
      <point x="1163.26" y="18.432" type="qcurve"/>
      <point x="993.28" y="-92.16"/>
      <point x="706.56" y="-92.16" type="qcurve" smooth="yes"/>
      <point x="528.384" y="-92.16"/>
      <point x="393.216" y="-40.96" type="qcurve" smooth="yes"/>
      <point x="204.8" y="28.672"/>
      <point x="204.8" y="176.128" type="qcurve" smooth="yes"/>
      <point x="204.8" y="260.096"/>
      <point x="317.44" y="331.776" type="qcurve" smooth="yes"/>
      <point x="399.36" y="382.976"/>
      <point x="550.912" y="432.128" type="qcurve" smooth="yes"/>
      <point x="653.312" y="464.896"/>
      <point x="755.712" y="495.616" type="qcurve"/>
      <point x="821.248" y="518.144"/>
      <point x="894.976" y="534.528" type="qcurve"/>
      <point x="849.92" y="577.536"/>
      <point x="761.856" y="663.552" type="qcurve" smooth="yes"/>
      <point x="718.848" y="706.56"/>
      <point x="718.848" y="745.472" type="qcurve" smooth="yes"/>
      <point x="718.848" y="823.296"/>
      <point x="823.296" y="823.296" type="qcurve" smooth="yes"/>
      <point x="1024" y="823.296" type="line"/>
      <point x="1024" y="933.888" type="line"/>
      <point x="389.12" y="933.888" type="line"/>
      <point x="389.12" y="921.6"/>
      <point x="389.12" y="894.976" type="qcurve"/>
      <point x="391.168" y="872.448"/>
      <point x="391.168" y="858.112" type="qcurve" smooth="yes"/>
      <point x="391.168" y="727.04"/>
      <point x="296.96" y="727.04" type="qcurve" smooth="yes"/>
      <point x="204.8" y="727.04"/>
      <point x="204.8" y="819.2" type="qcurve" smooth="yes"/>
      <point x="204.8" y="1026.05" type="line" smooth="yes"/>
      <point x="204.8" y="1224.7"/>
      <point x="507.904" y="1527.81"/>
      <point x="708.608" y="1527.81" type="qcurve" smooth="yes"/>
      <point x="907.264" y="1527.81"/>
      <point x="1208.32" y="1224.7"/>
      <point x="1208.32" y="1026.05" type="qcurve" smooth="yes"/>
      <point x="1208.32" y="731.136" type="line" smooth="yes"/>
      <point x="1208.32" y="667.648"/>
      <point x="1153.02" y="649.216" type="qcurve"/>
      <point x="1126.4" y="638.976"/>
      <point x="1046.53" y="638.976" type="qcurve"/>
      <point x="1114.11" y="559.104"/>
      <point x="1114.11" y="495.616" type="qcurve" smooth="yes"/>
      <point x="1114.11" y="397.312"/>
      <point x="946.176" y="356.352" type="qcurve" smooth="yes"/>
      <point x="528.384" y="256"/>
      <point x="397.312" y="163.84" type="qcurve"/>
      <point x="475.136" y="92.16"/>
      <point x="706.56" y="92.16" type="qcurve" smooth="yes"/>
      <point x="901.12" y="92.16"/>
      <point x="1069.06" y="178.176" type="qcurve"/>
      <point x="1087.49" y="186.368"/>
      <point x="1099.78" y="188.416" type="qcurve"/>
      <point x="1099.78" y="206.848" type="line"/>
      <point x="1097.73" y="325.632"/>
      <point x="1273.86" y="495.616"/>
      <point x="1394.69" y="495.616" type="qcurve" smooth="yes"/>
      <point x="1486.85" y="495.616"/>
      <point x="1486.85" y="403.456" type="qcurve" smooth="yes"/>
      <point x="1486.85" y="311.296"/>
      <point x="1394.69" y="311.296" type="qcurve" smooth="yes"/>
      <point x="1349.63" y="311.296"/>
      <point x="1284.1" y="245.76"/>
      <point x="1284.1" y="200.704" type="qcurve" smooth="yes"/>
      <point x="1284.1" y="155.648"/>
      <point x="1349.63" y="90.112"/>
      <point x="1394.69" y="90.112" type="qcurve" smooth="yes"/>
      <point x="1435.65" y="90.112"/>
      <point x="1511.42" y="159.744"/>
      <point x="1544.19" y="159.744" type="qcurve" smooth="yes"/>
      <point x="1581.06" y="159.744"/>
      <point x="1638.4" y="102.4"/>
      <point x="1638.4" y="65.536" type="qcurve"/>
    </contour>
    <contour>
      <point x="1009.66" y="1118.21" type="line"/>
      <point x="976.896" y="1212.42"/>
      <point x="806.912" y="1343.49"/>
      <point x="708.608" y="1343.49" type="qcurve" smooth="yes"/>
      <point x="608.256" y="1343.49"/>
      <point x="436.224" y="1212.42"/>
      <point x="405.504" y="1118.21" type="qcurve"/>
    </contour>
  </outline>
</glyph>
<glyph name="uniE02A" format="2">
  <advance width="1649"/>
  <unicode hex="E02A"/>
  <outline>
    <contour>
      <point x="1648.64" y="94.208" type="line"/>
      <point x="1648.64" y="47.104"/>
      <point x="1601.54" y="18.432" type="qcurve" smooth="yes"/>
      <point x="1427.46" y="-92.16"/>
      <point x="1146.88" y="-92.16" type="qcurve" smooth="yes"/>
      <point x="966.656" y="-92.16"/>
      <point x="833.536" y="-40.96" type="qcurve" smooth="yes"/>
      <point x="645.12" y="28.672"/>
      <point x="645.12" y="176.128" type="qcurve" smooth="yes"/>
      <point x="645.12" y="294.912"/>
      <point x="868.352" y="387.072" type="qcurve"/>
      <point x="1032.19" y="442.368"/>
      <point x="1196.03" y="495.616" type="qcurve" smooth="yes"/>
      <point x="1255.42" y="516.096"/>
      <point x="1335.3" y="534.528" type="qcurve"/>
      <point x="1327.1" y="542.72"/>
      <point x="1202.18" y="663.552" type="qcurve" smooth="yes"/>
      <point x="1159.17" y="704.512"/>
      <point x="1159.17" y="745.472" type="qcurve" smooth="yes"/>
      <point x="1159.17" y="823.296"/>
      <point x="1263.62" y="823.296" type="qcurve" smooth="yes"/>
      <point x="1464.32" y="823.296" type="line"/>
      <point x="1464.32" y="933.888" type="line"/>
      <point x="829.44" y="933.888" type="line"/>
      <point x="829.44" y="815.104"/>
      <point x="825.344" y="800.768" type="qcurve"/>
      <point x="811.008" y="727.04"/>
      <point x="737.28" y="727.04" type="qcurve" smooth="yes"/>
      <point x="645.12" y="727.04"/>
      <point x="645.12" y="819.2" type="qcurve" smooth="yes"/>
      <point x="645.12" y="933.888" type="line"/>
      <point x="499.712" y="933.888" type="line" smooth="yes"/>
      <point x="454.656" y="933.888"/>
      <point x="389.12" y="868.352"/>
      <point x="389.12" y="823.296" type="qcurve" smooth="yes"/>
      <point x="389.12" y="776.192"/>
      <point x="454.656" y="712.704"/>
      <point x="499.712" y="712.704" type="qcurve" smooth="yes"/>
      <point x="591.872" y="712.704"/>
      <point x="591.872" y="620.544" type="qcurve" smooth="yes"/>
      <point x="591.872" y="528.384"/>
      <point x="499.712" y="528.384" type="qcurve" smooth="yes"/>
      <point x="378.88" y="528.384"/>
      <point x="204.8" y="700.416"/>
      <point x="204.8" y="823.296" type="qcurve" smooth="yes"/>
      <point x="204.8" y="944.128"/>
      <point x="378.88" y="1118.21"/>
      <point x="499.712" y="1118.21" type="qcurve" smooth="yes"/>
      <point x="653.312" y="1118.21" type="line"/>
      <point x="690.176" y="1288.19"/>
      <point x="972.8" y="1527.81"/>
      <point x="1146.88" y="1527.81" type="qcurve" smooth="yes"/>
      <point x="1347.58" y="1527.81"/>
      <point x="1648.64" y="1224.7"/>
      <point x="1648.64" y="1026.05" type="qcurve" smooth="yes"/>
      <point x="1648.64" y="731.136" type="line" smooth="yes"/>
      <point x="1648.64" y="692.224"/>
      <point x="1597.44" y="638.976"/>
      <point x="1486.85" y="638.976" type="qcurve"/>
      <point x="1554.43" y="559.104"/>
      <point x="1554.43" y="495.616" type="qcurve" smooth="yes"/>
      <point x="1554.43" y="395.264"/>
      <point x="1386.5" y="356.352" type="qcurve" smooth="yes"/>
      <point x="972.8" y="260.096"/>
      <point x="837.632" y="163.84" type="qcurve"/>
      <point x="874.496" y="129.024"/>
      <point x="985.088" y="108.544" type="qcurve" smooth="yes"/>
      <point x="1069.06" y="92.16"/>
      <point x="1146.88" y="92.16" type="qcurve" smooth="yes"/>
      <point x="1345.54" y="92.16"/>
      <point x="1509.38" y="178.176" type="qcurve"/>
      <point x="1536" y="190.464"/>
      <point x="1558.53" y="190.464" type="qcurve" smooth="yes"/>
      <point x="1595.39" y="190.464"/>
      <point x="1648.64" y="133.12"/>
      <point x="1648.64" y="94.208" type="qcurve"/>
    </contour>
    <contour>
      <point x="1447.94" y="1118.21" type="line"/>
      <point x="1417.22" y="1212.42"/>
      <point x="1245.18" y="1343.49"/>
      <point x="1146.88" y="1343.49" type="qcurve" smooth="yes"/>
      <point x="1048.58" y="1343.49"/>
      <point x="876.544" y="1212.42"/>
      <point x="843.776" y="1118.21" type="qcurve"/>
    </contour>
  </outline>
</glyph>
<glyph name="uniE033" format="2">
  <advance width="1493"/>
  <unicode hex="E033"/>
  <outline>
    <contour>
      <point x="1492.99" y="335.872" type="line"/>
      <point x="1492.99" y="163.84"/>
      <point x="1224.7" y="-92.16"/>
      <point x="1050.62" y="-92.16" type="qcurve" smooth="yes"/>
      <point x="899.072" y="-92.16"/>
      <point x="706.56" y="-2.048" type="qcurve" smooth="yes"/>
      <point x="587.776" y="53.248"/>
      <point x="393.216" y="178.176" type="qcurve"/>
      <point x="407.552" y="124.928"/>
      <point x="477.184" y="88.064" type="qcurve"/>
      <point x="538.624" y="53.248"/>
      <point x="538.624" y="2.048" type="qcurve" smooth="yes"/>
      <point x="538.624" y="-34.816"/>
      <point x="487.424" y="-94.208"/>
      <point x="448.512" y="-94.208" type="qcurve" smooth="yes"/>
      <point x="430.08" y="-94.208"/>
      <point x="411.648" y="-86.016" type="qcurve"/>
      <point x="319.488" y="-49.152"/>
      <point x="204.8" y="110.592"/>
      <point x="204.8" y="208.896" type="qcurve" smooth="yes"/>
      <point x="204.8" y="305.152"/>
      <point x="319.488" y="466.944"/>
      <point x="411.648" y="503.808" type="qcurve"/>
      <point x="430.08" y="509.952"/>
      <point x="448.512" y="509.952" type="qcurve" smooth="yes"/>
      <point x="487.424" y="509.952"/>
      <point x="538.624" y="452.608"/>
      <point x="538.624" y="413.696" type="qcurve" smooth="yes"/>
      <point x="538.624" y="360.448"/>
      <point x="489.472" y="335.872" type="qcurve"/>
      <point x="872.448" y="92.16"/>
      <point x="1050.62" y="92.16" type="qcurve" smooth="yes"/>
      <point x="1146.88" y="92.16"/>
      <point x="1308.67" y="239.616"/>
      <point x="1308.67" y="335.872" type="qcurve" smooth="yes"/>
      <point x="1308.67" y="452.608"/>
      <point x="1185.79" y="548.864" type="qcurve" smooth="yes"/>
      <point x="1069.06" y="638.976"/>
      <point x="946.176" y="638.976" type="qcurve" smooth="yes"/>
      <point x="854.016" y="638.976"/>
      <point x="854.016" y="731.136" type="qcurve" smooth="yes"/>
      <point x="854.016" y="823.296"/>
      <point x="946.176" y="823.296" type="qcurve" smooth="yes"/>
      <point x="1067.01" y="823.296"/>
      <point x="1181.7" y="903.168" type="qcurve" smooth="yes"/>
      <point x="1308.67" y="989.184"/>
      <point x="1308.67" y="1103.87" type="qcurve" smooth="yes"/>
      <point x="1308.67" y="1212.42"/>
      <point x="1177.6" y="1284.1" type="qcurve" smooth="yes"/>
      <point x="1064.96" y="1345.54"/>
      <point x="946.176" y="1345.54" type="qcurve" smooth="yes"/>
      <point x="770.048" y="1345.54"/>
      <point x="638.976" y="1259.52" type="qcurve"/>
      <point x="608.256" y="1236.99"/>
      <point x="581.632" y="1236.99" type="qcurve" smooth="yes"/>
      <point x="544.768" y="1236.99"/>
      <point x="489.472" y="1296.38"/>
      <point x="489.472" y="1333.25" type="qcurve" smooth="yes"/>
      <point x="489.472" y="1372.16"/>
      <point x="526.336" y="1404.93" type="qcurve"/>
      <point x="598.016" y="1464.32"/>
      <point x="724.992" y="1499.14" type="qcurve" smooth="yes"/>
      <point x="837.632" y="1529.86"/>
      <point x="946.176" y="1529.86" type="qcurve" smooth="yes"/>
      <point x="1146.88" y="1529.86"/>
      <point x="1310.72" y="1419.26" type="qcurve" smooth="yes"/>
      <point x="1492.99" y="1294.34"/>
      <point x="1492.99" y="1103.87" type="qcurve" smooth="yes"/>
      <point x="1492.99" y="872.448"/>
      <point x="1251.33" y="727.04" type="qcurve"/>
      <point x="1492.99" y="571.392"/>
      <point x="1492.99" y="335.872" type="qcurve"/>
    </contour>
  </outline>
</glyph>
<glyph name="uniE035" format="2">
  <advance width="1692"/>
  <unicode hex="E035"/>
  <outline>
    <contour>
      <point x="1691.65" y="1089.54" type="line"/>
      <point x="1691.65" y="1058.82"/>
      <point x="1665.02" y="1028.1" type="qcurve"/>
      <point x="1587.2" y="929.792"/>
      <point x="1447.94" y="929.792" type="qcurve" smooth="yes"/>
      <point x="1294.34" y="929.792"/>
      <point x="1206.27" y="1054.72" type="qcurve"/>
      <point x="1179.65" y="854.016"/>
      <point x="966.656" y="727.04" type="qcurve"/>
      <point x="1210.37" y="571.392"/>
      <point x="1210.37" y="335.872" type="qcurve" smooth="yes"/>
      <point x="1210.37" y="143.36"/>
      <point x="1026.05" y="20.48" type="qcurve" smooth="yes"/>
      <point x="862.208" y="-90.112"/>
      <point x="661.504" y="-90.112" type="qcurve" smooth="yes"/>
      <point x="555.008" y="-90.112"/>
      <point x="442.368" y="-59.392" type="qcurve" smooth="yes"/>
      <point x="311.296" y="-24.576"/>
      <point x="241.664" y="34.816" type="qcurve" smooth="yes"/>
      <point x="204.8" y="65.536"/>
      <point x="204.8" y="104.448" type="qcurve" smooth="yes"/>
      <point x="204.8" y="143.36"/>
      <point x="260.096" y="200.704"/>
      <point x="296.96" y="200.704" type="qcurve" smooth="yes"/>
      <point x="323.584" y="200.704"/>
      <point x="354.304" y="180.224" type="qcurve" smooth="yes"/>
      <point x="485.376" y="94.208"/>
      <point x="661.504" y="94.208" type="qcurve" smooth="yes"/>
      <point x="780.288" y="94.208"/>
      <point x="892.928" y="155.648" type="qcurve" smooth="yes"/>
      <point x="1026.05" y="227.328"/>
      <point x="1026.05" y="335.872" type="qcurve" smooth="yes"/>
      <point x="1026.05" y="452.608"/>
      <point x="901.12" y="548.864" type="qcurve" smooth="yes"/>
      <point x="784.384" y="638.976"/>
      <point x="661.504" y="638.976" type="qcurve" smooth="yes"/>
      <point x="569.344" y="638.976"/>
      <point x="569.344" y="731.136" type="qcurve" smooth="yes"/>
      <point x="569.344" y="823.296"/>
      <point x="661.504" y="823.296" type="qcurve" smooth="yes"/>
      <point x="782.336" y="823.296"/>
      <point x="897.024" y="903.168" type="qcurve"/>
      <point x="1026.05" y="989.184"/>
      <point x="1026.05" y="1103.87" type="qcurve" smooth="yes"/>
      <point x="1026.05" y="1212.42"/>
      <point x="892.928" y="1284.1" type="qcurve" smooth="yes"/>
      <point x="780.288" y="1345.54"/>
      <point x="661.504" y="1345.54" type="qcurve" smooth="yes"/>
      <point x="485.376" y="1345.54"/>
      <point x="354.304" y="1259.52" type="qcurve"/>
      <point x="323.584" y="1236.99"/>
      <point x="296.96" y="1236.99" type="qcurve" smooth="yes"/>
      <point x="260.096" y="1236.99"/>
      <point x="204.8" y="1296.38"/>
      <point x="204.8" y="1333.25" type="qcurve" smooth="yes"/>
      <point x="204.8" y="1372.16"/>
      <point x="241.664" y="1404.93" type="qcurve" smooth="yes"/>
      <point x="311.296" y="1464.32"/>
      <point x="442.368" y="1499.14" type="qcurve" smooth="yes"/>
      <point x="555.008" y="1529.86"/>
      <point x="661.504" y="1529.86" type="qcurve" smooth="yes"/>
      <point x="802.816" y="1529.86"/>
      <point x="942.08" y="1466.37" type="qcurve" smooth="yes"/>
      <point x="1089.54" y="1396.74"/>
      <point x="1159.17" y="1284.1" type="qcurve"/>
      <point x="1179.65" y="1386.5"/>
      <point x="1343.49" y="1519.62"/>
      <point x="1447.94" y="1519.62" type="qcurve" smooth="yes"/>
      <point x="1540.1" y="1519.62"/>
      <point x="1540.1" y="1427.46" type="qcurve" smooth="yes"/>
      <point x="1540.1" y="1335.3"/>
      <point x="1447.94" y="1335.3" type="qcurve" smooth="yes"/>
      <point x="1402.88" y="1335.3"/>
      <point x="1337.34" y="1269.76"/>
      <point x="1337.34" y="1224.7" type="qcurve" smooth="yes"/>
      <point x="1337.34" y="1179.65"/>
      <point x="1402.88" y="1114.11"/>
      <point x="1447.94" y="1114.11" type="qcurve" smooth="yes"/>
      <point x="1488.9" y="1114.11"/>
      <point x="1564.67" y="1183.74"/>
      <point x="1595.39" y="1183.74" type="qcurve" smooth="yes"/>
      <point x="1634.3" y="1183.74"/>
      <point x="1691.65" y="1126.4"/>
      <point x="1691.65" y="1089.54" type="qcurve"/>
    </contour>
  </outline>
</glyph>
<glyph name="uniE044" format="2">
  <advance width="1546"/>
  <unicode hex="E044"/>
  <outline>
    <contour>
      <point x="1544.19" y="335.872" type="line"/>
      <point x="1544.19" y="143.36"/>
      <point x="1361.92" y="20.48" type="qcurve" smooth="yes"/>
      <point x="1198.08" y="-90.112"/>
      <point x="997.376" y="-90.112" type="qcurve" smooth="yes"/>
      <point x="804.864" y="-90.112"/>
      <point x="651.264" y="-12.288" type="qcurve"/>
      <point x="565.248" y="-92.16"/>
      <point x="448.512" y="-92.16" type="qcurve" smooth="yes"/>
      <point x="374.784" y="-92.16"/>
      <point x="296.96" y="-49.152" type="qcurve" smooth="yes"/>
      <point x="204.8" y="0"/>
      <point x="204.8" y="65.536" type="qcurve" smooth="yes"/>
      <point x="204.8" y="104.448"/>
      <point x="262.144" y="159.744"/>
      <point x="299.008" y="159.744" type="qcurve" smooth="yes"/>
      <point x="331.776" y="159.744"/>
      <point x="407.552" y="92.16"/>
      <point x="448.512" y="92.16" type="qcurve" smooth="yes"/>
      <point x="493.568" y="92.16"/>
      <point x="559.104" y="157.696"/>
      <point x="559.104" y="202.752" type="qcurve" smooth="yes"/>
      <point x="559.104" y="247.808"/>
      <point x="493.568" y="313.344"/>
      <point x="448.512" y="313.344" type="qcurve" smooth="yes"/>
      <point x="356.352" y="313.344"/>
      <point x="356.352" y="405.504" type="qcurve" smooth="yes"/>
      <point x="356.352" y="497.664"/>
      <point x="448.512" y="497.664" type="qcurve" smooth="yes"/>
      <point x="569.344" y="497.664"/>
      <point x="743.424" y="323.584"/>
      <point x="743.424" y="202.752" type="qcurve" smooth="yes"/>
      <point x="743.424" y="176.128"/>
      <point x="739.328" y="149.504" type="qcurve"/>
      <point x="851.968" y="94.208"/>
      <point x="997.376" y="94.208" type="qcurve" smooth="yes"/>
      <point x="1116.16" y="94.208"/>
      <point x="1228.8" y="155.648" type="qcurve" smooth="yes"/>
      <point x="1359.87" y="227.328"/>
      <point x="1359.87" y="335.872" type="qcurve" smooth="yes"/>
      <point x="1359.87" y="411.648"/>
      <point x="1290.24" y="477.184" type="qcurve" smooth="yes"/>
      <point x="1232.9" y="530.432"/>
      <point x="1150.98" y="559.104" type="qcurve" smooth="yes"/>
      <point x="1077.25" y="583.68"/>
      <point x="997.376" y="583.68" type="qcurve" smooth="yes"/>
      <point x="956.416" y="583.68"/>
      <point x="901.12" y="634.88"/>
      <point x="901.12" y="675.84" type="qcurve" smooth="yes"/>
      <point x="901.12" y="716.8"/>
      <point x="956.416" y="768"/>
      <point x="997.376" y="768" type="qcurve" smooth="yes"/>
      <point x="1183.74" y="768"/>
      <point x="1277.95" y="823.296" type="qcurve"/>
      <point x="1183.74" y="878.592"/>
      <point x="997.376" y="878.592" type="qcurve" smooth="yes"/>
      <point x="956.416" y="878.592"/>
      <point x="901.12" y="929.792"/>
      <point x="901.12" y="970.752" type="qcurve" smooth="yes"/>
      <point x="901.12" y="1011.71"/>
      <point x="956.416" y="1062.91"/>
      <point x="997.376" y="1062.91" type="qcurve" smooth="yes"/>
      <point x="1204.22" y="1062.91"/>
      <point x="1329.15" y="1175.55" type="qcurve" smooth="yes"/>
      <point x="1359.87" y="1204.22"/>
      <point x="1359.87" y="1216.51" type="qcurve" smooth="yes"/>
      <point x="1359.87" y="1267.71"/>
      <point x="1202.18" y="1310.72" type="qcurve" smooth="yes"/>
      <point x="1071.1" y="1347.58"/>
      <point x="997.376" y="1347.58" type="qcurve" smooth="yes"/>
      <point x="827.392" y="1347.58"/>
      <point x="690.176" y="1259.52" type="qcurve" smooth="yes"/>
      <point x="657.408" y="1239.04"/>
      <point x="632.832" y="1239.04" type="qcurve" smooth="yes"/>
      <point x="595.968" y="1239.04"/>
      <point x="540.672" y="1298.43"/>
      <point x="540.672" y="1335.3" type="qcurve" smooth="yes"/>
      <point x="540.672" y="1374.21"/>
      <point x="577.536" y="1406.98" type="qcurve" smooth="yes"/>
      <point x="645.12" y="1466.37"/>
      <point x="776.192" y="1501.18" type="qcurve" smooth="yes"/>
      <point x="890.88" y="1531.9"/>
      <point x="997.376" y="1531.9" type="qcurve" smooth="yes"/>
      <point x="1173.5" y="1531.9"/>
      <point x="1337.34" y="1458.18" type="qcurve" smooth="yes"/>
      <point x="1544.19" y="1368.06"/>
      <point x="1544.19" y="1216.51" type="qcurve" smooth="yes"/>
      <point x="1544.19" y="1079.3"/>
      <point x="1374.21" y="980.992" type="qcurve"/>
      <point x="1476.61" y="917.504"/>
      <point x="1476.61" y="823.296" type="qcurve" smooth="yes"/>
      <point x="1476.61" y="720.896"/>
      <point x="1359.87" y="657.408" type="qcurve"/>
      <point x="1544.19" y="532.48"/>
      <point x="1544.19" y="335.872" type="qcurve"/>
    </contour>
  </outline>
</glyph>
<glyph name="uniE047" format="2">
  <advance width="1671"/>
  <unicode hex="E047"/>
  <outline>
    <contour>
      <point x="1671.17" y="356.352" type="line"/>
      <point x="1671.17" y="114.688"/>
      <point x="1488.9" y="-63.488" type="qcurve" smooth="yes"/>
      <point x="1456.13" y="-94.208"/>
      <point x="1421.31" y="-94.208" type="qcurve" smooth="yes"/>
      <point x="1384.45" y="-94.208"/>
      <point x="1327.1" y="-36.864"/>
      <point x="1327.1" y="0" type="qcurve" smooth="yes"/>
      <point x="1327.1" y="30.72"/>
      <point x="1359.87" y="71.68" type="qcurve"/>
      <point x="1386.5" y="102.4"/>
      <point x="1413.12" y="133.12" type="qcurve"/>
      <point x="1261.57" y="141.312"/>
      <point x="1204.22" y="270.336" type="qcurve"/>
      <point x="1173.5" y="104.448"/>
      <point x="999.424" y="0" type="qcurve" smooth="yes"/>
      <point x="841.728" y="-92.16"/>
      <point x="661.504" y="-92.16" type="qcurve" smooth="yes"/>
      <point x="555.008" y="-92.16"/>
      <point x="440.32" y="-61.44" type="qcurve" smooth="yes"/>
      <point x="309.248" y="-26.624"/>
      <point x="241.664" y="32.768" type="qcurve" smooth="yes"/>
      <point x="204.8" y="65.536"/>
      <point x="204.8" y="102.4" type="qcurve" smooth="yes"/>
      <point x="204.8" y="141.312"/>
      <point x="260.096" y="198.656"/>
      <point x="296.96" y="198.656" type="qcurve" smooth="yes"/>
      <point x="321.536" y="198.656"/>
      <point x="354.304" y="178.176" type="qcurve" smooth="yes"/>
      <point x="493.568" y="92.16"/>
      <point x="661.504" y="92.16" type="qcurve" smooth="yes"/>
      <point x="780.288" y="92.16"/>
      <point x="892.928" y="153.6" type="qcurve" smooth="yes"/>
      <point x="1026.05" y="225.28"/>
      <point x="1026.05" y="333.824" type="qcurve" smooth="yes"/>
      <point x="1026.05" y="409.6"/>
      <point x="956.416" y="475.136" type="qcurve" smooth="yes"/>
      <point x="897.024" y="528.384"/>
      <point x="815.104" y="557.056" type="qcurve" smooth="yes"/>
      <point x="741.376" y="581.632"/>
      <point x="661.504" y="581.632" type="qcurve" smooth="yes"/>
      <point x="620.544" y="581.632"/>
      <point x="565.248" y="632.832"/>
      <point x="565.248" y="673.792" type="qcurve" smooth="yes"/>
      <point x="565.248" y="714.752"/>
      <point x="620.544" y="765.952"/>
      <point x="661.504" y="765.952" type="qcurve" smooth="yes"/>
      <point x="849.92" y="765.952"/>
      <point x="942.08" y="821.248" type="qcurve"/>
      <point x="847.872" y="876.544"/>
      <point x="661.504" y="876.544" type="qcurve" smooth="yes"/>
      <point x="620.544" y="876.544"/>
      <point x="567.296" y="927.744"/>
      <point x="567.296" y="968.704" type="qcurve" smooth="yes"/>
      <point x="567.296" y="1009.66"/>
      <point x="620.544" y="1060.86"/>
      <point x="661.504" y="1060.86" type="qcurve" smooth="yes"/>
      <point x="868.352" y="1060.86"/>
      <point x="995.328" y="1173.5" type="qcurve" smooth="yes"/>
      <point x="1026.05" y="1202.18"/>
      <point x="1026.05" y="1214.46" type="qcurve" smooth="yes"/>
      <point x="1026.05" y="1265.66"/>
      <point x="868.352" y="1308.67" type="qcurve" smooth="yes"/>
      <point x="737.28" y="1345.54"/>
      <point x="661.504" y="1345.54" type="qcurve" smooth="yes"/>
      <point x="493.568" y="1345.54"/>
      <point x="354.304" y="1259.52" type="qcurve"/>
      <point x="321.536" y="1236.99"/>
      <point x="296.96" y="1236.99" type="qcurve" smooth="yes"/>
      <point x="260.096" y="1236.99"/>
      <point x="204.8" y="1296.38"/>
      <point x="204.8" y="1333.25" type="qcurve" smooth="yes"/>
      <point x="204.8" y="1372.16"/>
      <point x="241.664" y="1404.93" type="qcurve" smooth="yes"/>
      <point x="309.248" y="1464.32"/>
      <point x="440.32" y="1499.14" type="qcurve" smooth="yes"/>
      <point x="555.008" y="1529.86"/>
      <point x="661.504" y="1529.86" type="qcurve" smooth="yes"/>
      <point x="837.632" y="1529.86"/>
      <point x="1001.47" y="1458.18" type="qcurve" smooth="yes"/>
      <point x="1210.37" y="1366.02"/>
      <point x="1210.37" y="1214.46" type="qcurve" smooth="yes"/>
      <point x="1210.37" y="1077.25"/>
      <point x="1038.34" y="978.944" type="qcurve"/>
      <point x="1142.78" y="915.456"/>
      <point x="1142.78" y="821.248" type="qcurve" smooth="yes"/>
      <point x="1142.78" y="718.848"/>
      <point x="1024" y="655.36" type="qcurve"/>
      <point x="1161.22" y="563.2"/>
      <point x="1198.08" y="425.984" type="qcurve"/>
      <point x="1222.66" y="495.616"/>
      <point x="1351.68" y="581.632"/>
      <point x="1429.5" y="581.632" type="qcurve" smooth="yes"/>
      <point x="1525.76" y="581.632"/>
      <point x="1671.17" y="452.608"/>
      <point x="1671.17" y="356.352" type="qcurve"/>
    </contour>
    <contour>
      <point x="1486.85" y="356.352" type="line"/>
      <point x="1486.85" y="397.312"/>
      <point x="1429.5" y="397.312" type="qcurve" smooth="yes"/>
      <point x="1370.11" y="397.312"/>
      <point x="1370.11" y="356.352" type="qcurve" smooth="yes"/>
      <point x="1370.11" y="317.44"/>
      <point x="1429.5" y="317.44" type="qcurve" smooth="yes"/>
      <point x="1486.85" y="317.44"/>
      <point x="1486.85" y="356.352" type="qcurve"/>
    </contour>
  </outline>
</glyph>
<glyph name="uniE05B" format="2">
  <advance width="1888"/>
  <unicode hex="E05B"/>
  <outline>
    <contour>
      <point x="1888.26" y="612.352" type="line"/>
      <point x="1888.26" y="507.904"/>
      <point x="1810.43" y="450.56" type="qcurve" smooth="yes"/>
      <point x="1742.85" y="399.36"/>
      <point x="1634.3" y="399.36" type="qcurve" smooth="yes"/>
      <point x="1531.9" y="399.36"/>
      <point x="1427.46" y="479.232" type="qcurve"/>
      <point x="1386.5" y="421.888"/>
      <point x="1341.44" y="337.92" type="qcurve" smooth="yes"/>
      <point x="1312.77" y="284.672"/>
      <point x="1261.57" y="284.672" type="qcurve" smooth="yes"/>
      <point x="1222.66" y="284.672"/>
      <point x="1165.31" y="337.92"/>
      <point x="1165.31" y="374.784" type="qcurve" smooth="yes"/>
      <point x="1165.31" y="413.696"/>
      <point x="1232.9" y="520.192" type="qcurve"/>
      <point x="1159.17" y="520.192"/>
      <point x="1013.76" y="522.24" type="qcurve"/>
      <point x="864.256" y="522.24"/>
      <point x="794.624" y="522.24" type="qcurve"/>
      <point x="845.824" y="81.92" type="line"/>
      <point x="847.872" y="51.2"/>
      <point x="847.872" y="40.96" type="qcurve" smooth="yes"/>
      <point x="847.872" y="-20.48"/>
      <point x="757.76" y="-92.16"/>
      <point x="694.272" y="-92.16" type="qcurve" smooth="yes"/>
      <point x="296.96" y="-92.16" type="line" smooth="yes"/>
      <point x="256" y="-92.16"/>
      <point x="204.8" y="-40.96"/>
      <point x="204.8" y="0" type="qcurve" smooth="yes"/>
      <point x="204.8" y="40.96"/>
      <point x="256" y="92.16"/>
      <point x="296.96" y="92.16" type="qcurve" smooth="yes"/>
      <point x="657.408" y="92.16" type="line"/>
      <point x="610.304" y="522.24" type="line"/>
      <point x="436.224" y="522.24"/>
      <point x="354.304" y="552.96" type="qcurve" smooth="yes"/>
      <point x="219.136" y="604.16"/>
      <point x="219.136" y="747.52" type="qcurve" smooth="yes"/>
      <point x="219.136" y="854.016"/>
      <point x="264.192" y="913.408" type="qcurve" smooth="yes"/>
      <point x="294.912" y="952.32"/>
      <point x="374.784" y="997.376" type="qcurve" smooth="yes"/>
      <point x="468.992" y="1050.62"/>
      <point x="512" y="1089.54" type="qcurve" smooth="yes"/>
      <point x="585.728" y="1157.12"/>
      <point x="626.688" y="1157.12" type="qcurve" smooth="yes"/>
      <point x="722.944" y="1157.12"/>
      <point x="739.328" y="1011.71" type="qcurve" smooth="yes"/>
      <point x="774.144" y="704.512" type="line"/>
      <point x="886.784" y="704.512" type="line"/>
      <point x="804.864" y="1363.97" type="line"/>
      <point x="800.768" y="1388.54"/>
      <point x="800.768" y="1402.88" type="qcurve" smooth="yes"/>
      <point x="800.768" y="1456.13"/>
      <point x="851.968" y="1492.99" type="qcurve"/>
      <point x="897.024" y="1527.81"/>
      <point x="954.368" y="1527.81" type="qcurve" smooth="yes"/>
      <point x="1234.94" y="1527.81" type="line" smooth="yes"/>
      <point x="1275.9" y="1527.81"/>
      <point x="1327.1" y="1476.61"/>
      <point x="1327.1" y="1435.65" type="qcurve" smooth="yes"/>
      <point x="1327.1" y="1394.69"/>
      <point x="1275.9" y="1343.49"/>
      <point x="1234.94" y="1343.49" type="qcurve" smooth="yes"/>
      <point x="993.28" y="1343.49" type="line"/>
      <point x="1073.15" y="704.512" type="line"/>
      <point x="1232.9" y="704.512" type="line"/>
      <point x="1165.31" y="813.056"/>
      <point x="1165.31" y="849.92" type="qcurve" smooth="yes"/>
      <point x="1165.31" y="886.784"/>
      <point x="1222.66" y="940.032"/>
      <point x="1261.57" y="940.032" type="qcurve" smooth="yes"/>
      <point x="1312.77" y="940.032"/>
      <point x="1341.44" y="886.784" type="qcurve" smooth="yes"/>
      <point x="1386.5" y="804.864"/>
      <point x="1427.46" y="745.472" type="qcurve"/>
      <point x="1531.9" y="825.344"/>
      <point x="1634.3" y="825.344" type="qcurve" smooth="yes"/>
      <point x="1742.85" y="825.344"/>
      <point x="1810.43" y="776.192" type="qcurve" smooth="yes"/>
      <point x="1888.26" y="718.848"/>
      <point x="1888.26" y="612.352" type="qcurve"/>
    </contour>
    <contour>
      <point x="1703.94" y="612.352" type="line"/>
      <point x="1703.94" y="622.592"/>
      <point x="1697.79" y="628.736" type="qcurve"/>
      <point x="1679.36" y="641.024"/>
      <point x="1634.3" y="641.024" type="qcurve" smooth="yes"/>
      <point x="1599.49" y="641.024"/>
      <point x="1556.48" y="612.352" type="qcurve"/>
      <point x="1599.49" y="583.68"/>
      <point x="1634.3" y="583.68" type="qcurve" smooth="yes"/>
      <point x="1679.36" y="583.68"/>
      <point x="1701.89" y="600.064" type="qcurve"/>
      <point x="1703.94" y="604.16"/>
      <point x="1703.94" y="612.352" type="qcurve"/>
    </contour>
    <contour>
      <point x="587.776" y="706.56" type="line"/>
      <point x="567.296" y="899.072" type="line"/>
      <point x="514.048" y="872.448"/>
      <point x="460.8" y="843.776" type="qcurve"/>
      <point x="403.456" y="804.864"/>
      <point x="403.456" y="747.52" type="qcurve" smooth="yes"/>
      <point x="403.456" y="706.56"/>
      <point x="538.624" y="706.56" type="qcurve" smooth="yes"/>
    </contour>
  </outline>
</glyph>
<glyph name="uniE062" format="2">
  <advance width="1731"/>
  <unicode hex="E062"/>
  <outline>
    <contour>
      <point x="1730.56" y="901.12" type="line"/>
      <point x="1730.56" y="804.864"/>
      <point x="1615.87" y="643.072"/>
      <point x="1525.76" y="606.208" type="qcurve"/>
      <point x="1505.28" y="600.064"/>
      <point x="1486.85" y="600.064" type="qcurve" smooth="yes"/>
      <point x="1449.98" y="600.064"/>
      <point x="1398.78" y="657.408"/>
      <point x="1398.78" y="696.32" type="qcurve" smooth="yes"/>
      <point x="1398.78" y="741.376"/>
      <point x="1470.46" y="786.432"/>
      <point x="1505.28" y="808.96" type="qcurve"/>
      <point x="1208.32" y="808.96" type="line"/>
      <point x="1204.22" y="647.168"/>
      <point x="1087.49" y="509.952" type="qcurve" smooth="yes"/>
      <point x="983.04" y="385.024"/>
      <point x="821.248" y="323.584" type="qcurve"/>
      <point x="808.96" y="319.488"/>
      <point x="604.16" y="256" type="qcurve"/>
      <point x="471.04" y="217.088"/>
      <point x="397.312" y="163.84" type="qcurve"/>
      <point x="428.032" y="129.024"/>
      <point x="542.72" y="108.544" type="qcurve" smooth="yes"/>
      <point x="632.832" y="92.16"/>
      <point x="706.56" y="92.16" type="qcurve" smooth="yes"/>
      <point x="907.264" y="92.16"/>
      <point x="1069.06" y="178.176" type="qcurve"/>
      <point x="1095.68" y="190.464"/>
      <point x="1118.21" y="190.464" type="qcurve" smooth="yes"/>
      <point x="1155.07" y="190.464"/>
      <point x="1210.37" y="133.12"/>
      <point x="1210.37" y="94.208" type="qcurve" smooth="yes"/>
      <point x="1210.37" y="47.104"/>
      <point x="1163.26" y="18.432" type="qcurve" smooth="yes"/>
      <point x="987.136" y="-92.16"/>
      <point x="706.56" y="-92.16" type="qcurve" smooth="yes"/>
      <point x="526.336" y="-92.16"/>
      <point x="393.216" y="-40.96" type="qcurve" smooth="yes"/>
      <point x="204.8" y="28.672"/>
      <point x="204.8" y="176.128" type="qcurve" smooth="yes"/>
      <point x="204.8" y="266.24"/>
      <point x="313.344" y="331.776" type="qcurve" smooth="yes"/>
      <point x="368.64" y="364.544"/>
      <point x="501.76" y="409.6" type="qcurve" smooth="yes"/>
      <point x="563.2" y="430.08"/>
      <point x="686.08" y="473.088" type="qcurve"/>
      <point x="849.92" y="534.528"/>
      <point x="929.792" y="606.208" type="qcurve"/>
      <point x="731.136" y="616.448"/>
      <point x="602.112" y="667.648" type="qcurve" smooth="yes"/>
      <point x="409.6" y="745.472"/>
      <point x="409.6" y="901.12" type="qcurve" smooth="yes"/>
      <point x="409.6" y="1073.15"/>
      <point x="645.12" y="1148.93" type="qcurve" smooth="yes"/>
      <point x="800.768" y="1198.08"/>
      <point x="1024" y="1198.08" type="qcurve"/>
      <point x="1024" y="1343.49" type="line"/>
      <point x="296.96" y="1343.49" type="line" smooth="yes"/>
      <point x="204.8" y="1343.49"/>
      <point x="204.8" y="1435.65" type="qcurve" smooth="yes"/>
      <point x="204.8" y="1527.81"/>
      <point x="296.96" y="1527.81" type="qcurve" smooth="yes"/>
      <point x="1067.01" y="1527.81" type="line" smooth="yes"/>
      <point x="1124.35" y="1527.81"/>
      <point x="1208.32" y="1443.84"/>
      <point x="1208.32" y="1386.5" type="qcurve" smooth="yes"/>
      <point x="1208.32" y="993.28" type="line"/>
      <point x="1505.28" y="993.28" type="line"/>
      <point x="1470.46" y="1015.81"/>
      <point x="1398.78" y="1060.86"/>
      <point x="1398.78" y="1105.92" type="qcurve" smooth="yes"/>
      <point x="1398.78" y="1144.83"/>
      <point x="1449.98" y="1202.18"/>
      <point x="1486.85" y="1202.18" type="qcurve" smooth="yes"/>
      <point x="1505.28" y="1202.18"/>
      <point x="1525.76" y="1196.03" type="qcurve"/>
      <point x="1615.87" y="1159.17"/>
      <point x="1730.56" y="997.376"/>
      <point x="1730.56" y="901.12" type="qcurve"/>
    </contour>
    <contour>
      <point x="1024" y="819.2" type="line"/>
      <point x="1024" y="1013.76" type="line"/>
      <point x="1013.76" y="1013.76" type="line" smooth="yes"/>
      <point x="907.264" y="1013.76"/>
      <point x="778.24" y="991.232" type="qcurve" smooth="yes"/>
      <point x="593.92" y="958.464"/>
      <point x="593.92" y="901.12" type="qcurve" smooth="yes"/>
      <point x="593.92" y="841.728"/>
      <point x="782.336" y="811.008" type="qcurve" smooth="yes"/>
      <point x="913.408" y="788.48"/>
      <point x="1021.95" y="788.48" type="qcurve"/>
      <point x="1024" y="802.816"/>
      <point x="1024" y="819.2" type="qcurve"/>
    </contour>
  </outline>
</glyph>
<glyph name="uniE073" format="2">
  <advance width="2013"/>
  <unicode hex="E073"/>
  <outline>
    <contour>
      <point x="2013.18" y="612.352" type="line"/>
      <point x="2013.18" y="499.712"/>
      <point x="1927.17" y="444.416" type="qcurve" smooth="yes"/>
      <point x="1859.58" y="399.36"/>
      <point x="1759.23" y="399.36" type="qcurve" smooth="yes"/>
      <point x="1656.83" y="399.36"/>
      <point x="1552.38" y="479.232" type="qcurve"/>
      <point x="1499.14" y="403.456"/>
      <point x="1466.37" y="337.92" type="qcurve" smooth="yes"/>
      <point x="1439.74" y="284.672"/>
      <point x="1386.5" y="284.672" type="qcurve" smooth="yes"/>
      <point x="1349.63" y="284.672"/>
      <point x="1290.24" y="337.92"/>
      <point x="1290.24" y="374.784" type="qcurve" smooth="yes"/>
      <point x="1290.24" y="413.696"/>
      <point x="1357.82" y="520.192" type="qcurve"/>
      <point x="1275.9" y="520.192"/>
      <point x="1116.16" y="522.24" type="qcurve"/>
      <point x="952.32" y="522.24"/>
      <point x="874.496" y="522.24" type="qcurve"/>
      <point x="874.496" y="423.936"/>
      <point x="776.192" y="362.496" type="qcurve"/>
      <point x="733.184" y="333.824"/>
      <point x="573.44" y="272.384" type="qcurve" smooth="yes"/>
      <point x="440.32" y="221.184"/>
      <point x="393.216" y="172.032" type="qcurve"/>
      <point x="419.84" y="133.12"/>
      <point x="538.624" y="108.544" type="qcurve"/>
      <point x="628.736" y="92.16"/>
      <point x="706.56" y="92.16" type="qcurve" smooth="yes"/>
      <point x="897.024" y="92.16"/>
      <point x="1069.06" y="178.176" type="qcurve"/>
      <point x="1097.73" y="190.464"/>
      <point x="1118.21" y="190.464" type="qcurve" smooth="yes"/>
      <point x="1155.07" y="190.464"/>
      <point x="1210.37" y="133.12"/>
      <point x="1210.37" y="94.208" type="qcurve" smooth="yes"/>
      <point x="1210.37" y="51.2"/>
      <point x="1163.26" y="18.432" type="qcurve" smooth="yes"/>
      <point x="1001.47" y="-92.16"/>
      <point x="706.56" y="-92.16" type="qcurve" smooth="yes"/>
      <point x="528.384" y="-92.16"/>
      <point x="393.216" y="-40.96" type="qcurve" smooth="yes"/>
      <point x="204.8" y="28.672"/>
      <point x="204.8" y="176.128" type="qcurve" smooth="yes"/>
      <point x="204.8" y="280.576"/>
      <point x="335.872" y="362.496" type="qcurve" smooth="yes"/>
      <point x="403.456" y="403.456"/>
      <point x="559.104" y="460.8" type="qcurve" smooth="yes"/>
      <point x="608.256" y="479.232"/>
      <point x="690.176" y="522.24" type="qcurve"/>
      <point x="600.064" y="522.24" type="line"/>
      <point x="434.176" y="520.192"/>
      <point x="350.208" y="555.008" type="qcurve" smooth="yes"/>
      <point x="219.136" y="606.208"/>
      <point x="219.136" y="747.52" type="qcurve" smooth="yes"/>
      <point x="219.136" y="858.112"/>
      <point x="266.24" y="911.36" type="qcurve"/>
      <point x="290.816" y="942.08"/>
      <point x="460.8" y="1024"/>
      <point x="548.864" y="1122.3"/>
      <point x="557.056" y="1130.5" type="qcurve"/>
      <point x="589.824" y="1157.12"/>
      <point x="626.688" y="1157.12" type="qcurve" smooth="yes"/>
      <point x="704.512" y="1157.12"/>
      <point x="768" y="966.656" type="qcurve"/>
      <point x="770.048" y="962.56"/>
      <point x="833.536" y="706.56" type="qcurve"/>
      <point x="991.232" y="704.512" type="line"/>
      <point x="872.448" y="1081.34"/>
      <point x="872.448" y="1202.18" type="qcurve" smooth="yes"/>
      <point x="872.448" y="1343.49" type="line"/>
      <point x="378.88" y="1343.49" type="line" smooth="yes"/>
      <point x="286.72" y="1343.49"/>
      <point x="286.72" y="1435.65" type="qcurve" smooth="yes"/>
      <point x="286.72" y="1527.81"/>
      <point x="378.88" y="1527.81" type="qcurve" smooth="yes"/>
      <point x="903.168" y="1527.81" type="line" smooth="yes"/>
      <point x="1019.9" y="1527.81"/>
      <point x="1048.58" y="1413.12" type="qcurve"/>
      <point x="1056.77" y="1376.26"/>
      <point x="1056.77" y="1202.18" type="qcurve" smooth="yes"/>
      <point x="1056.77" y="1130.5"/>
      <point x="1163.26" y="782.336" type="qcurve" smooth="yes"/>
      <point x="1171.46" y="755.712"/>
      <point x="1185.79" y="704.512" type="qcurve"/>
      <point x="1357.82" y="704.512" type="line"/>
      <point x="1290.24" y="813.056"/>
      <point x="1290.24" y="849.92" type="qcurve" smooth="yes"/>
      <point x="1290.24" y="888.832"/>
      <point x="1349.63" y="940.032"/>
      <point x="1386.5" y="940.032" type="qcurve" smooth="yes"/>
      <point x="1439.74" y="940.032"/>
      <point x="1466.37" y="886.784" type="qcurve" smooth="yes"/>
      <point x="1499.14" y="821.248"/>
      <point x="1552.38" y="745.472" type="qcurve"/>
      <point x="1656.83" y="825.344"/>
      <point x="1759.23" y="825.344" type="qcurve" smooth="yes"/>
      <point x="1859.58" y="825.344"/>
      <point x="1927.17" y="780.288" type="qcurve" smooth="yes"/>
      <point x="2013.18" y="724.992"/>
      <point x="2013.18" y="612.352" type="qcurve"/>
    </contour>
    <contour>
      <point x="1828.86" y="612.352" type="line"/>
      <point x="1828.86" y="620.544"/>
      <point x="1822.72" y="628.736" type="qcurve"/>
      <point x="1804.29" y="641.024"/>
      <point x="1759.23" y="641.024" type="qcurve" smooth="yes"/>
      <point x="1724.42" y="641.024"/>
      <point x="1681.41" y="612.352" type="qcurve"/>
      <point x="1724.42" y="583.68"/>
      <point x="1759.23" y="583.68" type="qcurve" smooth="yes"/>
      <point x="1804.29" y="583.68"/>
      <point x="1826.82" y="600.064" type="qcurve"/>
      <point x="1828.86" y="604.16"/>
      <point x="1828.86" y="612.352" type="qcurve"/>
    </contour>
    <contour>
      <point x="641.024" y="706.56" type="line"/>
      <point x="587.776" y="894.976" type="line"/>
      <point x="530.432" y="866.304"/>
      <point x="473.088" y="839.68" type="qcurve"/>
      <point x="403.456" y="802.816"/>
      <point x="403.456" y="747.52" type="qcurve"/>
      <point x="405.504" y="735.232"/>
      <point x="407.552" y="733.184" type="qcurve"/>
      <point x="428.032" y="708.608"/>
      <point x="641.024" y="706.56" type="qcurve"/>
    </contour>
  </outline>
</glyph>
<glyph name="uniE090" format="2">
  <advance width="1210"/>
  <unicode hex="E090"/>
  <outline>
    <contour>
      <point x="1210.37" y="368.64" type="line" smooth="yes"/>
      <point x="1210.37" y="182.272"/>
      <point x="1146.88" y="63.488" type="qcurve" smooth="yes"/>
      <point x="1064.96" y="-92.16"/>
      <point x="897.024" y="-92.16" type="qcurve" smooth="yes"/>
      <point x="778.24" y="-92.16"/>
      <point x="616.448" y="75.776"/>
      <point x="616.448" y="196.608" type="qcurve" smooth="yes"/>
      <point x="616.448" y="356.352"/>
      <point x="743.424" y="464.896" type="qcurve"/>
      <point x="856.064" y="557.056"/>
      <point x="1026.05" y="585.728" type="qcurve"/>
      <point x="1026.05" y="1230.85" type="line"/>
      <point x="876.544" y="1136.64"/>
      <point x="706.56" y="1136.64" type="qcurve" smooth="yes"/>
      <point x="479.232" y="1136.64"/>
      <point x="296.96" y="1302.53" type="qcurve" smooth="yes"/>
      <point x="249.856" y="1347.58"/>
      <point x="204.8" y="1406.98"/>
      <point x="204.8" y="1435.65" type="qcurve" smooth="yes"/>
      <point x="204.8" y="1472.51"/>
      <point x="262.144" y="1529.86"/>
      <point x="301.056" y="1529.86" type="qcurve" smooth="yes"/>
      <point x="335.872" y="1529.86"/>
      <point x="370.688" y="1495.04" type="qcurve"/>
      <point x="389.12" y="1472.51"/>
      <point x="430.08" y="1431.55" type="qcurve"/>
      <point x="555.008" y="1320.96"/>
      <point x="706.56" y="1320.96" type="qcurve" smooth="yes"/>
      <point x="886.784" y="1320.96"/>
      <point x="1046.53" y="1495.04" type="qcurve" smooth="yes"/>
      <point x="1089.54" y="1540.1"/>
      <point x="1130.5" y="1540.1" type="qcurve" smooth="yes"/>
      <point x="1210.37" y="1540.1"/>
      <point x="1210.37" y="1435.65" type="qcurve" smooth="yes"/>
    </contour>
    <contour>
      <point x="1026.05" y="397.312" type="line"/>
      <point x="800.768" y="348.16"/>
      <point x="800.768" y="196.608" type="qcurve" smooth="yes"/>
      <point x="800.768" y="153.6"/>
      <point x="854.016" y="92.16"/>
      <point x="897.024" y="92.16" type="qcurve" smooth="yes"/>
      <point x="1026.05" y="92.16"/>
      <point x="1026.05" y="397.312" type="qcurve"/>
    </contour>
  </outline>
</glyph>
<glyph name="uniE091" format="2">
  <advance width="1208"/>
  <unicode hex="E091"/>
  <outline>
    <contour>
      <point x="1208.32" y="368.64" type="line" smooth="yes"/>
      <point x="1208.32" y="182.272"/>
      <point x="1144.83" y="63.488" type="qcurve" smooth="yes"/>
      <point x="1062.91" y="-92.16"/>
      <point x="894.976" y="-92.16" type="qcurve" smooth="yes"/>
      <point x="776.192" y="-92.16"/>
      <point x="614.4" y="75.776"/>
      <point x="614.4" y="196.608" type="qcurve" smooth="yes"/>
      <point x="614.4" y="356.352"/>
      <point x="743.424" y="464.896" type="qcurve" smooth="yes"/>
      <point x="854.016" y="557.056"/>
      <point x="1024" y="585.728" type="qcurve"/>
      <point x="1024" y="684.032" type="line"/>
      <point x="866.304" y="684.032" type="line"/>
      <point x="835.584" y="593.92"/>
      <point x="679.936" y="481.28"/>
      <point x="585.728" y="481.28" type="qcurve" smooth="yes"/>
      <point x="493.568" y="481.28"/>
      <point x="493.568" y="573.44" type="qcurve" smooth="yes"/>
      <point x="493.568" y="665.6"/>
      <point x="585.728" y="665.6" type="qcurve" smooth="yes"/>
      <point x="630.784" y="665.6"/>
      <point x="696.32" y="731.136"/>
      <point x="696.32" y="776.192" type="qcurve" smooth="yes"/>
      <point x="696.32" y="821.248"/>
      <point x="630.784" y="886.784"/>
      <point x="585.728" y="886.784" type="qcurve" smooth="yes"/>
      <point x="493.568" y="886.784"/>
      <point x="493.568" y="978.944" type="qcurve" smooth="yes"/>
      <point x="493.568" y="1071.1"/>
      <point x="585.728" y="1071.1" type="qcurve" smooth="yes"/>
      <point x="679.936" y="1071.1"/>
      <point x="835.584" y="958.464"/>
      <point x="866.304" y="868.352" type="qcurve"/>
      <point x="1024" y="868.352" type="line"/>
      <point x="1024" y="1230.85" type="line"/>
      <point x="874.496" y="1136.64"/>
      <point x="706.56" y="1136.64" type="qcurve" smooth="yes"/>
      <point x="471.04" y="1136.64"/>
      <point x="286.72" y="1312.77" type="qcurve"/>
      <point x="243.712" y="1351.68"/>
      <point x="202.752" y="1406.98"/>
      <point x="202.752" y="1435.65" type="qcurve" smooth="yes"/>
      <point x="202.752" y="1472.51"/>
      <point x="262.144" y="1529.86"/>
      <point x="299.008" y="1529.86" type="qcurve" smooth="yes"/>
      <point x="331.776" y="1529.86"/>
      <point x="366.592" y="1497.09" type="qcurve"/>
      <point x="393.216" y="1468.42"/>
      <point x="419.84" y="1439.74" type="qcurve"/>
      <point x="548.864" y="1320.96"/>
      <point x="706.56" y="1320.96" type="qcurve" smooth="yes"/>
      <point x="888.832" y="1320.96"/>
      <point x="1044.48" y="1495.04" type="qcurve"/>
      <point x="1087.49" y="1540.1"/>
      <point x="1128.45" y="1540.1" type="qcurve" smooth="yes"/>
      <point x="1208.32" y="1540.1"/>
      <point x="1208.32" y="1435.65" type="qcurve" smooth="yes"/>
    </contour>
    <contour>
      <point x="1024" y="397.312" type="line"/>
      <point x="798.72" y="348.16"/>
      <point x="798.72" y="196.608" type="qcurve" smooth="yes"/>
      <point x="798.72" y="153.6"/>
      <point x="851.968" y="92.16"/>
      <point x="894.976" y="92.16" type="qcurve" smooth="yes"/>
      <point x="1024" y="92.16"/>
      <point x="1024" y="397.312" type="qcurve"/>
    </contour>
  </outline>
</glyph>
<glyph name="uniE0AA" format="2">
  <advance width="1489"/>
  <unicode hex="E0AA"/>
  <outline>
    <contour>
      <point x="1488.9" y="819.2" type="line"/>
      <point x="1488.9" y="722.944"/>
      <point x="1374.21" y="559.104"/>
      <point x="1284.1" y="524.288" type="qcurve"/>
      <point x="1263.62" y="518.144"/>
      <point x="1245.18" y="518.144" type="qcurve" smooth="yes"/>
      <point x="1208.32" y="518.144"/>
      <point x="1155.07" y="575.488"/>
      <point x="1155.07" y="614.4" type="qcurve" smooth="yes"/>
      <point x="1155.07" y="659.456"/>
      <point x="1228.8" y="704.512"/>
      <point x="1263.62" y="727.04" type="qcurve"/>
      <point x="1005.57" y="727.04" type="line"/>
      <point x="1005.57" y="204.8" type="line" smooth="yes"/>
      <point x="1005.57" y="83.968"/>
      <point x="864.256" y="-8.192" type="qcurve" smooth="yes"/>
      <point x="735.232" y="-92.16"/>
      <point x="608.256" y="-92.16" type="qcurve" smooth="yes"/>
      <point x="372.736" y="-92.16"/>
      <point x="237.568" y="32.768" type="qcurve" smooth="yes"/>
      <point x="204.8" y="63.488"/>
      <point x="204.8" y="100.352" type="qcurve" smooth="yes"/>
      <point x="204.8" y="139.264"/>
      <point x="262.144" y="196.608"/>
      <point x="299.008" y="196.608" type="qcurve" smooth="yes"/>
      <point x="329.728" y="196.608"/>
      <point x="358.4" y="172.032" type="qcurve"/>
      <point x="458.752" y="92.16"/>
      <point x="608.256" y="92.16" type="qcurve" smooth="yes"/>
      <point x="718.848" y="92.16"/>
      <point x="800.768" y="178.176" type="qcurve" smooth="yes"/>
      <point x="821.248" y="200.704"/>
      <point x="821.248" y="204.8" type="qcurve" smooth="yes"/>
      <point x="821.248" y="727.04" type="line"/>
      <point x="575.488" y="727.04"/>
      <point x="483.328" y="753.664" type="qcurve" smooth="yes"/>
      <point x="296.96" y="808.96"/>
      <point x="296.96" y="995.328" type="qcurve" smooth="yes"/>
      <point x="296.96" y="1110.02"/>
      <point x="526.336" y="1296.38" type="qcurve" smooth="yes"/>
      <point x="718.848" y="1454.08"/>
      <point x="868.352" y="1517.57" type="qcurve"/>
      <point x="894.976" y="1527.81"/>
      <point x="915.456" y="1527.81" type="qcurve" smooth="yes"/>
      <point x="1005.57" y="1527.81"/>
      <point x="1005.57" y="1425.41" type="qcurve" smooth="yes"/>
      <point x="1005.57" y="911.36" type="line"/>
      <point x="1263.62" y="911.36" type="line"/>
      <point x="1228.8" y="933.888"/>
      <point x="1155.07" y="978.944"/>
      <point x="1155.07" y="1024" type="qcurve" smooth="yes"/>
      <point x="1155.07" y="1062.91"/>
      <point x="1208.32" y="1120.26"/>
      <point x="1245.18" y="1120.26" type="qcurve" smooth="yes"/>
      <point x="1263.62" y="1120.26"/>
      <point x="1284.1" y="1114.11" type="qcurve"/>
      <point x="1374.21" y="1079.3"/>
      <point x="1488.9" y="915.456"/>
      <point x="1488.9" y="819.2" type="qcurve"/>
    </contour>
    <contour>
      <point x="821.248" y="911.36" type="line"/>
      <point x="821.248" y="1286.14" type="line"/>
      <point x="751.616" y="1241.09"/>
      <point x="632.832" y="1146.88" type="qcurve" smooth="yes"/>
      <point x="481.28" y="1024"/>
      <point x="481.28" y="995.328" type="qcurve" smooth="yes"/>
      <point x="481.28" y="911.36"/>
      <point x="669.696" y="911.36" type="qcurve" smooth="yes"/>
    </contour>
  </outline>
</glyph>
<glyph name="uniE0AC" format="2">
  <advance width="1569"/>
  <unicode hex="E0AC"/>
  <outline>
    <contour>
      <point x="1568.77" y="65.536" type="line"/>
      <point x="1568.77" y="32.768"/>
      <point x="1542.14" y="4.096" type="qcurve"/>
      <point x="1460.22" y="-94.208"/>
      <point x="1325.06" y="-94.208" type="qcurve" smooth="yes"/>
      <point x="1228.8" y="-94.208"/>
      <point x="1073.15" y="20.48"/>
      <point x="1044.48" y="110.592" type="qcurve"/>
      <point x="978.944" y="112.64" type="line"/>
      <point x="931.84" y="24.576"/>
      <point x="712.704" y="-92.16"/>
      <point x="608.256" y="-92.16" type="qcurve" smooth="yes"/>
      <point x="372.736" y="-92.16"/>
      <point x="237.568" y="32.768" type="qcurve" smooth="yes"/>
      <point x="204.8" y="63.488"/>
      <point x="204.8" y="100.352" type="qcurve" smooth="yes"/>
      <point x="204.8" y="139.264"/>
      <point x="262.144" y="196.608"/>
      <point x="299.008" y="196.608" type="qcurve" smooth="yes"/>
      <point x="329.728" y="196.608"/>
      <point x="358.4" y="172.032" type="qcurve"/>
      <point x="458.752" y="92.16"/>
      <point x="608.256" y="92.16" type="qcurve" smooth="yes"/>
      <point x="722.944" y="92.16"/>
      <point x="804.864" y="184.32" type="qcurve" smooth="yes"/>
      <point x="819.2" y="200.704"/>
      <point x="821.248" y="204.8" type="qcurve"/>
      <point x="821.248" y="737.28" type="line"/>
      <point x="772.096" y="727.04"/>
      <point x="708.608" y="727.04" type="qcurve" smooth="yes"/>
      <point x="296.96" y="727.04"/>
      <point x="296.96" y="995.328" type="qcurve" smooth="yes"/>
      <point x="296.96" y="1110.02"/>
      <point x="526.336" y="1296.38" type="qcurve" smooth="yes"/>
      <point x="718.848" y="1454.08"/>
      <point x="868.352" y="1517.57" type="qcurve"/>
      <point x="894.976" y="1527.81"/>
      <point x="915.456" y="1527.81" type="qcurve" smooth="yes"/>
      <point x="1005.57" y="1527.81"/>
      <point x="1005.57" y="1425.41" type="qcurve" smooth="yes"/>
      <point x="1005.57" y="294.912" type="line"/>
      <point x="1044.48" y="294.912" type="line"/>
      <point x="1075.2" y="385.024"/>
      <point x="1230.85" y="495.616"/>
      <point x="1325.06" y="495.616" type="qcurve" smooth="yes"/>
      <point x="1417.22" y="495.616"/>
      <point x="1417.22" y="403.456" type="qcurve" smooth="yes"/>
      <point x="1417.22" y="311.296"/>
      <point x="1325.06" y="311.296" type="qcurve" smooth="yes"/>
      <point x="1280" y="311.296"/>
      <point x="1214.46" y="245.76"/>
      <point x="1214.46" y="200.704" type="qcurve" smooth="yes"/>
      <point x="1214.46" y="155.648"/>
      <point x="1280" y="90.112"/>
      <point x="1325.06" y="90.112" type="qcurve" smooth="yes"/>
      <point x="1366.02" y="90.112"/>
      <point x="1441.79" y="159.744"/>
      <point x="1472.51" y="159.744" type="qcurve" smooth="yes"/>
      <point x="1511.42" y="159.744"/>
      <point x="1568.77" y="102.4"/>
      <point x="1568.77" y="65.536" type="qcurve"/>
    </contour>
    <contour>
      <point x="821.248" y="929.792" type="line"/>
      <point x="821.248" y="1286.14" type="line"/>
      <point x="751.616" y="1241.09"/>
      <point x="632.832" y="1146.88" type="qcurve" smooth="yes"/>
      <point x="481.28" y="1024"/>
      <point x="481.28" y="995.328" type="qcurve" smooth="yes"/>
      <point x="481.28" y="911.36"/>
      <point x="669.696" y="911.36" type="qcurve" smooth="yes"/>
      <point x="774.144" y="911.36"/>
      <point x="821.248" y="929.792" type="qcurve"/>
    </contour>
  </outline>
</glyph>
<glyph name="uniE0B3" format="2">
  <advance width="1538"/>
  <unicode hex="E0B3"/>
  <outline>
    <contour>
      <point x="1538.05" y="356.352" type="line"/>
      <point x="1538.05" y="118.784"/>
      <point x="1353.73" y="-63.488" type="qcurve" smooth="yes"/>
      <point x="1323.01" y="-94.208"/>
      <point x="1288.19" y="-94.208" type="qcurve" smooth="yes"/>
      <point x="1251.33" y="-94.208"/>
      <point x="1193.98" y="-36.864"/>
      <point x="1193.98" y="0" type="qcurve" smooth="yes"/>
      <point x="1193.98" y="30.72"/>
      <point x="1226.75" y="69.632" type="qcurve" smooth="yes"/>
      <point x="1253.38" y="102.4"/>
      <point x="1280" y="133.12" type="qcurve"/>
      <point x="1126.4" y="141.312"/>
      <point x="1069.06" y="272.384" type="qcurve"/>
      <point x="1005.57" y="272.384" type="line"/>
      <point x="1005.57" y="204.8" type="line" smooth="yes"/>
      <point x="1005.57" y="83.968"/>
      <point x="864.256" y="-8.192" type="qcurve" smooth="yes"/>
      <point x="735.232" y="-92.16"/>
      <point x="608.256" y="-92.16" type="qcurve" smooth="yes"/>
      <point x="370.688" y="-92.16"/>
      <point x="237.568" y="32.768" type="qcurve" smooth="yes"/>
      <point x="204.8" y="63.488"/>
      <point x="204.8" y="100.352" type="qcurve" smooth="yes"/>
      <point x="204.8" y="139.264"/>
      <point x="262.144" y="196.608"/>
      <point x="299.008" y="196.608" type="qcurve" smooth="yes"/>
      <point x="327.68" y="196.608"/>
      <point x="358.4" y="172.032" type="qcurve" smooth="yes"/>
      <point x="460.8" y="92.16"/>
      <point x="608.256" y="92.16" type="qcurve" smooth="yes"/>
      <point x="720.896" y="92.16"/>
      <point x="802.816" y="182.272" type="qcurve"/>
      <point x="821.248" y="200.704"/>
      <point x="821.248" y="204.8" type="qcurve" smooth="yes"/>
      <point x="821.248" y="737.28" type="line"/>
      <point x="772.096" y="727.04"/>
      <point x="708.608" y="727.04" type="qcurve" smooth="yes"/>
      <point x="296.96" y="727.04"/>
      <point x="296.96" y="995.328" type="qcurve" smooth="yes"/>
      <point x="296.96" y="1110.02"/>
      <point x="526.336" y="1296.38" type="qcurve" smooth="yes"/>
      <point x="718.848" y="1454.08"/>
      <point x="868.352" y="1517.57" type="qcurve"/>
      <point x="894.976" y="1527.81"/>
      <point x="915.456" y="1527.81" type="qcurve" smooth="yes"/>
      <point x="1005.57" y="1527.81"/>
      <point x="1005.57" y="1425.41" type="qcurve" smooth="yes"/>
      <point x="1005.57" y="456.704" type="line"/>
      <point x="1077.25" y="456.704" type="line"/>
      <point x="1142.78" y="581.632"/>
      <point x="1294.34" y="581.632" type="qcurve" smooth="yes"/>
      <point x="1392.64" y="581.632"/>
      <point x="1538.05" y="452.608"/>
      <point x="1538.05" y="356.352" type="qcurve"/>
    </contour>
    <contour>
      <point x="821.248" y="929.792" type="line"/>
      <point x="821.248" y="1286.14" type="line"/>
      <point x="712.704" y="1214.46"/>
      <point x="481.28" y="1017.86"/>
      <point x="481.28" y="995.328" type="qcurve" smooth="yes"/>
      <point x="481.28" y="935.936"/>
      <point x="573.44" y="917.504" type="qcurve"/>
      <point x="610.304" y="911.36"/>
      <point x="708.608" y="911.36" type="qcurve" smooth="yes"/>
      <point x="776.192" y="911.36"/>
      <point x="821.248" y="929.792" type="qcurve"/>
    </contour>
    <contour>
      <point x="1353.73" y="356.352" type="line"/>
      <point x="1353.73" y="397.312"/>
      <point x="1294.34" y="397.312" type="qcurve" smooth="yes"/>
      <point x="1236.99" y="397.312"/>
      <point x="1236.99" y="356.352" type="qcurve" smooth="yes"/>
      <point x="1236.99" y="317.44"/>
      <point x="1294.34" y="317.44" type="qcurve" smooth="yes"/>
      <point x="1353.73" y="317.44"/>
      <point x="1353.73" y="356.352" type="qcurve"/>
    </contour>
  </outline>
</glyph>
<glyph name="uniE0D1" format="2">
  <advance width="1741"/>
  <unicode hex="E0D1"/>
  <outline>
    <contour>
      <point x="1740.8" y="884.736" type="line"/>
      <point x="1740.8" y="819.2"/>
      <point x="1650.69" y="770.048" type="qcurve" smooth="yes"/>
      <point x="1570.82" y="727.04"/>
      <point x="1497.09" y="727.04" type="qcurve" smooth="yes"/>
      <point x="1402.88" y="727.04"/>
      <point x="1245.18" y="841.728"/>
      <point x="1216.51" y="931.84" type="qcurve"/>
      <point x="655.36" y="931.84" type="line"/>
      <point x="657.408" y="761.856" type="line"/>
      <point x="657.408" y="720.896"/>
      <point x="606.208" y="665.6"/>
      <point x="567.296" y="665.6" type="qcurve" smooth="yes"/>
      <point x="546.816" y="665.6"/>
      <point x="389.12" y="724.992" type="qcurve"/>
      <point x="389.12" y="92.16" type="line"/>
      <point x="1116.16" y="92.16" type="line" smooth="yes"/>
      <point x="1208.32" y="92.16"/>
      <point x="1208.32" y="0" type="qcurve" smooth="yes"/>
      <point x="1208.32" y="-92.16"/>
      <point x="1116.16" y="-92.16" type="qcurve" smooth="yes"/>
      <point x="346.112" y="-92.16" type="line" smooth="yes"/>
      <point x="288.768" y="-92.16"/>
      <point x="204.8" y="-8.192"/>
      <point x="204.8" y="49.152" type="qcurve" smooth="yes"/>
      <point x="204.8" y="856.064" type="line" smooth="yes"/>
      <point x="204.8" y="897.024"/>
      <point x="256" y="952.32"/>
      <point x="294.912" y="952.32" type="qcurve" smooth="yes"/>
      <point x="313.344" y="952.32"/>
      <point x="471.04" y="892.928" type="qcurve"/>
      <point x="471.04" y="1435.65" type="line" smooth="yes"/>
      <point x="471.04" y="1527.81"/>
      <point x="563.2" y="1527.81" type="qcurve" smooth="yes"/>
      <point x="655.36" y="1527.81"/>
      <point x="655.36" y="1435.65" type="qcurve" smooth="yes"/>
      <point x="655.36" y="1116.16" type="line"/>
      <point x="880.64" y="1116.16" type="line"/>
      <point x="880.64" y="1435.65" type="line" smooth="yes"/>
      <point x="880.64" y="1527.81"/>
      <point x="972.8" y="1527.81" type="qcurve" smooth="yes"/>
      <point x="1064.96" y="1527.81"/>
      <point x="1064.96" y="1435.65" type="qcurve" smooth="yes"/>
      <point x="1064.96" y="1116.16" type="line"/>
      <point x="1218.56" y="1116.16" type="line"/>
      <point x="1249.28" y="1206.27"/>
      <point x="1402.88" y="1316.86"/>
      <point x="1497.09" y="1316.86" type="qcurve" smooth="yes"/>
      <point x="1589.25" y="1316.86"/>
      <point x="1589.25" y="1224.7" type="qcurve" smooth="yes"/>
      <point x="1589.25" y="1132.54"/>
      <point x="1497.09" y="1132.54" type="qcurve" smooth="yes"/>
      <point x="1449.98" y="1132.54"/>
      <point x="1386.5" y="1067.01"/>
      <point x="1386.5" y="1019.9" type="qcurve" smooth="yes"/>
      <point x="1386.5" y="974.848"/>
      <point x="1452.03" y="911.36"/>
      <point x="1497.09" y="911.36" type="qcurve" smooth="yes"/>
      <point x="1538.05" y="911.36"/>
      <point x="1615.87" y="978.944"/>
      <point x="1646.59" y="978.944" type="qcurve" smooth="yes"/>
      <point x="1683.46" y="978.944"/>
      <point x="1740.8" y="923.648"/>
      <point x="1740.8" y="884.736" type="qcurve"/>
    </contour>
  </outline>
</glyph>
<glyph name="uniE0DA" format="2">
  <advance width="1212"/>
  <unicode hex="E0DA"/>
  <outline>
    <contour>
      <point x="1214.46" y="706.56" type="line"/>
      <point x="1214.46" y="610.304"/>
      <point x="1097.73" y="448.512"/>
      <point x="1007.62" y="411.648" type="qcurve"/>
      <point x="987.136" y="405.504"/>
      <point x="968.704" y="405.504" type="qcurve" smooth="yes"/>
      <point x="931.84" y="405.504"/>
      <point x="880.64" y="462.848"/>
      <point x="880.64" y="501.76" type="qcurve" smooth="yes"/>
      <point x="880.64" y="546.816"/>
      <point x="952.32" y="591.872"/>
      <point x="987.136" y="614.4" type="qcurve"/>
      <point x="389.12" y="614.4" type="line"/>
      <point x="389.12" y="585.728" type="line"/>
      <point x="559.104" y="557.056"/>
      <point x="669.696" y="464.896" type="qcurve" smooth="yes"/>
      <point x="798.72" y="356.352"/>
      <point x="798.72" y="196.608" type="qcurve" smooth="yes"/>
      <point x="798.72" y="75.776"/>
      <point x="636.928" y="-92.16"/>
      <point x="518.144" y="-92.16" type="qcurve" smooth="yes"/>
      <point x="350.208" y="-92.16"/>
      <point x="268.288" y="63.488" type="qcurve" smooth="yes"/>
      <point x="204.8" y="182.272"/>
      <point x="204.8" y="368.64" type="qcurve" smooth="yes"/>
      <point x="204.8" y="1435.65" type="line" smooth="yes"/>
      <point x="204.8" y="1527.81"/>
      <point x="296.96" y="1527.81" type="qcurve" smooth="yes"/>
      <point x="389.12" y="1527.81"/>
      <point x="389.12" y="1435.65" type="qcurve" smooth="yes"/>
      <point x="389.12" y="1118.21" type="line"/>
      <point x="780.288" y="1142.78"/>
      <point x="962.56" y="1363.97" type="qcurve"/>
      <point x="987.136" y="1396.74"/>
      <point x="1034.24" y="1476.61" type="qcurve" smooth="yes"/>
      <point x="1062.91" y="1527.81"/>
      <point x="1114.11" y="1527.81" type="qcurve" smooth="yes"/>
      <point x="1150.98" y="1527.81"/>
      <point x="1210.37" y="1476.61"/>
      <point x="1210.37" y="1437.7" type="qcurve" smooth="yes"/>
      <point x="1210.37" y="1417.22"/>
      <point x="1198.08" y="1394.69" type="qcurve"/>
      <point x="995.328" y="966.656"/>
      <point x="389.12" y="933.888" type="qcurve"/>
      <point x="389.12" y="798.72" type="line"/>
      <point x="987.136" y="798.72" type="line"/>
      <point x="952.32" y="819.2"/>
      <point x="880.64" y="866.304"/>
      <point x="880.64" y="911.36" type="qcurve" smooth="yes"/>
      <point x="880.64" y="950.272"/>
      <point x="931.84" y="1007.62"/>
      <point x="968.704" y="1007.62" type="qcurve" smooth="yes"/>
      <point x="987.136" y="1007.62"/>
      <point x="1007.62" y="1001.47" type="qcurve"/>
      <point x="1097.73" y="964.608"/>
      <point x="1214.46" y="802.816"/>
      <point x="1214.46" y="706.56" type="qcurve"/>
    </contour>
    <contour>
      <point x="614.4" y="196.608" type="line"/>
      <point x="614.4" y="276.48"/>
      <point x="538.624" y="331.776" type="qcurve" smooth="yes"/>
      <point x="479.232" y="376.832"/>
      <point x="389.12" y="397.312" type="qcurve"/>
      <point x="389.12" y="368.64" type="line" smooth="yes"/>
      <point x="389.12" y="92.16"/>
      <point x="518.144" y="92.16" type="qcurve" smooth="yes"/>
      <point x="561.152" y="92.16"/>
      <point x="614.4" y="153.6"/>
      <point x="614.4" y="196.608" type="qcurve"/>
    </contour>
  </outline>
</glyph>
<glyph name="uniE0E0" format="2">
  <advance width="1769"/>
  <unicode hex="E0E0"/>
  <outline>
    <contour>
      <point x="1769.47" y="1437.7" type="line"/>
      <point x="1769.47" y="1417.22"/>
      <point x="1757.18" y="1394.69" type="qcurve"/>
      <point x="1554.43" y="966.656"/>
      <point x="948.224" y="933.888" type="qcurve"/>
      <point x="948.224" y="585.728" type="line"/>
      <point x="1118.21" y="557.056"/>
      <point x="1228.8" y="464.896" type="qcurve" smooth="yes"/>
      <point x="1357.82" y="356.352"/>
      <point x="1357.82" y="196.608" type="qcurve" smooth="yes"/>
      <point x="1357.82" y="75.776"/>
      <point x="1196.03" y="-92.16"/>
      <point x="1077.25" y="-92.16" type="qcurve" smooth="yes"/>
      <point x="882.688" y="-92.16"/>
      <point x="804.864" y="110.592" type="qcurve"/>
      <point x="729.088" y="110.592" type="line"/>
      <point x="698.368" y="20.48"/>
      <point x="544.768" y="-92.16"/>
      <point x="448.512" y="-92.16" type="qcurve" smooth="yes"/>
      <point x="313.344" y="-92.16"/>
      <point x="229.376" y="4.096" type="qcurve"/>
      <point x="204.8" y="34.816"/>
      <point x="204.8" y="65.536" type="qcurve" smooth="yes"/>
      <point x="204.8" y="104.448"/>
      <point x="262.144" y="159.744"/>
      <point x="299.008" y="159.744" type="qcurve" smooth="yes"/>
      <point x="331.776" y="159.744"/>
      <point x="407.552" y="92.16"/>
      <point x="448.512" y="92.16" type="qcurve" smooth="yes"/>
      <point x="493.568" y="92.16"/>
      <point x="559.104" y="157.696"/>
      <point x="559.104" y="202.752" type="qcurve" smooth="yes"/>
      <point x="559.104" y="247.808"/>
      <point x="493.568" y="313.344"/>
      <point x="448.512" y="313.344" type="qcurve" smooth="yes"/>
      <point x="356.352" y="313.344"/>
      <point x="356.352" y="405.504" type="qcurve" smooth="yes"/>
      <point x="356.352" y="497.664"/>
      <point x="448.512" y="497.664" type="qcurve" smooth="yes"/>
      <point x="544.768" y="497.664"/>
      <point x="698.368" y="385.024"/>
      <point x="729.088" y="294.912" type="qcurve"/>
      <point x="765.952" y="294.912" type="line"/>
      <point x="763.904" y="331.776"/>
      <point x="763.904" y="368.64" type="qcurve" smooth="yes"/>
      <point x="763.904" y="1435.65" type="line" smooth="yes"/>
      <point x="763.904" y="1527.81"/>
      <point x="856.064" y="1527.81" type="qcurve" smooth="yes"/>
      <point x="948.224" y="1527.81"/>
      <point x="948.224" y="1435.65" type="qcurve" smooth="yes"/>
      <point x="948.224" y="1118.21" type="line"/>
      <point x="1339.39" y="1142.78"/>
      <point x="1521.66" y="1363.97" type="qcurve"/>
      <point x="1550.34" y="1400.83"/>
      <point x="1593.34" y="1476.61" type="qcurve" smooth="yes"/>
      <point x="1622.02" y="1527.81"/>
      <point x="1673.22" y="1527.81" type="qcurve" smooth="yes"/>
      <point x="1710.08" y="1527.81"/>
      <point x="1769.47" y="1476.61"/>
      <point x="1769.47" y="1437.7" type="qcurve"/>
    </contour>
    <contour>
      <point x="1173.5" y="196.608" type="line"/>
      <point x="1173.5" y="276.48"/>
      <point x="1097.73" y="331.776" type="qcurve" smooth="yes"/>
      <point x="1038.34" y="376.832"/>
      <point x="948.224" y="397.312" type="qcurve"/>
      <point x="948.224" y="368.64" type="line" smooth="yes"/>
      <point x="948.224" y="92.16"/>
      <point x="1077.25" y="92.16" type="qcurve" smooth="yes"/>
      <point x="1120.26" y="92.16"/>
      <point x="1173.5" y="153.6"/>
      <point x="1173.5" y="196.608" type="qcurve"/>
    </contour>
  </outline>
</glyph>
<glyph name="uniE0E4" format="2">
  <advance width="1518"/>
  <unicode hex="E0E4"/>
  <outline>
    <contour>
      <point x="1517.57" y="1437.7" type="line"/>
      <point x="1517.57" y="1417.22"/>
      <point x="1507.33" y="1394.69" type="qcurve" smooth="yes"/>
      <point x="1302.53" y="966.656"/>
      <point x="696.32" y="933.888" type="qcurve"/>
      <point x="696.32" y="763.904" type="line" smooth="yes"/>
      <point x="696.32" y="722.944"/>
      <point x="647.168" y="665.6"/>
      <point x="608.256" y="665.6" type="qcurve" smooth="yes"/>
      <point x="591.872" y="665.6"/>
      <point x="563.2" y="675.84" type="qcurve" smooth="yes"/>
      <point x="389.12" y="733.184" type="line"/>
      <point x="389.12" y="585.728" type="line"/>
      <point x="559.104" y="557.056"/>
      <point x="671.744" y="464.896" type="qcurve"/>
      <point x="798.72" y="356.352"/>
      <point x="798.72" y="196.608" type="qcurve" smooth="yes"/>
      <point x="798.72" y="75.776"/>
      <point x="636.928" y="-92.16"/>
      <point x="518.144" y="-92.16" type="qcurve" smooth="yes"/>
      <point x="350.208" y="-92.16"/>
      <point x="268.288" y="63.488" type="qcurve" smooth="yes"/>
      <point x="204.8" y="182.272"/>
      <point x="204.8" y="368.64" type="qcurve" smooth="yes"/>
      <point x="204.8" y="858.112" type="line" smooth="yes"/>
      <point x="204.8" y="899.072"/>
      <point x="253.952" y="954.368"/>
      <point x="294.912" y="954.368" type="qcurve" smooth="yes"/>
      <point x="311.296" y="954.368"/>
      <point x="337.92" y="944.128" type="qcurve"/>
      <point x="512" y="886.784" type="line"/>
      <point x="512" y="1435.65" type="line" smooth="yes"/>
      <point x="512" y="1527.81"/>
      <point x="604.16" y="1527.81" type="qcurve" smooth="yes"/>
      <point x="696.32" y="1527.81"/>
      <point x="696.32" y="1435.65" type="qcurve" smooth="yes"/>
      <point x="696.32" y="1118.21" type="line"/>
      <point x="1087.49" y="1142.78"/>
      <point x="1269.76" y="1363.97" type="qcurve" smooth="yes"/>
      <point x="1302.53" y="1404.93"/>
      <point x="1341.44" y="1476.61" type="qcurve" smooth="yes"/>
      <point x="1370.11" y="1527.81"/>
      <point x="1421.31" y="1527.81" type="qcurve" smooth="yes"/>
      <point x="1458.18" y="1527.81"/>
      <point x="1517.57" y="1476.61"/>
      <point x="1517.57" y="1437.7" type="qcurve"/>
    </contour>
    <contour>
      <point x="614.4" y="196.608" type="line"/>
      <point x="614.4" y="276.48"/>
      <point x="538.624" y="331.776" type="qcurve" smooth="yes"/>
      <point x="479.232" y="376.832"/>
      <point x="389.12" y="397.312" type="qcurve"/>
      <point x="389.12" y="368.64" type="line" smooth="yes"/>
      <point x="389.12" y="92.16"/>
      <point x="518.144" y="92.16" type="qcurve" smooth="yes"/>
      <point x="561.152" y="92.16"/>
      <point x="614.4" y="153.6"/>
      <point x="614.4" y="196.608" type="qcurve"/>
    </contour>
  </outline>
</glyph>
<glyph name="uniE0EF" format="2">
  <advance width="1518"/>
  <unicode hex="E0EF"/>
  <outline>
    <contour>
      <point x="1517.57" y="1437.7" type="line"/>
      <point x="1517.57" y="1417.22"/>
      <point x="1507.33" y="1394.69" type="qcurve" smooth="yes"/>
      <point x="1400.83" y="1171.46"/>
      <point x="1169.41" y="1052.67" type="qcurve" smooth="yes"/>
      <point x="968.704" y="948.224"/>
      <point x="696.32" y="933.888" type="qcurve"/>
      <point x="696.32" y="763.904" type="line" smooth="yes"/>
      <point x="696.32" y="722.944"/>
      <point x="647.168" y="665.6"/>
      <point x="608.256" y="665.6" type="qcurve" smooth="yes"/>
      <point x="591.872" y="665.6"/>
      <point x="389.12" y="733.184" type="qcurve"/>
      <point x="389.12" y="585.728" type="line"/>
      <point x="573.44" y="555.008"/>
      <point x="688.128" y="448.512" type="qcurve"/>
      <point x="804.864" y="448.512" type="line"/>
      <point x="870.4" y="581.632"/>
      <point x="1028.1" y="581.632" type="qcurve" smooth="yes"/>
      <point x="1124.35" y="581.632"/>
      <point x="1269.76" y="452.608"/>
      <point x="1269.76" y="356.352" type="qcurve" smooth="yes"/>
      <point x="1269.76" y="108.544"/>
      <point x="1087.49" y="-63.488" type="qcurve"/>
      <point x="1052.67" y="-94.208"/>
      <point x="1019.9" y="-94.208" type="qcurve" smooth="yes"/>
      <point x="983.04" y="-94.208"/>
      <point x="925.696" y="-36.864"/>
      <point x="925.696" y="0" type="qcurve" smooth="yes"/>
      <point x="925.696" y="30.72"/>
      <point x="958.464" y="71.68" type="qcurve"/>
      <point x="985.088" y="102.4"/>
      <point x="1011.71" y="133.12" type="qcurve"/>
      <point x="864.256" y="141.312"/>
      <point x="804.864" y="264.192" type="qcurve"/>
      <point x="792.576" y="264.192" type="line"/>
      <point x="798.72" y="231.424"/>
      <point x="798.72" y="196.608" type="qcurve" smooth="yes"/>
      <point x="798.72" y="75.776"/>
      <point x="636.928" y="-92.16"/>
      <point x="518.144" y="-92.16" type="qcurve" smooth="yes"/>
      <point x="348.16" y="-92.16"/>
      <point x="268.288" y="63.488" type="qcurve" smooth="yes"/>
      <point x="204.8" y="182.272"/>
      <point x="204.8" y="368.64" type="qcurve" smooth="yes"/>
      <point x="204.8" y="858.112" type="line" smooth="yes"/>
      <point x="204.8" y="899.072"/>
      <point x="253.952" y="954.368"/>
      <point x="294.912" y="954.368" type="qcurve" smooth="yes"/>
      <point x="311.296" y="954.368"/>
      <point x="512" y="886.784" type="qcurve"/>
      <point x="512" y="1435.65" type="line" smooth="yes"/>
      <point x="512" y="1527.81"/>
      <point x="604.16" y="1527.81" type="qcurve" smooth="yes"/>
      <point x="696.32" y="1527.81"/>
      <point x="696.32" y="1435.65" type="qcurve" smooth="yes"/>
      <point x="696.32" y="1118.21" type="line"/>
      <point x="1087.49" y="1140.74"/>
      <point x="1269.76" y="1363.97" type="qcurve" smooth="yes"/>
      <point x="1292.29" y="1392.64"/>
      <point x="1341.44" y="1476.61" type="qcurve" smooth="yes"/>
      <point x="1372.16" y="1527.81"/>
      <point x="1421.31" y="1527.81" type="qcurve" smooth="yes"/>
      <point x="1458.18" y="1527.81"/>
      <point x="1517.57" y="1476.61"/>
      <point x="1517.57" y="1437.7" type="qcurve"/>
    </contour>
    <contour>
      <point x="1085.44" y="356.352" type="line"/>
      <point x="1085.44" y="397.312"/>
      <point x="1028.1" y="397.312" type="qcurve" smooth="yes"/>
      <point x="968.704" y="397.312"/>
      <point x="968.704" y="356.352" type="qcurve" smooth="yes"/>
      <point x="968.704" y="317.44"/>
      <point x="1028.1" y="317.44" type="qcurve" smooth="yes"/>
      <point x="1085.44" y="317.44"/>
      <point x="1085.44" y="356.352" type="qcurve"/>
    </contour>
    <contour>
      <point x="614.4" y="196.608" type="line"/>
      <point x="614.4" y="348.16"/>
      <point x="389.12" y="397.312" type="qcurve"/>
      <point x="389.12" y="368.64" type="line" smooth="yes"/>
      <point x="389.12" y="92.16"/>
      <point x="518.144" y="92.16" type="qcurve" smooth="yes"/>
      <point x="561.152" y="92.16"/>
      <point x="614.4" y="153.6"/>
      <point x="614.4" y="196.608" type="qcurve"/>
    </contour>
  </outline>
</glyph>
<glyph name="uniE0F2" format="2">
  <advance width="1563"/>
  <unicode hex="E0F2"/>
  <outline>
    <contour>
      <point x="1562.62" y="819.2" type="line"/>
      <point x="1562.62" y="722.944"/>
      <point x="1447.94" y="559.104"/>
      <point x="1357.82" y="524.288" type="qcurve"/>
      <point x="1335.3" y="518.144"/>
      <point x="1318.91" y="518.144" type="qcurve" smooth="yes"/>
      <point x="1282.05" y="518.144"/>
      <point x="1228.8" y="575.488"/>
      <point x="1228.8" y="614.4" type="qcurve" smooth="yes"/>
      <point x="1228.8" y="655.36"/>
      <point x="1302.53" y="704.512"/>
      <point x="1337.34" y="727.04" type="qcurve"/>
      <point x="1003.52" y="727.04" type="line"/>
      <point x="1003.52" y="512" type="line" smooth="yes"/>
      <point x="1003.52" y="419.84"/>
      <point x="911.36" y="419.84" type="qcurve" smooth="yes"/>
      <point x="819.2" y="419.84"/>
      <point x="819.2" y="512" type="qcurve" smooth="yes"/>
      <point x="819.2" y="727.04" type="line"/>
      <point x="389.12" y="727.04" type="line"/>
      <point x="389.12" y="497.664" type="line"/>
      <point x="540.672" y="485.376"/>
      <point x="653.312" y="419.84" type="qcurve" smooth="yes"/>
      <point x="796.672" y="337.92"/>
      <point x="796.672" y="204.8" type="qcurve" smooth="yes"/>
      <point x="796.672" y="51.2"/>
      <point x="614.4" y="-30.72" type="qcurve" smooth="yes"/>
      <point x="475.136" y="-92.16"/>
      <point x="296.96" y="-92.16" type="qcurve" smooth="yes"/>
      <point x="204.8" y="-92.16"/>
      <point x="204.8" y="0" type="qcurve" smooth="yes"/>
      <point x="204.8" y="92.16"/>
      <point x="296.96" y="92.16" type="qcurve" smooth="yes"/>
      <point x="382.976" y="92.16"/>
      <point x="479.232" y="114.688" type="qcurve" smooth="yes"/>
      <point x="612.352" y="147.456"/>
      <point x="612.352" y="204.8" type="qcurve" smooth="yes"/>
      <point x="612.352" y="262.144"/>
      <point x="479.232" y="294.912" type="qcurve" smooth="yes"/>
      <point x="382.976" y="317.44"/>
      <point x="296.96" y="317.44" type="qcurve" smooth="yes"/>
      <point x="260.096" y="317.44"/>
      <point x="204.8" y="372.736"/>
      <point x="204.8" y="409.6" type="qcurve" smooth="yes"/>
      <point x="204.8" y="1386.5" type="line" smooth="yes"/>
      <point x="204.8" y="1443.84"/>
      <point x="288.768" y="1527.81"/>
      <point x="346.112" y="1527.81" type="qcurve" smooth="yes"/>
      <point x="1116.16" y="1527.81" type="line" smooth="yes"/>
      <point x="1208.32" y="1527.81"/>
      <point x="1208.32" y="1435.65" type="qcurve" smooth="yes"/>
      <point x="1208.32" y="1343.49"/>
      <point x="1116.16" y="1343.49" type="qcurve" smooth="yes"/>
      <point x="389.12" y="1343.49" type="line"/>
      <point x="389.12" y="911.36" type="line"/>
      <point x="819.2" y="911.36" type="line"/>
      <point x="819.2" y="1126.4" type="line" smooth="yes"/>
      <point x="819.2" y="1218.56"/>
      <point x="911.36" y="1218.56" type="qcurve" smooth="yes"/>
      <point x="1003.52" y="1218.56"/>
      <point x="1003.52" y="1126.4" type="qcurve" smooth="yes"/>
      <point x="1003.52" y="911.36" type="line"/>
      <point x="1337.34" y="911.36" type="line"/>
      <point x="1302.53" y="933.888"/>
      <point x="1228.8" y="983.04"/>
      <point x="1228.8" y="1024" type="qcurve" smooth="yes"/>
      <point x="1228.8" y="1062.91"/>
      <point x="1282.05" y="1120.26"/>
      <point x="1318.91" y="1120.26" type="qcurve" smooth="yes"/>
      <point x="1335.3" y="1120.26"/>
      <point x="1357.82" y="1114.11" type="qcurve"/>
      <point x="1447.94" y="1079.3"/>
      <point x="1562.62" y="915.456"/>
      <point x="1562.62" y="819.2" type="qcurve"/>
    </contour>
  </outline>
</glyph>
<glyph name="uniE0F4" format="2">
  <advance width="1526"/>
  <unicode hex="E0F4"/>
  <outline>
    <contour>
      <point x="1525.76" y="65.536" type="line"/>
      <point x="1525.76" y="32.768"/>
      <point x="1501.18" y="4.096" type="qcurve" smooth="yes"/>
      <point x="1417.22" y="-94.208"/>
      <point x="1282.05" y="-94.208" type="qcurve" smooth="yes"/>
      <point x="1185.79" y="-94.208"/>
      <point x="1030.14" y="20.48"/>
      <point x="1001.47" y="112.64" type="qcurve"/>
      <point x="776.192" y="112.64" type="line"/>
      <point x="727.04" y="6.144"/>
      <point x="567.296" y="-49.152" type="qcurve" smooth="yes"/>
      <point x="442.368" y="-92.16"/>
      <point x="296.96" y="-92.16" type="qcurve" smooth="yes"/>
      <point x="204.8" y="-92.16"/>
      <point x="204.8" y="0" type="qcurve" smooth="yes"/>
      <point x="204.8" y="92.16"/>
      <point x="296.96" y="92.16" type="qcurve" smooth="yes"/>
      <point x="382.976" y="92.16"/>
      <point x="479.232" y="114.688" type="qcurve" smooth="yes"/>
      <point x="612.352" y="147.456"/>
      <point x="612.352" y="204.8" type="qcurve" smooth="yes"/>
      <point x="612.352" y="262.144"/>
      <point x="479.232" y="294.912" type="qcurve" smooth="yes"/>
      <point x="382.976" y="317.44"/>
      <point x="296.96" y="317.44" type="qcurve" smooth="yes"/>
      <point x="260.096" y="317.44"/>
      <point x="204.8" y="372.736"/>
      <point x="204.8" y="409.6" type="qcurve" smooth="yes"/>
      <point x="204.8" y="1386.5" type="line" smooth="yes"/>
      <point x="204.8" y="1443.84"/>
      <point x="288.768" y="1527.81"/>
      <point x="346.112" y="1527.81" type="qcurve" smooth="yes"/>
      <point x="1116.16" y="1527.81" type="line" smooth="yes"/>
      <point x="1208.32" y="1527.81"/>
      <point x="1208.32" y="1435.65" type="qcurve" smooth="yes"/>
      <point x="1208.32" y="1343.49"/>
      <point x="1116.16" y="1343.49" type="qcurve" smooth="yes"/>
      <point x="389.12" y="1343.49" type="line"/>
      <point x="389.12" y="911.36" type="line"/>
      <point x="819.2" y="911.36" type="line"/>
      <point x="819.2" y="1126.4" type="line" smooth="yes"/>
      <point x="819.2" y="1218.56"/>
      <point x="911.36" y="1218.56" type="qcurve" smooth="yes"/>
      <point x="1003.52" y="1218.56"/>
      <point x="1003.52" y="1126.4" type="qcurve" smooth="yes"/>
      <point x="1003.52" y="512" type="line" smooth="yes"/>
      <point x="1003.52" y="419.84"/>
      <point x="911.36" y="419.84" type="qcurve" smooth="yes"/>
      <point x="819.2" y="419.84"/>
      <point x="819.2" y="512" type="qcurve" smooth="yes"/>
      <point x="819.2" y="727.04" type="line"/>
      <point x="389.12" y="727.04" type="line"/>
      <point x="389.12" y="497.664" type="line"/>
      <point x="509.952" y="487.424"/>
      <point x="610.304" y="442.368" type="qcurve" smooth="yes"/>
      <point x="733.184" y="387.072"/>
      <point x="776.192" y="296.96" type="qcurve"/>
      <point x="1003.52" y="296.96" type="line"/>
      <point x="1034.24" y="385.024"/>
      <point x="1187.84" y="495.616"/>
      <point x="1282.05" y="495.616" type="qcurve" smooth="yes"/>
      <point x="1374.21" y="495.616"/>
      <point x="1374.21" y="403.456" type="qcurve" smooth="yes"/>
      <point x="1374.21" y="311.296"/>
      <point x="1282.05" y="311.296" type="qcurve" smooth="yes"/>
      <point x="1236.99" y="311.296"/>
      <point x="1171.46" y="245.76"/>
      <point x="1171.46" y="200.704" type="qcurve" smooth="yes"/>
      <point x="1171.46" y="155.648"/>
      <point x="1236.99" y="90.112"/>
      <point x="1282.05" y="90.112" type="qcurve" smooth="yes"/>
      <point x="1323.01" y="90.112"/>
      <point x="1398.78" y="159.744"/>
      <point x="1431.55" y="159.744" type="qcurve" smooth="yes"/>
      <point x="1468.42" y="159.744"/>
      <point x="1525.76" y="102.4"/>
      <point x="1525.76" y="65.536" type="qcurve"/>
    </contour>
  </outline>
</glyph>
<glyph name="uniE0F7" format="2">
  <advance width="1870"/>
  <unicode hex="E0F7"/>
  <outline>
    <contour>
      <point x="1869.82" y="819.2" type="line"/>
      <point x="1869.82" y="712.704"/>
      <point x="1794.05" y="657.408" type="qcurve" smooth="yes"/>
      <point x="1726.46" y="606.208"/>
      <point x="1615.87" y="606.208" type="qcurve" smooth="yes"/>
      <point x="1515.52" y="606.208"/>
      <point x="1411.07" y="686.08" type="qcurve"/>
      <point x="1374.21" y="634.88"/>
      <point x="1323.01" y="544.768" type="qcurve" smooth="yes"/>
      <point x="1294.34" y="491.52"/>
      <point x="1243.14" y="491.52" type="qcurve" smooth="yes"/>
      <point x="1206.27" y="491.52"/>
      <point x="1146.88" y="544.768"/>
      <point x="1146.88" y="581.632" type="qcurve" smooth="yes"/>
      <point x="1146.88" y="620.544"/>
      <point x="1214.46" y="727.04" type="qcurve"/>
      <point x="1003.52" y="727.04" type="line"/>
      <point x="1003.52" y="512" type="line" smooth="yes"/>
      <point x="1003.52" y="419.84"/>
      <point x="911.36" y="419.84" type="qcurve" smooth="yes"/>
      <point x="819.2" y="419.84"/>
      <point x="819.2" y="512" type="qcurve" smooth="yes"/>
      <point x="819.2" y="727.04" type="line"/>
      <point x="389.12" y="727.04" type="line"/>
      <point x="389.12" y="497.664" type="line"/>
      <point x="540.672" y="485.376"/>
      <point x="653.312" y="419.84" type="qcurve" smooth="yes"/>
      <point x="796.672" y="337.92"/>
      <point x="796.672" y="204.8" type="qcurve" smooth="yes"/>
      <point x="796.672" y="51.2"/>
      <point x="614.4" y="-30.72" type="qcurve" smooth="yes"/>
      <point x="475.136" y="-92.16"/>
      <point x="296.96" y="-92.16" type="qcurve" smooth="yes"/>
      <point x="204.8" y="-92.16"/>
      <point x="204.8" y="0" type="qcurve" smooth="yes"/>
      <point x="204.8" y="92.16"/>
      <point x="296.96" y="92.16" type="qcurve" smooth="yes"/>
      <point x="382.976" y="92.16"/>
      <point x="479.232" y="114.688" type="qcurve" smooth="yes"/>
      <point x="612.352" y="147.456"/>
      <point x="612.352" y="204.8" type="qcurve" smooth="yes"/>
      <point x="612.352" y="262.144"/>
      <point x="479.232" y="294.912" type="qcurve" smooth="yes"/>
      <point x="382.976" y="317.44"/>
      <point x="296.96" y="317.44" type="qcurve" smooth="yes"/>
      <point x="260.096" y="317.44"/>
      <point x="204.8" y="372.736"/>
      <point x="204.8" y="409.6" type="qcurve" smooth="yes"/>
      <point x="204.8" y="1386.5" type="line" smooth="yes"/>
      <point x="204.8" y="1443.84"/>
      <point x="288.768" y="1527.81"/>
      <point x="346.112" y="1527.81" type="qcurve" smooth="yes"/>
      <point x="1116.16" y="1527.81" type="line" smooth="yes"/>
      <point x="1208.32" y="1527.81"/>
      <point x="1208.32" y="1435.65" type="qcurve" smooth="yes"/>
      <point x="1208.32" y="1343.49"/>
      <point x="1116.16" y="1343.49" type="qcurve" smooth="yes"/>
      <point x="389.12" y="1343.49" type="line"/>
      <point x="389.12" y="911.36" type="line"/>
      <point x="819.2" y="911.36" type="line"/>
      <point x="819.2" y="1126.4" type="line" smooth="yes"/>
      <point x="819.2" y="1218.56"/>
      <point x="911.36" y="1218.56" type="qcurve" smooth="yes"/>
      <point x="1003.52" y="1218.56"/>
      <point x="1003.52" y="1126.4" type="qcurve" smooth="yes"/>
      <point x="1003.52" y="911.36" type="line"/>
      <point x="1214.46" y="911.36" type="line"/>
      <point x="1146.88" y="1017.86"/>
      <point x="1146.88" y="1056.77" type="qcurve" smooth="yes"/>
      <point x="1146.88" y="1093.63"/>
      <point x="1206.27" y="1146.88"/>
      <point x="1243.14" y="1146.88" type="qcurve" smooth="yes"/>
      <point x="1294.34" y="1146.88"/>
      <point x="1323.01" y="1093.63" type="qcurve" smooth="yes"/>
      <point x="1374.21" y="1003.52"/>
      <point x="1411.07" y="952.32" type="qcurve"/>
      <point x="1515.52" y="1032.19"/>
      <point x="1615.87" y="1032.19" type="qcurve" smooth="yes"/>
      <point x="1726.46" y="1032.19"/>
      <point x="1794.05" y="980.992" type="qcurve" smooth="yes"/>
      <point x="1869.82" y="925.696"/>
      <point x="1869.82" y="819.2" type="qcurve"/>
    </contour>
    <contour>
      <point x="1685.5" y="819.2" type="line"/>
      <point x="1685.5" y="829.44"/>
      <point x="1681.41" y="835.584" type="qcurve"/>
      <point x="1662.98" y="847.872"/>
      <point x="1615.87" y="847.872" type="qcurve" smooth="yes"/>
      <point x="1581.06" y="847.872"/>
      <point x="1538.05" y="819.2" type="qcurve"/>
      <point x="1581.06" y="790.528"/>
      <point x="1615.87" y="790.528" type="qcurve" smooth="yes"/>
      <point x="1660.93" y="790.528"/>
      <point x="1683.46" y="804.864" type="qcurve"/>
      <point x="1685.5" y="808.96"/>
      <point x="1685.5" y="819.2" type="qcurve"/>
    </contour>
  </outline>
</glyph>
<glyph name="uniE0F8" format="2">
  <advance width="1776"/>
  <unicode hex="E0F8"/>
  <outline>
    <contour>
      <point x="1775.62" y="1435.65" type="line"/>
      <point x="1775.62" y="1343.49"/>
      <point x="1683.46" y="1343.49" type="qcurve" smooth="yes"/>
      <point x="956.416" y="1343.49" type="line"/>
      <point x="956.416" y="911.36" type="line"/>
      <point x="1386.5" y="911.36" type="line"/>
      <point x="1386.5" y="1126.4" type="line" smooth="yes"/>
      <point x="1386.5" y="1218.56"/>
      <point x="1478.66" y="1218.56" type="qcurve" smooth="yes"/>
      <point x="1570.82" y="1218.56"/>
      <point x="1570.82" y="1126.4" type="qcurve" smooth="yes"/>
      <point x="1570.82" y="512" type="line" smooth="yes"/>
      <point x="1570.82" y="419.84"/>
      <point x="1478.66" y="419.84" type="qcurve" smooth="yes"/>
      <point x="1386.5" y="419.84"/>
      <point x="1386.5" y="512" type="qcurve" smooth="yes"/>
      <point x="1386.5" y="727.04" type="line"/>
      <point x="956.416" y="727.04" type="line"/>
      <point x="956.416" y="497.664" type="line"/>
      <point x="1107.97" y="485.376"/>
      <point x="1220.61" y="419.84" type="qcurve" smooth="yes"/>
      <point x="1361.92" y="337.92"/>
      <point x="1361.92" y="204.8" type="qcurve" smooth="yes"/>
      <point x="1361.92" y="51.2"/>
      <point x="1181.7" y="-30.72" type="qcurve" smooth="yes"/>
      <point x="1042.43" y="-92.16"/>
      <point x="864.256" y="-92.16" type="qcurve" smooth="yes"/>
      <point x="772.096" y="-92.16"/>
      <point x="772.096" y="0" type="qcurve" smooth="yes"/>
      <point x="772.096" y="92.16"/>
      <point x="864.256" y="92.16" type="qcurve" smooth="yes"/>
      <point x="950.272" y="92.16"/>
      <point x="1046.53" y="114.688" type="qcurve" smooth="yes"/>
      <point x="1177.6" y="147.456"/>
      <point x="1177.6" y="204.8" type="qcurve" smooth="yes"/>
      <point x="1177.6" y="294.912"/>
      <point x="901.12" y="315.392" type="qcurve"/>
      <point x="739.328" y="153.6" type="line"/>
      <point x="722.944" y="47.104"/>
      <point x="557.056" y="-92.16"/>
      <point x="448.512" y="-92.16" type="qcurve" smooth="yes"/>
      <point x="313.344" y="-92.16"/>
      <point x="229.376" y="4.096" type="qcurve"/>
      <point x="204.8" y="34.816"/>
      <point x="204.8" y="65.536" type="qcurve" smooth="yes"/>
      <point x="204.8" y="104.448"/>
      <point x="262.144" y="159.744"/>
      <point x="299.008" y="159.744" type="qcurve" smooth="yes"/>
      <point x="331.776" y="159.744"/>
      <point x="407.552" y="92.16"/>
      <point x="448.512" y="92.16" type="qcurve" smooth="yes"/>
      <point x="493.568" y="92.16"/>
      <point x="559.104" y="157.696"/>
      <point x="559.104" y="202.752" type="qcurve" smooth="yes"/>
      <point x="559.104" y="247.808"/>
      <point x="493.568" y="313.344"/>
      <point x="448.512" y="313.344" type="qcurve" smooth="yes"/>
      <point x="356.352" y="313.344"/>
      <point x="356.352" y="405.504" type="qcurve" smooth="yes"/>
      <point x="356.352" y="497.664"/>
      <point x="448.512" y="497.664" type="qcurve" smooth="yes"/>
      <point x="604.16" y="497.664"/>
      <point x="692.224" y="368.64" type="qcurve"/>
      <point x="772.096" y="448.512" type="line"/>
      <point x="772.096" y="1386.5" type="line" smooth="yes"/>
      <point x="772.096" y="1443.84"/>
      <point x="854.016" y="1527.81"/>
      <point x="913.408" y="1527.81" type="qcurve" smooth="yes"/>
      <point x="1683.46" y="1527.81" type="line" smooth="yes"/>
      <point x="1775.62" y="1527.81"/>
      <point x="1775.62" y="1435.65" type="qcurve"/>
    </contour>
  </outline>
</glyph>
<glyph name="uniE11C" format="2">
  <advance width="1720"/>
  <unicode hex="E11C"/>
  <outline>
    <contour>
      <point x="1720.32" y="0" type="line"/>
      <point x="1720.32" y="-92.16"/>
      <point x="1628.16" y="-92.16" type="qcurve" smooth="yes"/>
      <point x="808.96" y="-92.16" type="line" smooth="yes"/>
      <point x="716.8" y="-92.16"/>
      <point x="716.8" y="0" type="qcurve" smooth="yes"/>
      <point x="716.8" y="92.16"/>
      <point x="808.96" y="92.16" type="qcurve" smooth="yes"/>
      <point x="1126.4" y="92.16" type="line"/>
      <point x="1126.4" y="317.44" type="line"/>
      <point x="858.112" y="317.44" type="line" smooth="yes"/>
      <point x="788.48" y="317.44"/>
      <point x="745.472" y="374.784" type="qcurve"/>
      <point x="731.136" y="264.192"/>
      <point x="563.2" y="114.688"/>
      <point x="452.608" y="114.688" type="qcurve" smooth="yes"/>
      <point x="317.44" y="114.688"/>
      <point x="233.472" y="210.944" type="qcurve"/>
      <point x="208.896" y="241.664"/>
      <point x="208.896" y="272.384" type="qcurve" smooth="yes"/>
      <point x="208.896" y="311.296"/>
      <point x="266.24" y="366.592"/>
      <point x="303.104" y="366.592" type="qcurve" smooth="yes"/>
      <point x="335.872" y="366.592"/>
      <point x="411.648" y="299.008"/>
      <point x="452.608" y="299.008" type="qcurve" smooth="yes"/>
      <point x="497.664" y="299.008"/>
      <point x="563.2" y="364.544"/>
      <point x="563.2" y="409.6" type="qcurve" smooth="yes"/>
      <point x="563.2" y="454.656"/>
      <point x="497.664" y="520.192"/>
      <point x="452.608" y="520.192" type="qcurve" smooth="yes"/>
      <point x="360.448" y="520.192"/>
      <point x="360.448" y="612.352" type="qcurve" smooth="yes"/>
      <point x="360.448" y="704.512"/>
      <point x="452.608" y="704.512" type="qcurve" smooth="yes"/>
      <point x="634.88" y="704.512"/>
      <point x="716.8" y="540.672" type="qcurve"/>
      <point x="716.8" y="1019.9" type="line" smooth="yes"/>
      <point x="716.8" y="1060.86"/>
      <point x="765.952" y="1116.16"/>
      <point x="806.912" y="1116.16" type="qcurve" smooth="yes"/>
      <point x="821.248" y="1116.16"/>
      <point x="849.92" y="1107.97" type="qcurve"/>
      <point x="1024" y="1048.58" type="line"/>
      <point x="1024" y="1386.5" type="line" smooth="yes"/>
      <point x="1024" y="1443.84"/>
      <point x="1107.97" y="1527.81"/>
      <point x="1165.31" y="1527.81" type="qcurve" smooth="yes"/>
      <point x="1628.16" y="1527.81" type="line" smooth="yes"/>
      <point x="1720.32" y="1527.81"/>
      <point x="1720.32" y="1435.65" type="qcurve" smooth="yes"/>
      <point x="1720.32" y="1343.49"/>
      <point x="1628.16" y="1343.49" type="qcurve" smooth="yes"/>
      <point x="1208.32" y="1343.49" type="line"/>
      <point x="1208.32" y="925.696" type="line" smooth="yes"/>
      <point x="1208.32" y="884.736"/>
      <point x="1159.17" y="829.44"/>
      <point x="1118.21" y="829.44" type="qcurve" smooth="yes"/>
      <point x="1103.87" y="829.44"/>
      <point x="1075.2" y="837.632" type="qcurve"/>
      <point x="901.12" y="897.024" type="line"/>
      <point x="901.12" y="501.76" type="line"/>
      <point x="1628.16" y="501.76" type="line" smooth="yes"/>
      <point x="1720.32" y="501.76"/>
      <point x="1720.32" y="409.6" type="qcurve" smooth="yes"/>
      <point x="1720.32" y="317.44"/>
      <point x="1628.16" y="317.44" type="qcurve" smooth="yes"/>
      <point x="1310.72" y="317.44" type="line"/>
      <point x="1310.72" y="92.16" type="line"/>
      <point x="1628.16" y="92.16" type="line" smooth="yes"/>
      <point x="1720.32" y="92.16"/>
      <point x="1720.32" y="0" type="qcurve"/>
    </contour>
  </outline>
</glyph>
<glyph name="uniE120" format="2">
  <advance width="1331"/>
  <unicode hex="E120"/>
  <outline>
    <contour>
      <point x="1331.2" y="151.552" type="line"/>
      <point x="1331.2" y="49.152"/>
      <point x="1179.65" y="-92.16"/>
      <point x="1075.2" y="-92.16" type="qcurve" smooth="yes"/>
      <point x="964.608" y="-92.16"/>
      <point x="901.12" y="-10.24" type="qcurve" smooth="yes"/>
      <point x="843.776" y="63.488"/>
      <point x="843.776" y="178.176" type="qcurve" smooth="yes"/>
      <point x="843.776" y="931.84" type="line"/>
      <point x="548.864" y="931.84" type="line"/>
      <point x="548.864" y="8.192" type="line" smooth="yes"/>
      <point x="548.864" y="-83.968"/>
      <point x="456.704" y="-83.968" type="qcurve" smooth="yes"/>
      <point x="364.544" y="-83.968"/>
      <point x="364.544" y="8.192" type="qcurve" smooth="yes"/>
      <point x="364.544" y="931.84" type="line"/>
      <point x="284.672" y="931.84"/>
      <point x="258.048" y="940.032" type="qcurve"/>
      <point x="204.8" y="958.464"/>
      <point x="204.8" y="1024" type="qcurve" smooth="yes"/>
      <point x="204.8" y="1091.58"/>
      <point x="264.192" y="1110.02" type="qcurve"/>
      <point x="286.72" y="1116.16"/>
      <point x="376.832" y="1116.16" type="qcurve"/>
      <point x="417.792" y="1267.71"/>
      <point x="534.528" y="1390.59" type="qcurve" smooth="yes"/>
      <point x="665.6" y="1527.81"/>
      <point x="808.96" y="1527.81" type="qcurve" smooth="yes"/>
      <point x="1028.1" y="1527.81"/>
      <point x="1028.1" y="1239.04" type="qcurve" smooth="yes"/>
      <point x="1028.1" y="421.888" type="line"/>
      <point x="1157.12" y="403.456"/>
      <point x="1234.94" y="344.064" type="qcurve" smooth="yes"/>
      <point x="1331.2" y="272.384"/>
      <point x="1331.2" y="151.552" type="qcurve"/>
    </contour>
    <contour>
      <point x="843.776" y="1239.04" type="line" smooth="yes"/>
      <point x="843.776" y="1312.77"/>
      <point x="831.488" y="1337.34" type="qcurve"/>
      <point x="813.056" y="1343.49"/>
      <point x="808.96" y="1343.49" type="qcurve" smooth="yes"/>
      <point x="743.424" y="1343.49"/>
      <point x="665.6" y="1259.52" type="qcurve" smooth="yes"/>
      <point x="602.112" y="1189.89"/>
      <point x="569.344" y="1116.16" type="qcurve"/>
      <point x="843.776" y="1116.16" type="line"/>
    </contour>
    <contour>
      <point x="1146.88" y="151.552" type="line"/>
      <point x="1146.88" y="212.992"/>
      <point x="1028.1" y="235.52" type="qcurve"/>
      <point x="1028.1" y="178.176" type="line" smooth="yes"/>
      <point x="1028.1" y="92.16"/>
      <point x="1075.2" y="92.16" type="qcurve" smooth="yes"/>
      <point x="1146.88" y="92.16"/>
      <point x="1146.88" y="151.552" type="qcurve"/>
    </contour>
  </outline>
</glyph>
<glyph name="uniE12D" format="2">
  <advance width="1868"/>
  <unicode hex="E12D"/>
  <outline>
    <contour>
      <point x="1867.78" y="157.696" type="line"/>
      <point x="1867.78" y="57.344"/>
      <point x="1716.22" y="-92.16"/>
      <point x="1615.87" y="-92.16" type="qcurve" smooth="yes"/>
      <point x="1458.18" y="-92.16"/>
      <point x="1384.45" y="100.352" type="qcurve"/>
      <point x="1177.6" y="655.36" type="line"/>
      <point x="1167.36" y="686.08"/>
      <point x="1167.36" y="702.464" type="qcurve" smooth="yes"/>
      <point x="1167.36" y="792.576"/>
      <point x="1273.86" y="792.576" type="qcurve" smooth="yes"/>
      <point x="1462.27" y="792.576" type="line"/>
      <point x="1462.27" y="931.84" type="line"/>
      <point x="964.608" y="931.84" type="line"/>
      <point x="964.608" y="8.192" type="line" smooth="yes"/>
      <point x="964.608" y="-83.968"/>
      <point x="872.448" y="-83.968" type="qcurve" smooth="yes"/>
      <point x="800.768" y="-83.968"/>
      <point x="784.384" y="-14.336" type="qcurve" smooth="yes"/>
      <point x="780.288" y="2.048"/>
      <point x="780.288" y="112.64" type="qcurve" smooth="yes"/>
      <point x="780.288" y="624.64" type="line"/>
      <point x="577.536" y="624.64" type="line"/>
      <point x="548.864" y="532.48"/>
      <point x="393.216" y="419.84"/>
      <point x="296.96" y="419.84" type="qcurve" smooth="yes"/>
      <point x="204.8" y="419.84"/>
      <point x="204.8" y="512" type="qcurve" smooth="yes"/>
      <point x="204.8" y="604.16"/>
      <point x="296.96" y="604.16" type="qcurve" smooth="yes"/>
      <point x="342.016" y="604.16"/>
      <point x="407.552" y="669.696"/>
      <point x="407.552" y="714.752" type="qcurve" smooth="yes"/>
      <point x="407.552" y="759.808"/>
      <point x="342.016" y="825.344"/>
      <point x="296.96" y="825.344" type="qcurve" smooth="yes"/>
      <point x="204.8" y="825.344"/>
      <point x="204.8" y="917.504" type="qcurve" smooth="yes"/>
      <point x="204.8" y="1009.66"/>
      <point x="296.96" y="1009.66" type="qcurve" smooth="yes"/>
      <point x="391.168" y="1009.66"/>
      <point x="546.816" y="899.072"/>
      <point x="575.488" y="808.96" type="qcurve"/>
      <point x="780.288" y="808.96" type="line"/>
      <point x="780.288" y="931.84" type="line"/>
      <point x="700.416" y="931.84"/>
      <point x="673.792" y="940.032" type="qcurve"/>
      <point x="620.544" y="958.464"/>
      <point x="620.544" y="1024" type="qcurve" smooth="yes"/>
      <point x="620.544" y="1093.63"/>
      <point x="684.032" y="1110.02" type="qcurve"/>
      <point x="704.512" y="1116.16"/>
      <point x="800.768" y="1116.16" type="qcurve"/>
      <point x="862.208" y="1249.28"/>
      <point x="1284.1" y="1527.81"/>
      <point x="1427.46" y="1527.81" type="qcurve" smooth="yes"/>
      <point x="1646.59" y="1527.81"/>
      <point x="1646.59" y="1239.04" type="qcurve" smooth="yes"/>
      <point x="1646.59" y="700.416" type="line" smooth="yes"/>
      <point x="1646.59" y="608.256"/>
      <point x="1554.43" y="608.256" type="qcurve" smooth="yes"/>
      <point x="1392.64" y="608.256" type="line"/>
      <point x="1472.51" y="393.216" type="line"/>
      <point x="1529.86" y="403.456"/>
      <point x="1583.1" y="403.456" type="qcurve" smooth="yes"/>
      <point x="1701.89" y="403.456"/>
      <point x="1781.76" y="342.016" type="qcurve" smooth="yes"/>
      <point x="1867.78" y="274.432"/>
      <point x="1867.78" y="157.696" type="qcurve"/>
    </contour>
    <contour>
      <point x="1462.27" y="1239.04" type="line" smooth="yes"/>
      <point x="1462.27" y="1312.77"/>
      <point x="1449.98" y="1337.34" type="qcurve"/>
      <point x="1433.6" y="1343.49"/>
      <point x="1427.46" y="1343.49" type="qcurve" smooth="yes"/>
      <point x="1347.58" y="1343.49"/>
      <point x="1212.42" y="1261.57" type="qcurve" smooth="yes"/>
      <point x="1103.87" y="1193.98"/>
      <point x="1026.05" y="1116.16" type="qcurve"/>
      <point x="1462.27" y="1116.16" type="line"/>
    </contour>
    <contour>
      <point x="1683.46" y="157.696" type="line"/>
      <point x="1683.46" y="219.136"/>
      <point x="1583.1" y="219.136" type="qcurve" smooth="yes"/>
      <point x="1560.58" y="219.136"/>
      <point x="1538.05" y="217.088" type="qcurve"/>
      <point x="1585.15" y="92.16"/>
      <point x="1615.87" y="92.16" type="qcurve" smooth="yes"/>
      <point x="1640.45" y="92.16"/>
      <point x="1683.46" y="133.12"/>
      <point x="1683.46" y="157.696" type="qcurve"/>
    </contour>
  </outline>
</glyph>
<glyph name="uniE130" format="2">
  <advance width="1989"/>
  <unicode hex="E130"/>
  <outline>
    <contour>
      <point x="1988.61" y="65.536" type="line"/>
      <point x="1988.61" y="32.768"/>
      <point x="1964.03" y="4.096" type="qcurve" smooth="yes"/>
      <point x="1880.06" y="-94.208"/>
      <point x="1744.9" y="-94.208" type="qcurve" smooth="yes"/>
      <point x="1650.69" y="-94.208"/>
      <point x="1497.09" y="16.384"/>
      <point x="1466.37" y="102.4" type="qcurve"/>
      <point x="1439.74" y="88.064" type="line"/>
      <point x="1415.17" y="10.24"/>
      <point x="1280" y="-92.16"/>
      <point x="1200.13" y="-92.16" type="qcurve" smooth="yes"/>
      <point x="1040.38" y="-92.16"/>
      <point x="968.704" y="100.352" type="qcurve" smooth="yes"/>
      <point x="761.856" y="655.36" type="line" smooth="yes"/>
      <point x="749.568" y="686.08"/>
      <point x="749.568" y="702.464" type="qcurve" smooth="yes"/>
      <point x="749.568" y="792.576"/>
      <point x="856.064" y="792.576" type="qcurve" smooth="yes"/>
      <point x="1046.53" y="792.576" type="line"/>
      <point x="1046.53" y="931.84" type="line"/>
      <point x="548.864" y="931.84" type="line"/>
      <point x="548.864" y="8.192" type="line" smooth="yes"/>
      <point x="548.864" y="-83.968"/>
      <point x="456.704" y="-83.968" type="qcurve" smooth="yes"/>
      <point x="364.544" y="-83.968"/>
      <point x="364.544" y="8.192" type="qcurve" smooth="yes"/>
      <point x="364.544" y="931.84" type="line"/>
      <point x="282.624" y="931.84"/>
      <point x="258.048" y="940.032" type="qcurve" smooth="yes"/>
      <point x="204.8" y="958.464"/>
      <point x="204.8" y="1024" type="qcurve" smooth="yes"/>
      <point x="204.8" y="1093.63"/>
      <point x="266.24" y="1110.02" type="qcurve" smooth="yes"/>
      <point x="288.768" y="1116.16"/>
      <point x="385.024" y="1116.16" type="qcurve"/>
      <point x="446.464" y="1249.28"/>
      <point x="866.304" y="1527.81"/>
      <point x="1011.71" y="1527.81" type="qcurve" smooth="yes"/>
      <point x="1230.85" y="1527.81"/>
      <point x="1230.85" y="1239.04" type="qcurve" smooth="yes"/>
      <point x="1230.85" y="700.416" type="line" smooth="yes"/>
      <point x="1230.85" y="608.256"/>
      <point x="1138.69" y="608.256" type="qcurve" smooth="yes"/>
      <point x="974.848" y="608.256" type="line"/>
      <point x="1056.77" y="393.216" type="line"/>
      <point x="1112.06" y="403.456"/>
      <point x="1165.31" y="403.456" type="qcurve" smooth="yes"/>
      <point x="1351.68" y="403.456"/>
      <point x="1423.36" y="274.432" type="qcurve"/>
      <point x="1464.32" y="290.816" type="line"/>
      <point x="1492.99" y="380.928"/>
      <point x="1648.64" y="495.616"/>
      <point x="1744.9" y="495.616" type="qcurve" smooth="yes"/>
      <point x="1837.06" y="495.616"/>
      <point x="1837.06" y="403.456" type="qcurve" smooth="yes"/>
      <point x="1837.06" y="311.296"/>
      <point x="1744.9" y="311.296" type="qcurve" smooth="yes"/>
      <point x="1699.84" y="311.296"/>
      <point x="1634.3" y="245.76"/>
      <point x="1634.3" y="200.704" type="qcurve" smooth="yes"/>
      <point x="1634.3" y="155.648"/>
      <point x="1699.84" y="90.112"/>
      <point x="1744.9" y="90.112" type="qcurve" smooth="yes"/>
      <point x="1785.86" y="90.112"/>
      <point x="1861.63" y="159.744"/>
      <point x="1894.4" y="159.744" type="qcurve" smooth="yes"/>
      <point x="1931.26" y="159.744"/>
      <point x="1988.61" y="102.4"/>
      <point x="1988.61" y="65.536" type="qcurve"/>
    </contour>
    <contour>
      <point x="1046.53" y="1239.04" type="line" smooth="yes"/>
      <point x="1046.53" y="1312.77"/>
      <point x="1034.24" y="1337.34" type="qcurve"/>
      <point x="1015.81" y="1343.49"/>
      <point x="1011.71" y="1343.49" type="qcurve" smooth="yes"/>
      <point x="929.792" y="1343.49"/>
      <point x="796.672" y="1261.57" type="qcurve" smooth="yes"/>
      <point x="688.128" y="1193.98"/>
      <point x="608.256" y="1116.16" type="qcurve"/>
      <point x="1046.53" y="1116.16" type="line"/>
    </contour>
    <contour>
      <point x="1265.66" y="157.696" type="line"/>
      <point x="1265.66" y="219.136"/>
      <point x="1165.31" y="219.136" type="qcurve" smooth="yes"/>
      <point x="1144.83" y="219.136"/>
      <point x="1122.3" y="217.088" type="qcurve"/>
      <point x="1167.36" y="92.16"/>
      <point x="1200.13" y="92.16" type="qcurve" smooth="yes"/>
      <point x="1222.66" y="92.16"/>
      <point x="1265.66" y="133.12"/>
      <point x="1265.66" y="157.696" type="qcurve"/>
    </contour>
  </outline>
</glyph>
<glyph name="uniE137" format="2">
  <advance width="1915"/>
  <unicode hex="E137"/>
  <outline>
    <contour>
      <point x="1914.88" y="356.352" type="line"/>
      <point x="1914.88" y="122.88"/>
      <point x="1732.61" y="-63.488" type="qcurve" smooth="yes"/>
      <point x="1701.89" y="-94.208"/>
      <point x="1665.02" y="-94.208" type="qcurve" smooth="yes"/>
      <point x="1628.16" y="-94.208"/>
      <point x="1570.82" y="-36.864"/>
      <point x="1570.82" y="0" type="qcurve" smooth="yes"/>
      <point x="1570.82" y="32.768"/>
      <point x="1597.44" y="63.488" type="qcurve" smooth="yes"/>
      <point x="1636.35" y="108.544"/>
      <point x="1654.78" y="133.12" type="qcurve"/>
      <point x="1564.67" y="139.264"/>
      <point x="1501.18" y="198.656" type="qcurve"/>
      <point x="1449.98" y="169.984" type="line"/>
      <point x="1449.98" y="163.84"/>
      <point x="1449.98" y="157.696" type="qcurve" smooth="yes"/>
      <point x="1449.98" y="57.344"/>
      <point x="1300.48" y="-92.16"/>
      <point x="1200.13" y="-92.16" type="qcurve" smooth="yes"/>
      <point x="1040.38" y="-92.16"/>
      <point x="968.704" y="100.352" type="qcurve" smooth="yes"/>
      <point x="761.856" y="655.36" type="line" smooth="yes"/>
      <point x="749.568" y="686.08"/>
      <point x="749.568" y="702.464" type="qcurve" smooth="yes"/>
      <point x="749.568" y="792.576"/>
      <point x="856.064" y="792.576" type="qcurve" smooth="yes"/>
      <point x="1046.53" y="792.576" type="line"/>
      <point x="1046.53" y="931.84" type="line"/>
      <point x="548.864" y="931.84" type="line"/>
      <point x="548.864" y="8.192" type="line" smooth="yes"/>
      <point x="548.864" y="-83.968"/>
      <point x="456.704" y="-83.968" type="qcurve" smooth="yes"/>
      <point x="364.544" y="-83.968"/>
      <point x="364.544" y="8.192" type="qcurve" smooth="yes"/>
      <point x="364.544" y="931.84" type="line"/>
      <point x="282.624" y="931.84"/>
      <point x="258.048" y="940.032" type="qcurve" smooth="yes"/>
      <point x="204.8" y="958.464"/>
      <point x="204.8" y="1024" type="qcurve" smooth="yes"/>
      <point x="204.8" y="1093.63"/>
      <point x="266.24" y="1110.02" type="qcurve" smooth="yes"/>
      <point x="288.768" y="1116.16"/>
      <point x="385.024" y="1116.16" type="qcurve"/>
      <point x="446.464" y="1249.28"/>
      <point x="866.304" y="1527.81"/>
      <point x="1011.71" y="1527.81" type="qcurve" smooth="yes"/>
      <point x="1230.85" y="1527.81"/>
      <point x="1230.85" y="1239.04" type="qcurve" smooth="yes"/>
      <point x="1230.85" y="700.416" type="line" smooth="yes"/>
      <point x="1230.85" y="608.256"/>
      <point x="1138.69" y="608.256" type="qcurve" smooth="yes"/>
      <point x="974.848" y="608.256" type="line"/>
      <point x="1056.77" y="393.216" type="line"/>
      <point x="1112.06" y="403.456"/>
      <point x="1165.31" y="403.456" type="qcurve" smooth="yes"/>
      <point x="1290.24" y="403.456"/>
      <point x="1370.11" y="335.872" type="qcurve"/>
      <point x="1429.5" y="368.64" type="line"/>
      <point x="1435.65" y="460.8"/>
      <point x="1579.01" y="581.632"/>
      <point x="1673.22" y="581.632" type="qcurve" smooth="yes"/>
      <point x="1769.47" y="581.632"/>
      <point x="1914.88" y="452.608"/>
      <point x="1914.88" y="356.352" type="qcurve"/>
    </contour>
    <contour>
      <point x="1046.53" y="1239.04" type="line" smooth="yes"/>
      <point x="1046.53" y="1312.77"/>
      <point x="1034.24" y="1337.34" type="qcurve"/>
      <point x="1015.81" y="1343.49"/>
      <point x="1011.71" y="1343.49" type="qcurve" smooth="yes"/>
      <point x="929.792" y="1343.49"/>
      <point x="796.672" y="1261.57" type="qcurve" smooth="yes"/>
      <point x="688.128" y="1193.98"/>
      <point x="608.256" y="1116.16" type="qcurve"/>
      <point x="1046.53" y="1116.16" type="line"/>
    </contour>
    <contour>
      <point x="1730.56" y="356.352" type="line"/>
      <point x="1730.56" y="397.312"/>
      <point x="1673.22" y="397.312" type="qcurve" smooth="yes"/>
      <point x="1613.82" y="397.312"/>
      <point x="1613.82" y="356.352" type="qcurve" smooth="yes"/>
      <point x="1613.82" y="317.44"/>
      <point x="1673.22" y="317.44" type="qcurve" smooth="yes"/>
      <point x="1730.56" y="317.44"/>
      <point x="1730.56" y="356.352" type="qcurve"/>
    </contour>
    <contour>
      <point x="1265.66" y="157.696" type="line"/>
      <point x="1265.66" y="219.136"/>
      <point x="1165.31" y="219.136" type="qcurve" smooth="yes"/>
      <point x="1144.83" y="219.136"/>
      <point x="1122.3" y="217.088" type="qcurve"/>
      <point x="1167.36" y="92.16"/>
      <point x="1200.13" y="92.16" type="qcurve" smooth="yes"/>
      <point x="1222.66" y="92.16"/>
      <point x="1265.66" y="133.12"/>
      <point x="1265.66" y="157.696" type="qcurve"/>
    </contour>
  </outline>
</glyph>
<glyph name="uniE143" format="2">
  <advance width="1434"/>
  <unicode hex="E143"/>
  <outline>
    <contour>
      <point x="1435.65" y="356.352" type="line"/>
      <point x="1435.65" y="124.928"/>
      <point x="1253.38" y="-63.488" type="qcurve" smooth="yes"/>
      <point x="1222.66" y="-94.208"/>
      <point x="1185.79" y="-94.208" type="qcurve" smooth="yes"/>
      <point x="1148.93" y="-94.208"/>
      <point x="1091.58" y="-36.864"/>
      <point x="1091.58" y="0" type="qcurve" smooth="yes"/>
      <point x="1091.58" y="30.72"/>
      <point x="1124.35" y="69.632" type="qcurve" smooth="yes"/>
      <point x="1150.98" y="102.4"/>
      <point x="1177.6" y="133.12" type="qcurve"/>
      <point x="1019.9" y="143.36"/>
      <point x="966.656" y="276.48" type="qcurve"/>
      <point x="954.368" y="278.528"/>
      <point x="940.032" y="278.528" type="qcurve" smooth="yes"/>
      <point x="772.096" y="278.528"/>
      <point x="466.944" y="106.496"/>
      <point x="382.976" y="-34.816" type="qcurve"/>
      <point x="374.784" y="-51.2"/>
      <point x="348.16" y="-77.824" type="qcurve"/>
      <point x="325.632" y="-92.16"/>
      <point x="299.008" y="-92.16" type="qcurve" smooth="yes"/>
      <point x="260.096" y="-92.16"/>
      <point x="204.8" y="-40.96"/>
      <point x="204.8" y="-2.048" type="qcurve" smooth="yes"/>
      <point x="204.8" y="1386.5" type="line" smooth="yes"/>
      <point x="204.8" y="1443.84"/>
      <point x="288.768" y="1527.81"/>
      <point x="346.112" y="1527.81" type="qcurve" smooth="yes"/>
      <point x="1116.16" y="1527.81" type="line" smooth="yes"/>
      <point x="1208.32" y="1527.81"/>
      <point x="1208.32" y="1435.65" type="qcurve" smooth="yes"/>
      <point x="1208.32" y="1343.49"/>
      <point x="1116.16" y="1343.49" type="qcurve" smooth="yes"/>
      <point x="901.12" y="1343.49" type="line"/>
      <point x="901.12" y="1040.38" type="line"/>
      <point x="907.264" y="1042.43"/>
      <point x="954.368" y="1085.44" type="qcurve"/>
      <point x="983.04" y="1114.11"/>
      <point x="1015.81" y="1114.11" type="qcurve" smooth="yes"/>
      <point x="1052.67" y="1114.11"/>
      <point x="1110.02" y="1056.77"/>
      <point x="1110.02" y="1019.9" type="qcurve" smooth="yes"/>
      <point x="1110.02" y="989.184"/>
      <point x="1087.49" y="960.512" type="qcurve" smooth="yes"/>
      <point x="983.04" y="829.44"/>
      <point x="808.96" y="829.44" type="qcurve" smooth="yes"/>
      <point x="634.88" y="829.44"/>
      <point x="530.432" y="960.512" type="qcurve" smooth="yes"/>
      <point x="507.904" y="989.184"/>
      <point x="507.904" y="1019.9" type="qcurve" smooth="yes"/>
      <point x="507.904" y="1056.77"/>
      <point x="565.248" y="1114.11"/>
      <point x="602.112" y="1114.11" type="qcurve" smooth="yes"/>
      <point x="634.88" y="1114.11"/>
      <point x="663.552" y="1085.44" type="qcurve"/>
      <point x="710.656" y="1042.43"/>
      <point x="716.8" y="1040.38" type="qcurve"/>
      <point x="716.8" y="1343.49" type="line"/>
      <point x="389.12" y="1343.49" type="line"/>
      <point x="389.12" y="253.952" type="line"/>
      <point x="495.616" y="348.16"/>
      <point x="782.336" y="460.8"/>
      <point x="923.648" y="460.8" type="qcurve" smooth="yes"/>
      <point x="950.272" y="460.8"/>
      <point x="976.896" y="458.752" type="qcurve"/>
      <point x="1044.48" y="581.632"/>
      <point x="1193.98" y="581.632" type="qcurve" smooth="yes"/>
      <point x="1290.24" y="581.632"/>
      <point x="1435.65" y="452.608"/>
      <point x="1435.65" y="356.352" type="qcurve"/>
    </contour>
    <contour>
      <point x="1251.33" y="356.352" type="line"/>
      <point x="1251.33" y="397.312"/>
      <point x="1193.98" y="397.312" type="qcurve" smooth="yes"/>
      <point x="1134.59" y="397.312"/>
      <point x="1134.59" y="356.352" type="qcurve" smooth="yes"/>
      <point x="1134.59" y="317.44"/>
      <point x="1193.98" y="317.44" type="qcurve" smooth="yes"/>
      <point x="1251.33" y="317.44"/>
      <point x="1251.33" y="356.352" type="qcurve"/>
    </contour>
  </outline>
</glyph>
<glyph name="uniE145" format="2">
  <advance width="1960"/>
  <unicode hex="E145"/>
  <outline>
    <contour>
      <point x="1959.94" y="1435.65" type="line"/>
      <point x="1959.94" y="1343.49"/>
      <point x="1867.78" y="1343.49" type="qcurve" smooth="yes"/>
      <point x="1652.74" y="1343.49" type="line"/>
      <point x="1652.74" y="1040.38" type="line"/>
      <point x="1656.83" y="1042.43"/>
      <point x="1705.98" y="1085.44" type="qcurve"/>
      <point x="1736.7" y="1114.11"/>
      <point x="1767.42" y="1114.11" type="qcurve" smooth="yes"/>
      <point x="1804.29" y="1114.11"/>
      <point x="1863.68" y="1056.77"/>
      <point x="1863.68" y="1019.9" type="qcurve" smooth="yes"/>
      <point x="1863.68" y="989.184"/>
      <point x="1841.15" y="960.512" type="qcurve" smooth="yes"/>
      <point x="1738.75" y="829.44"/>
      <point x="1560.58" y="829.44" type="qcurve" smooth="yes"/>
      <point x="1384.45" y="829.44"/>
      <point x="1282.05" y="960.512" type="qcurve" smooth="yes"/>
      <point x="1259.52" y="989.184"/>
      <point x="1259.52" y="1019.9" type="qcurve" smooth="yes"/>
      <point x="1259.52" y="1056.77"/>
      <point x="1316.86" y="1114.11"/>
      <point x="1355.78" y="1114.11" type="qcurve" smooth="yes"/>
      <point x="1386.5" y="1114.11"/>
      <point x="1417.22" y="1085.44" type="qcurve"/>
      <point x="1466.37" y="1042.43"/>
      <point x="1468.42" y="1040.38" type="qcurve"/>
      <point x="1468.42" y="1343.49" type="line"/>
      <point x="1140.74" y="1343.49" type="line"/>
      <point x="1142.78" y="761.856" type="line"/>
      <point x="1142.78" y="720.896"/>
      <point x="1091.58" y="665.6"/>
      <point x="1052.67" y="665.6" type="qcurve" smooth="yes"/>
      <point x="1038.34" y="665.6"/>
      <point x="1011.71" y="673.792" type="qcurve" smooth="yes"/>
      <point x="798.72" y="737.28" type="line"/>
      <point x="798.72" y="204.8" type="line"/>
      <point x="948.224" y="299.008"/>
      <point x="1116.16" y="299.008" type="qcurve" smooth="yes"/>
      <point x="1253.38" y="299.008"/>
      <point x="1384.45" y="233.472" type="qcurve"/>
      <point x="1509.38" y="167.936"/>
      <point x="1597.44" y="59.392" type="qcurve" smooth="yes"/>
      <point x="1619.97" y="30.72"/>
      <point x="1619.97" y="0" type="qcurve" smooth="yes"/>
      <point x="1619.97" y="-36.864"/>
      <point x="1560.58" y="-94.208"/>
      <point x="1523.71" y="-94.208" type="qcurve" smooth="yes"/>
      <point x="1486.85" y="-94.208"/>
      <point x="1454.08" y="-59.392" type="qcurve" smooth="yes"/>
      <point x="1294.34" y="114.688"/>
      <point x="1116.16" y="114.688" type="qcurve" smooth="yes"/>
      <point x="931.84" y="114.688"/>
      <point x="778.24" y="-59.392" type="qcurve"/>
      <point x="735.232" y="-104.448"/>
      <point x="694.272" y="-104.448" type="qcurve" smooth="yes"/>
      <point x="614.4" y="-104.448"/>
      <point x="614.4" y="0" type="qcurve" smooth="yes"/>
      <point x="614.4" y="768" type="line"/>
      <point x="577.536" y="768" type="line"/>
      <point x="546.816" y="677.888"/>
      <point x="391.168" y="565.248"/>
      <point x="296.96" y="565.248" type="qcurve" smooth="yes"/>
      <point x="204.8" y="565.248"/>
      <point x="204.8" y="657.408" type="qcurve" smooth="yes"/>
      <point x="204.8" y="749.568"/>
      <point x="296.96" y="749.568" type="qcurve" smooth="yes"/>
      <point x="342.016" y="749.568"/>
      <point x="407.552" y="815.104"/>
      <point x="407.552" y="860.16" type="qcurve" smooth="yes"/>
      <point x="407.552" y="905.216"/>
      <point x="342.016" y="970.752"/>
      <point x="296.96" y="970.752" type="qcurve" smooth="yes"/>
      <point x="204.8" y="970.752"/>
      <point x="204.8" y="1062.91" type="qcurve" smooth="yes"/>
      <point x="204.8" y="1155.07"/>
      <point x="296.96" y="1155.07" type="qcurve" smooth="yes"/>
      <point x="391.168" y="1155.07"/>
      <point x="546.816" y="1042.43"/>
      <point x="577.536" y="952.32" type="qcurve"/>
      <point x="702.464" y="952.32" type="line" smooth="yes"/>
      <point x="718.848" y="952.32"/>
      <point x="743.424" y="944.128" type="qcurve"/>
      <point x="956.416" y="880.64" type="line"/>
      <point x="956.416" y="1386.5" type="line" smooth="yes"/>
      <point x="956.416" y="1443.84"/>
      <point x="1040.38" y="1527.81"/>
      <point x="1097.73" y="1527.81" type="qcurve" smooth="yes"/>
      <point x="1867.78" y="1527.81" type="line" smooth="yes"/>
      <point x="1959.94" y="1527.81"/>
      <point x="1959.94" y="1435.65" type="qcurve"/>
    </contour>
  </outline>
</glyph>
<glyph name="uniE147" format="2">
  <advance width="2048"/>
  <unicode hex="E147"/>
  <outline>
    <contour>
      <point x="2039.81" y="1435.65" type="line"/>
      <point x="2039.81" y="1343.49"/>
      <point x="1947.65" y="1343.49" type="qcurve" smooth="yes"/>
      <point x="1732.61" y="1343.49" type="line"/>
      <point x="1732.61" y="1040.38" type="line"/>
      <point x="1738.75" y="1042.43"/>
      <point x="1783.81" y="1085.44" type="qcurve" smooth="yes"/>
      <point x="1814.53" y="1114.11"/>
      <point x="1847.3" y="1114.11" type="qcurve" smooth="yes"/>
      <point x="1884.16" y="1114.11"/>
      <point x="1941.5" y="1056.77"/>
      <point x="1941.5" y="1019.9" type="qcurve" smooth="yes"/>
      <point x="1941.5" y="989.184"/>
      <point x="1918.98" y="960.512" type="qcurve" smooth="yes"/>
      <point x="1814.53" y="829.44"/>
      <point x="1640.45" y="829.44" type="qcurve" smooth="yes"/>
      <point x="1466.37" y="829.44"/>
      <point x="1361.92" y="960.512" type="qcurve"/>
      <point x="1337.34" y="989.184"/>
      <point x="1337.34" y="1019.9" type="qcurve" smooth="yes"/>
      <point x="1337.34" y="1056.77"/>
      <point x="1396.74" y="1114.11"/>
      <point x="1433.6" y="1114.11" type="qcurve" smooth="yes"/>
      <point x="1464.32" y="1114.11"/>
      <point x="1495.04" y="1085.44" type="qcurve" smooth="yes"/>
      <point x="1542.14" y="1042.43"/>
      <point x="1548.29" y="1040.38" type="qcurve"/>
      <point x="1548.29" y="1343.49" type="line"/>
      <point x="1220.61" y="1343.49" type="line"/>
      <point x="1220.61" y="761.856" type="line" smooth="yes"/>
      <point x="1220.61" y="720.896"/>
      <point x="1171.46" y="665.6"/>
      <point x="1130.5" y="665.6" type="qcurve" smooth="yes"/>
      <point x="1116.16" y="665.6"/>
      <point x="1089.54" y="673.792" type="qcurve" smooth="yes"/>
      <point x="876.544" y="737.28" type="line"/>
      <point x="876.544" y="204.8" type="line"/>
      <point x="1026.05" y="299.008"/>
      <point x="1196.03" y="299.008" type="qcurve" smooth="yes"/>
      <point x="1480.7" y="299.008"/>
      <point x="1675.26" y="59.392" type="qcurve" smooth="yes"/>
      <point x="1697.79" y="30.72"/>
      <point x="1697.79" y="0" type="qcurve" smooth="yes"/>
      <point x="1697.79" y="-36.864"/>
      <point x="1640.45" y="-94.208"/>
      <point x="1603.58" y="-94.208" type="qcurve" smooth="yes"/>
      <point x="1564.67" y="-94.208"/>
      <point x="1533.95" y="-59.392" type="qcurve" smooth="yes"/>
      <point x="1382.4" y="114.688"/>
      <point x="1196.03" y="114.688" type="qcurve" smooth="yes"/>
      <point x="1003.52" y="114.688"/>
      <point x="856.064" y="-59.392" type="qcurve" smooth="yes"/>
      <point x="817.152" y="-104.448"/>
      <point x="772.096" y="-104.448" type="qcurve" smooth="yes"/>
      <point x="692.224" y="-104.448"/>
      <point x="692.224" y="0" type="qcurve" smooth="yes"/>
      <point x="692.224" y="83.968" type="line"/>
      <point x="432.128" y="83.968" type="line"/>
      <point x="466.944" y="63.488"/>
      <point x="538.624" y="14.336"/>
      <point x="538.624" y="-28.672" type="qcurve" smooth="yes"/>
      <point x="538.624" y="-67.584"/>
      <point x="487.424" y="-124.928"/>
      <point x="448.512" y="-124.928" type="qcurve" smooth="yes"/>
      <point x="432.128" y="-124.928"/>
      <point x="411.648" y="-116.736" type="qcurve"/>
      <point x="321.536" y="-83.968"/>
      <point x="204.8" y="79.872"/>
      <point x="204.8" y="176.128" type="qcurve" smooth="yes"/>
      <point x="204.8" y="272.384"/>
      <point x="321.536" y="436.224"/>
      <point x="411.648" y="471.04" type="qcurve" smooth="yes"/>
      <point x="432.128" y="479.232"/>
      <point x="448.512" y="479.232" type="qcurve" smooth="yes"/>
      <point x="487.424" y="479.232"/>
      <point x="538.624" y="419.84"/>
      <point x="538.624" y="382.976" type="qcurve" smooth="yes"/>
      <point x="538.624" y="339.968"/>
      <point x="466.944" y="290.816"/>
      <point x="432.128" y="268.288" type="qcurve"/>
      <point x="692.224" y="268.288" type="line"/>
      <point x="692.224" y="856.064" type="line" smooth="yes"/>
      <point x="692.224" y="897.024"/>
      <point x="741.376" y="952.32"/>
      <point x="782.336" y="952.32" type="qcurve" smooth="yes"/>
      <point x="796.672" y="952.32"/>
      <point x="823.296" y="944.128" type="qcurve" smooth="yes"/>
      <point x="1036.29" y="880.64" type="line"/>
      <point x="1036.29" y="1386.5" type="line" smooth="yes"/>
      <point x="1036.29" y="1443.84"/>
      <point x="1118.21" y="1527.81"/>
      <point x="1177.6" y="1527.81" type="qcurve" smooth="yes"/>
      <point x="1947.65" y="1527.81" type="line" smooth="yes"/>
      <point x="2039.81" y="1527.81"/>
      <point x="2039.81" y="1435.65" type="qcurve"/>
    </contour>
  </outline>
</glyph>
<glyph name="uniE151" format="2">
  <advance width="1878"/>
  <unicode hex="E151"/>
  <outline>
    <contour>
      <point x="1878.02" y="1230.85" type="line"/>
      <point x="1878.02" y="1142.78"/>
      <point x="1843.2" y="1081.34" type="qcurve"/>
      <point x="1802.24" y="1003.52"/>
      <point x="1720.32" y="1003.52" type="qcurve" smooth="yes"/>
      <point x="1683.46" y="1003.52"/>
      <point x="1656.83" y="1024" type="qcurve"/>
      <point x="1624.06" y="1044.48"/>
      <point x="1624.06" y="1079.3" type="qcurve" smooth="yes"/>
      <point x="1624.06" y="1110.02"/>
      <point x="1693.7" y="1189.89"/>
      <point x="1693.7" y="1230.85" type="qcurve" smooth="yes"/>
      <point x="1693.7" y="1277.95"/>
      <point x="1626.11" y="1343.49"/>
      <point x="1581.06" y="1343.49" type="qcurve" smooth="yes"/>
      <point x="1263.62" y="1343.49" type="line"/>
      <point x="1263.62" y="585.728" type="line"/>
      <point x="1433.6" y="557.056"/>
      <point x="1544.19" y="464.896" type="qcurve" smooth="yes"/>
      <point x="1673.22" y="356.352"/>
      <point x="1673.22" y="196.608" type="qcurve" smooth="yes"/>
      <point x="1673.22" y="75.776"/>
      <point x="1511.42" y="-92.16"/>
      <point x="1392.64" y="-92.16" type="qcurve" smooth="yes"/>
      <point x="1222.66" y="-92.16"/>
      <point x="1140.74" y="63.488" type="qcurve" smooth="yes"/>
      <point x="1079.3" y="182.272"/>
      <point x="1079.3" y="368.64" type="qcurve" smooth="yes"/>
      <point x="1079.3" y="1343.49" type="line"/>
      <point x="925.696" y="1343.49" type="line"/>
      <point x="966.656" y="1241.09"/>
      <point x="966.656" y="1128.45" type="qcurve" smooth="yes"/>
      <point x="966.656" y="905.216"/>
      <point x="829.44" y="759.808" type="qcurve"/>
      <point x="798.72" y="724.992"/>
      <point x="761.856" y="724.992" type="qcurve" smooth="yes"/>
      <point x="724.992" y="724.992"/>
      <point x="667.648" y="782.336"/>
      <point x="667.648" y="819.2" type="qcurve" smooth="yes"/>
      <point x="667.648" y="849.92"/>
      <point x="692.224" y="880.64" type="qcurve" smooth="yes"/>
      <point x="753.664" y="958.464"/>
      <point x="772.096" y="1036.29" type="qcurve"/>
      <point x="577.536" y="1036.29" type="line"/>
      <point x="546.816" y="944.128"/>
      <point x="391.168" y="833.536"/>
      <point x="296.96" y="833.536" type="qcurve" smooth="yes"/>
      <point x="204.8" y="833.536"/>
      <point x="204.8" y="925.696" type="qcurve" smooth="yes"/>
      <point x="204.8" y="1017.86"/>
      <point x="296.96" y="1017.86" type="qcurve" smooth="yes"/>
      <point x="342.016" y="1017.86"/>
      <point x="407.552" y="1081.34"/>
      <point x="407.552" y="1128.45" type="qcurve" smooth="yes"/>
      <point x="407.552" y="1173.5"/>
      <point x="342.016" y="1239.04"/>
      <point x="296.96" y="1239.04" type="qcurve" smooth="yes"/>
      <point x="204.8" y="1239.04"/>
      <point x="204.8" y="1331.2" type="qcurve" smooth="yes"/>
      <point x="204.8" y="1423.36"/>
      <point x="296.96" y="1423.36" type="qcurve" smooth="yes"/>
      <point x="391.168" y="1423.36"/>
      <point x="546.816" y="1310.72"/>
      <point x="577.536" y="1220.61" type="qcurve"/>
      <point x="772.096" y="1220.61" type="line"/>
      <point x="751.616" y="1300.48"/>
      <point x="692.224" y="1374.21" type="qcurve" smooth="yes"/>
      <point x="659.456" y="1415.17"/>
      <point x="659.456" y="1449.98" type="qcurve" smooth="yes"/>
      <point x="659.456" y="1527.81"/>
      <point x="761.856" y="1527.81" type="qcurve" smooth="yes"/>
      <point x="1581.06" y="1527.81" type="line" smooth="yes"/>
      <point x="1703.94" y="1527.81"/>
      <point x="1878.02" y="1353.73"/>
      <point x="1878.02" y="1230.85" type="qcurve"/>
    </contour>
    <contour>
      <point x="1488.9" y="196.608" type="line"/>
      <point x="1488.9" y="276.48"/>
      <point x="1413.12" y="331.776" type="qcurve" smooth="yes"/>
      <point x="1351.68" y="376.832"/>
      <point x="1263.62" y="397.312" type="qcurve"/>
      <point x="1263.62" y="368.64" type="line" smooth="yes"/>
      <point x="1263.62" y="92.16"/>
      <point x="1392.64" y="92.16" type="qcurve" smooth="yes"/>
      <point x="1433.6" y="92.16"/>
      <point x="1488.9" y="153.6"/>
      <point x="1488.9" y="196.608" type="qcurve"/>
    </contour>
  </outline>
</glyph>
<glyph name="uniE163" format="2">
  <advance width="2017"/>
  <unicode hex="E163"/>
  <outline>
    <contour>
      <point x="2017.28" y="716.8" type="line"/>
      <point x="2017.28" y="610.304"/>
      <point x="1871.87" y="503.808"/>
      <point x="1763.33" y="503.808" type="qcurve" smooth="yes"/>
      <point x="1665.02" y="503.808"/>
      <point x="1558.53" y="583.68" type="qcurve"/>
      <point x="1527.81" y="540.672"/>
      <point x="1470.46" y="442.368" type="qcurve" smooth="yes"/>
      <point x="1439.74" y="389.12"/>
      <point x="1390.59" y="389.12" type="qcurve" smooth="yes"/>
      <point x="1353.73" y="389.12"/>
      <point x="1294.34" y="442.368"/>
      <point x="1294.34" y="479.232" type="qcurve" smooth="yes"/>
      <point x="1294.34" y="518.144"/>
      <point x="1359.87" y="624.64" type="qcurve"/>
      <point x="1058.82" y="624.64" type="line" smooth="yes"/>
      <point x="1044.48" y="624.64"/>
      <point x="1019.9" y="630.784" type="qcurve"/>
      <point x="821.248" y="688.128" type="line"/>
      <point x="856.064" y="542.72" type="line"/>
      <point x="882.688" y="544.768"/>
      <point x="911.36" y="544.768" type="qcurve" smooth="yes"/>
      <point x="1087.49" y="544.768"/>
      <point x="1212.42" y="458.752" type="qcurve" smooth="yes"/>
      <point x="1353.73" y="360.448"/>
      <point x="1353.73" y="190.464" type="qcurve" smooth="yes"/>
      <point x="1353.73" y="71.68"/>
      <point x="1189.89" y="-92.16"/>
      <point x="1071.1" y="-92.16" type="qcurve" smooth="yes"/>
      <point x="933.888" y="-92.16"/>
      <point x="837.632" y="34.816" type="qcurve" smooth="yes"/>
      <point x="763.904" y="135.168"/>
      <point x="727.04" y="288.768" type="qcurve" smooth="yes"/>
      <point x="610.304" y="782.336" type="line" smooth="yes"/>
      <point x="604.16" y="811.008"/>
      <point x="604.16" y="817.152" type="qcurve" smooth="yes"/>
      <point x="604.16" y="856.064"/>
      <point x="655.36" y="911.36"/>
      <point x="694.272" y="911.36" type="qcurve" smooth="yes"/>
      <point x="706.56" y="911.36"/>
      <point x="737.28" y="903.168" type="qcurve" smooth="yes"/>
      <point x="964.608" y="839.68" type="line"/>
      <point x="964.608" y="1343.49" type="line"/>
      <point x="471.04" y="1343.49" type="line"/>
      <point x="514.048" y="1241.09"/>
      <point x="514.048" y="1128.45" type="qcurve" smooth="yes"/>
      <point x="514.048" y="903.168"/>
      <point x="376.832" y="759.808" type="qcurve" smooth="yes"/>
      <point x="344.064" y="724.992"/>
      <point x="309.248" y="724.992" type="qcurve" smooth="yes"/>
      <point x="270.336" y="724.992"/>
      <point x="212.992" y="782.336"/>
      <point x="212.992" y="819.2" type="qcurve" smooth="yes"/>
      <point x="212.992" y="847.872"/>
      <point x="237.568" y="880.64" type="qcurve" smooth="yes"/>
      <point x="329.728" y="999.424"/>
      <point x="329.728" y="1128.45" type="qcurve" smooth="yes"/>
      <point x="329.728" y="1259.52"/>
      <point x="237.568" y="1374.21" type="qcurve" smooth="yes"/>
      <point x="204.8" y="1417.22"/>
      <point x="204.8" y="1449.98" type="qcurve" smooth="yes"/>
      <point x="204.8" y="1527.81"/>
      <point x="307.2" y="1527.81" type="qcurve" smooth="yes"/>
      <point x="1439.74" y="1527.81" type="line" smooth="yes"/>
      <point x="1562.62" y="1527.81"/>
      <point x="1736.7" y="1353.73"/>
      <point x="1736.7" y="1230.85" type="qcurve" smooth="yes"/>
      <point x="1736.7" y="1142.78"/>
      <point x="1703.94" y="1081.34" type="qcurve" smooth="yes"/>
      <point x="1660.93" y="1003.52"/>
      <point x="1581.06" y="1003.52" type="qcurve" smooth="yes"/>
      <point x="1544.19" y="1003.52"/>
      <point x="1484.8" y="1044.48"/>
      <point x="1484.8" y="1079.3" type="qcurve" smooth="yes"/>
      <point x="1484.8" y="1107.97"/>
      <point x="1552.38" y="1189.89"/>
      <point x="1552.38" y="1230.85" type="qcurve" smooth="yes"/>
      <point x="1552.38" y="1277.95"/>
      <point x="1486.85" y="1343.49"/>
      <point x="1439.74" y="1343.49" type="qcurve" smooth="yes"/>
      <point x="1148.93" y="1343.49" type="line"/>
      <point x="1148.93" y="808.96" type="line"/>
      <point x="1359.87" y="808.96" type="line"/>
      <point x="1294.34" y="913.408"/>
      <point x="1294.34" y="954.368" type="qcurve" smooth="yes"/>
      <point x="1294.34" y="991.232"/>
      <point x="1353.73" y="1044.48"/>
      <point x="1390.59" y="1044.48" type="qcurve" smooth="yes"/>
      <point x="1439.74" y="1044.48"/>
      <point x="1499.14" y="942.08"/>
      <point x="1558.53" y="849.92" type="qcurve"/>
      <point x="1665.02" y="929.792"/>
      <point x="1763.33" y="929.792" type="qcurve" smooth="yes"/>
      <point x="1871.87" y="929.792"/>
      <point x="1941.5" y="878.592" type="qcurve" smooth="yes"/>
      <point x="2017.28" y="821.248"/>
      <point x="2017.28" y="716.8" type="qcurve"/>
    </contour>
    <contour>
      <point x="1832.96" y="716.8" type="line"/>
      <point x="1832.96" y="745.472"/>
      <point x="1763.33" y="745.472" type="qcurve" smooth="yes"/>
      <point x="1726.46" y="745.472"/>
      <point x="1685.5" y="716.8" type="qcurve"/>
      <point x="1726.46" y="688.128"/>
      <point x="1763.33" y="688.128" type="qcurve" smooth="yes"/>
      <point x="1808.38" y="688.128"/>
      <point x="1830.91" y="702.464" type="qcurve"/>
      <point x="1832.96" y="708.608"/>
      <point x="1832.96" y="716.8" type="qcurve"/>
    </contour>
    <contour>
      <point x="1169.41" y="190.464" type="line"/>
      <point x="1169.41" y="278.528"/>
      <point x="1079.3" y="325.632" type="qcurve" smooth="yes"/>
      <point x="1007.62" y="362.496"/>
      <point x="911.36" y="360.448" type="qcurve"/>
      <point x="899.072" y="360.448" type="line"/>
      <point x="962.56" y="92.16"/>
      <point x="1071.1" y="92.16" type="qcurve" smooth="yes"/>
      <point x="1114.11" y="92.16"/>
      <point x="1169.41" y="147.456"/>
      <point x="1169.41" y="190.464" type="qcurve"/>
    </contour>
  </outline>
</glyph>
<glyph name="uniE168" format="2">
  <advance width="1208"/>
  <unicode hex="E168"/>
  <outline>
    <contour>
      <point x="1208.32" y="1435.65" type="line"/>
      <point x="1208.32" y="1343.49"/>
      <point x="1116.16" y="1343.49" type="qcurve" smooth="yes"/>
      <point x="798.72" y="1343.49" type="line"/>
      <point x="798.72" y="0" type="line" smooth="yes"/>
      <point x="798.72" y="-92.16"/>
      <point x="706.56" y="-92.16" type="qcurve" smooth="yes"/>
      <point x="614.4" y="-92.16"/>
      <point x="614.4" y="0" type="qcurve" smooth="yes"/>
      <point x="614.4" y="528.384" type="line"/>
      <point x="456.704" y="544.768"/>
      <point x="350.208" y="604.16" type="qcurve" smooth="yes"/>
      <point x="206.848" y="684.032"/>
      <point x="206.848" y="819.2" type="qcurve" smooth="yes"/>
      <point x="206.848" y="954.368"/>
      <point x="350.208" y="1034.24" type="qcurve" smooth="yes"/>
      <point x="456.704" y="1093.63"/>
      <point x="614.4" y="1110.02" type="qcurve"/>
      <point x="614.4" y="1343.49" type="line"/>
      <point x="296.96" y="1343.49" type="line" smooth="yes"/>
      <point x="204.8" y="1343.49"/>
      <point x="204.8" y="1435.65" type="qcurve" smooth="yes"/>
      <point x="204.8" y="1527.81"/>
      <point x="296.96" y="1527.81" type="qcurve" smooth="yes"/>
      <point x="1116.16" y="1527.81" type="line" smooth="yes"/>
      <point x="1208.32" y="1527.81"/>
      <point x="1208.32" y="1435.65" type="qcurve"/>
    </contour>
    <contour>
      <point x="614.4" y="710.656" type="line"/>
      <point x="614.4" y="927.744" type="line"/>
      <point x="462.848" y="909.312"/>
      <point x="407.552" y="847.872" type="qcurve"/>
      <point x="391.168" y="831.488"/>
      <point x="391.168" y="819.2" type="qcurve" smooth="yes"/>
      <point x="391.168" y="806.912"/>
      <point x="407.552" y="790.528" type="qcurve"/>
      <point x="462.848" y="729.088"/>
      <point x="614.4" y="710.656" type="qcurve"/>
    </contour>
  </outline>
</glyph>
<glyph name="uniE16A" format="2">
  <advance width="1337"/>
  <unicode hex="E16A"/>
  <outline>
    <contour>
      <point x="1337.34" y="815.104" type="line"/>
      <point x="1337.34" y="720.896"/>
      <point x="1220.61" y="552.96"/>
      <point x="1132.54" y="520.192" type="qcurve"/>
      <point x="1110.02" y="514.048"/>
      <point x="1093.63" y="514.048" type="qcurve" smooth="yes"/>
      <point x="1056.77" y="514.048"/>
      <point x="1003.52" y="571.392"/>
      <point x="1003.52" y="610.304" type="qcurve" smooth="yes"/>
      <point x="1003.52" y="655.36"/>
      <point x="1077.25" y="700.416"/>
      <point x="1112.06" y="722.944" type="qcurve"/>
      <point x="796.672" y="722.944" type="line"/>
      <point x="796.672" y="0" type="line" smooth="yes"/>
      <point x="796.672" y="-92.16"/>
      <point x="704.512" y="-92.16" type="qcurve" smooth="yes"/>
      <point x="612.352" y="-92.16"/>
      <point x="612.352" y="0" type="qcurve" smooth="yes"/>
      <point x="612.352" y="526.336" type="line"/>
      <point x="452.608" y="544.768"/>
      <point x="346.112" y="604.16" type="qcurve" smooth="yes"/>
      <point x="204.8" y="684.032"/>
      <point x="204.8" y="819.2" type="qcurve" smooth="yes"/>
      <point x="204.8" y="954.368"/>
      <point x="346.112" y="1034.24" type="qcurve" smooth="yes"/>
      <point x="452.608" y="1093.63"/>
      <point x="612.352" y="1112.06" type="qcurve"/>
      <point x="612.352" y="1343.49" type="line"/>
      <point x="294.912" y="1343.49" type="line" smooth="yes"/>
      <point x="202.752" y="1343.49"/>
      <point x="202.752" y="1435.65" type="qcurve" smooth="yes"/>
      <point x="202.752" y="1527.81"/>
      <point x="294.912" y="1527.81" type="qcurve" smooth="yes"/>
      <point x="1114.11" y="1527.81" type="line" smooth="yes"/>
      <point x="1206.27" y="1527.81"/>
      <point x="1206.27" y="1435.65" type="qcurve" smooth="yes"/>
      <point x="1206.27" y="1343.49"/>
      <point x="1114.11" y="1343.49" type="qcurve" smooth="yes"/>
      <point x="796.672" y="1343.49" type="line"/>
      <point x="796.672" y="907.264" type="line"/>
      <point x="1112.06" y="907.264" type="line"/>
      <point x="1077.25" y="929.792"/>
      <point x="1003.52" y="974.848"/>
      <point x="1003.52" y="1021.95" type="qcurve" smooth="yes"/>
      <point x="1003.52" y="1058.82"/>
      <point x="1056.77" y="1118.21"/>
      <point x="1093.63" y="1118.21" type="qcurve" smooth="yes"/>
      <point x="1110.02" y="1118.21"/>
      <point x="1132.54" y="1110.02" type="qcurve" smooth="yes"/>
      <point x="1220.61" y="1077.25"/>
      <point x="1337.34" y="911.36"/>
      <point x="1337.34" y="815.104" type="qcurve"/>
    </contour>
    <contour>
      <point x="612.352" y="712.704" type="line"/>
      <point x="612.352" y="925.696" type="line"/>
      <point x="458.752" y="909.312"/>
      <point x="405.504" y="847.872" type="qcurve"/>
      <point x="389.12" y="831.488"/>
      <point x="389.12" y="819.2" type="qcurve" smooth="yes"/>
      <point x="389.12" y="806.912"/>
      <point x="405.504" y="790.528" type="qcurve"/>
      <point x="458.752" y="729.088"/>
      <point x="612.352" y="712.704" type="qcurve"/>
    </contour>
  </outline>
</glyph>
<glyph name="uniE16B" format="2">
  <advance width="1436"/>
  <unicode hex="E16B"/>
  <outline>
    <contour>
      <point x="1435.65" y="1435.65" type="line"/>
      <point x="1435.65" y="1343.49"/>
      <point x="1343.49" y="1343.49" type="qcurve" smooth="yes"/>
      <point x="1026.05" y="1343.49" type="line"/>
      <point x="1026.05" y="0" type="line" smooth="yes"/>
      <point x="1026.05" y="-92.16"/>
      <point x="933.888" y="-92.16" type="qcurve" smooth="yes"/>
      <point x="841.728" y="-92.16"/>
      <point x="841.728" y="0" type="qcurve" smooth="yes"/>
      <point x="841.728" y="116.736" type="line"/>
      <point x="430.08" y="116.736" type="line"/>
      <point x="464.896" y="94.208"/>
      <point x="538.624" y="49.152"/>
      <point x="538.624" y="2.048" type="qcurve" smooth="yes"/>
      <point x="538.624" y="-34.816"/>
      <point x="487.424" y="-94.208"/>
      <point x="448.512" y="-94.208" type="qcurve" smooth="yes"/>
      <point x="432.128" y="-94.208"/>
      <point x="411.648" y="-86.016" type="qcurve" smooth="yes"/>
      <point x="321.536" y="-51.2"/>
      <point x="204.8" y="112.64"/>
      <point x="204.8" y="208.896" type="qcurve" smooth="yes"/>
      <point x="204.8" y="305.152"/>
      <point x="321.536" y="468.992"/>
      <point x="411.648" y="503.808" type="qcurve"/>
      <point x="432.128" y="509.952"/>
      <point x="448.512" y="509.952" type="qcurve" smooth="yes"/>
      <point x="487.424" y="509.952"/>
      <point x="538.624" y="452.608"/>
      <point x="538.624" y="413.696" type="qcurve" smooth="yes"/>
      <point x="538.624" y="368.64"/>
      <point x="464.896" y="321.536"/>
      <point x="430.08" y="301.056" type="qcurve"/>
      <point x="841.728" y="301.056" type="line"/>
      <point x="841.728" y="528.384" type="line"/>
      <point x="684.032" y="544.768"/>
      <point x="577.536" y="604.16" type="qcurve" smooth="yes"/>
      <point x="436.224" y="684.032"/>
      <point x="436.224" y="819.2" type="qcurve" smooth="yes"/>
      <point x="436.224" y="954.368"/>
      <point x="577.536" y="1034.24" type="qcurve" smooth="yes"/>
      <point x="684.032" y="1093.63"/>
      <point x="841.728" y="1110.02" type="qcurve"/>
      <point x="841.728" y="1343.49" type="line"/>
      <point x="524.288" y="1343.49" type="line" smooth="yes"/>
      <point x="432.128" y="1343.49"/>
      <point x="432.128" y="1435.65" type="qcurve" smooth="yes"/>
      <point x="432.128" y="1527.81"/>
      <point x="524.288" y="1527.81" type="qcurve" smooth="yes"/>
      <point x="1343.49" y="1527.81" type="line" smooth="yes"/>
      <point x="1435.65" y="1527.81"/>
      <point x="1435.65" y="1435.65" type="qcurve"/>
    </contour>
    <contour>
      <point x="841.728" y="710.656" type="line"/>
      <point x="841.728" y="927.744" type="line"/>
      <point x="690.176" y="909.312"/>
      <point x="634.88" y="847.872" type="qcurve" smooth="yes"/>
      <point x="620.544" y="831.488"/>
      <point x="620.544" y="819.2" type="qcurve" smooth="yes"/>
      <point x="620.544" y="806.912"/>
      <point x="634.88" y="790.528" type="qcurve" smooth="yes"/>
      <point x="690.176" y="729.088"/>
      <point x="841.728" y="710.656" type="qcurve"/>
    </contour>
  </outline>
</glyph>
<glyph name="uniE16D" format="2">
  <advance width="1534"/>
  <unicode hex="E16D"/>
  <outline>
    <contour>
      <point x="1533.95" y="1097.73" type="line"/>
      <point x="1533.95" y="1064.96"/>
      <point x="1507.33" y="1034.24" type="qcurve" smooth="yes"/>
      <point x="1425.41" y="937.984"/>
      <point x="1290.24" y="937.984" type="qcurve" smooth="yes"/>
      <point x="1167.36" y="937.984"/>
      <point x="995.328" y="1112.06"/>
      <point x="995.328" y="1232.9" type="qcurve" smooth="yes"/>
      <point x="995.328" y="1290.24"/>
      <point x="1015.81" y="1343.49" type="qcurve"/>
      <point x="798.72" y="1343.49" type="line"/>
      <point x="798.72" y="0" type="line" smooth="yes"/>
      <point x="798.72" y="-92.16"/>
      <point x="706.56" y="-92.16" type="qcurve" smooth="yes"/>
      <point x="614.4" y="-92.16"/>
      <point x="614.4" y="0" type="qcurve" smooth="yes"/>
      <point x="614.4" y="528.384" type="line"/>
      <point x="456.704" y="544.768"/>
      <point x="350.208" y="604.16" type="qcurve" smooth="yes"/>
      <point x="206.848" y="684.032"/>
      <point x="206.848" y="819.2" type="qcurve" smooth="yes"/>
      <point x="206.848" y="954.368"/>
      <point x="350.208" y="1034.24" type="qcurve" smooth="yes"/>
      <point x="456.704" y="1093.63"/>
      <point x="614.4" y="1110.02" type="qcurve"/>
      <point x="614.4" y="1343.49" type="line"/>
      <point x="296.96" y="1343.49" type="line" smooth="yes"/>
      <point x="204.8" y="1343.49"/>
      <point x="204.8" y="1435.65" type="qcurve" smooth="yes"/>
      <point x="204.8" y="1527.81"/>
      <point x="296.96" y="1527.81" type="qcurve" smooth="yes"/>
      <point x="1290.24" y="1527.81" type="line" smooth="yes"/>
      <point x="1386.5" y="1527.81"/>
      <point x="1386.5" y="1435.65" type="qcurve" smooth="yes"/>
      <point x="1386.5" y="1343.49"/>
      <point x="1290.24" y="1343.49" type="qcurve" smooth="yes"/>
      <point x="1245.18" y="1343.49"/>
      <point x="1179.65" y="1277.95"/>
      <point x="1179.65" y="1232.9" type="qcurve" smooth="yes"/>
      <point x="1179.65" y="1187.84"/>
      <point x="1245.18" y="1122.3"/>
      <point x="1290.24" y="1122.3" type="qcurve" smooth="yes"/>
      <point x="1331.2" y="1122.3"/>
      <point x="1406.98" y="1189.89"/>
      <point x="1437.7" y="1189.89" type="qcurve" smooth="yes"/>
      <point x="1476.61" y="1189.89"/>
      <point x="1533.95" y="1134.59"/>
      <point x="1533.95" y="1097.73" type="qcurve"/>
    </contour>
    <contour>
      <point x="614.4" y="710.656" type="line"/>
      <point x="614.4" y="927.744" type="line"/>
      <point x="462.848" y="909.312"/>
      <point x="407.552" y="847.872" type="qcurve"/>
      <point x="391.168" y="831.488"/>
      <point x="391.168" y="819.2" type="qcurve" smooth="yes"/>
      <point x="391.168" y="806.912"/>
      <point x="407.552" y="790.528" type="qcurve"/>
      <point x="462.848" y="729.088"/>
      <point x="614.4" y="710.656" type="qcurve"/>
    </contour>
  </outline>
</glyph>
<glyph name="uniE175" format="2">
  <advance width="1700"/>
  <unicode hex="E175"/>
  <outline>
    <contour>
      <point x="1699.84" y="1435.65" type="line"/>
      <point x="1699.84" y="1343.49"/>
      <point x="1607.68" y="1343.49" type="qcurve" smooth="yes"/>
      <point x="1290.24" y="1343.49" type="line"/>
      <point x="1290.24" y="978.944" type="line" smooth="yes"/>
      <point x="1290.24" y="874.496"/>
      <point x="1200.13" y="874.496" type="qcurve" smooth="yes"/>
      <point x="1187.84" y="874.496"/>
      <point x="1163.26" y="880.64" type="qcurve" smooth="yes"/>
      <point x="952.32" y="935.936" type="line"/>
      <point x="1263.62" y="30.72" type="line" smooth="yes"/>
      <point x="1269.76" y="12.288"/>
      <point x="1269.76" y="-4.096" type="qcurve" smooth="yes"/>
      <point x="1269.76" y="-40.96"/>
      <point x="1212.42" y="-92.16"/>
      <point x="1173.5" y="-92.16" type="qcurve" smooth="yes"/>
      <point x="1112.06" y="-92.16"/>
      <point x="1089.54" y="-30.72" type="qcurve" smooth="yes"/>
      <point x="917.504" y="468.992" type="line"/>
      <point x="823.296" y="446.464"/>
      <point x="737.28" y="446.464" type="qcurve" smooth="yes"/>
      <point x="612.352" y="446.464"/>
      <point x="528.384" y="499.712" type="qcurve"/>
      <point x="440.32" y="387.072"/>
      <point x="296.96" y="387.072" type="qcurve" smooth="yes"/>
      <point x="204.8" y="387.072"/>
      <point x="204.8" y="479.232" type="qcurve" smooth="yes"/>
      <point x="204.8" y="571.392"/>
      <point x="296.96" y="571.392" type="qcurve" smooth="yes"/>
      <point x="342.016" y="571.392"/>
      <point x="407.552" y="634.88"/>
      <point x="407.552" y="681.984" type="qcurve" smooth="yes"/>
      <point x="407.552" y="727.04"/>
      <point x="342.016" y="792.576"/>
      <point x="296.96" y="792.576" type="qcurve" smooth="yes"/>
      <point x="204.8" y="792.576"/>
      <point x="204.8" y="884.736" type="qcurve" smooth="yes"/>
      <point x="204.8" y="976.896"/>
      <point x="296.96" y="976.896" type="qcurve" smooth="yes"/>
      <point x="428.032" y="976.896"/>
      <point x="516.096" y="876.544" type="qcurve"/>
      <point x="595.968" y="958.464"/>
      <point x="729.088" y="1019.9" type="qcurve"/>
      <point x="716.8" y="1071.1"/>
      <point x="716.8" y="1071.1" type="qcurve"/>
      <point x="716.8" y="1110.02"/>
      <point x="772.096" y="1163.26"/>
      <point x="808.96" y="1163.26" type="qcurve" smooth="yes"/>
      <point x="819.2" y="1163.26"/>
      <point x="849.92" y="1155.07" type="qcurve" smooth="yes"/>
      <point x="1105.92" y="1087.49" type="line"/>
      <point x="1105.92" y="1343.49" type="line"/>
      <point x="788.48" y="1343.49" type="line" smooth="yes"/>
      <point x="696.32" y="1343.49"/>
      <point x="696.32" y="1435.65" type="qcurve" smooth="yes"/>
      <point x="696.32" y="1527.81"/>
      <point x="788.48" y="1527.81" type="qcurve" smooth="yes"/>
      <point x="1607.68" y="1527.81" type="line" smooth="yes"/>
      <point x="1699.84" y="1527.81"/>
      <point x="1699.84" y="1435.65" type="qcurve"/>
    </contour>
    <contour>
      <point x="858.112" y="643.072" type="line"/>
      <point x="788.48" y="845.824" type="line"/>
      <point x="612.352" y="763.904"/>
      <point x="612.352" y="681.984" type="qcurve" smooth="yes"/>
      <point x="612.352" y="628.736"/>
      <point x="741.376" y="628.736" type="qcurve" smooth="yes"/>
      <point x="794.624" y="628.736"/>
      <point x="858.112" y="643.072" type="qcurve"/>
    </contour>
  </outline>
</glyph>
<glyph name="uniE17B" format="2">
  <advance width="1933"/>
  <unicode hex="E17B"/>
  <outline>
    <contour>
      <point x="1933.31" y="614.4" type="line"/>
      <point x="1933.31" y="507.904"/>
      <point x="1787.9" y="401.408"/>
      <point x="1679.36" y="401.408" type="qcurve" smooth="yes"/>
      <point x="1581.06" y="401.408"/>
      <point x="1474.56" y="481.28" type="qcurve"/>
      <point x="1431.55" y="419.84"/>
      <point x="1386.5" y="339.968" type="qcurve" smooth="yes"/>
      <point x="1357.82" y="286.72"/>
      <point x="1306.62" y="286.72" type="qcurve" smooth="yes"/>
      <point x="1269.76" y="286.72"/>
      <point x="1210.37" y="339.968"/>
      <point x="1210.37" y="376.832" type="qcurve" smooth="yes"/>
      <point x="1210.37" y="397.312"/>
      <point x="1220.61" y="419.84" type="qcurve" smooth="yes"/>
      <point x="1243.14" y="471.04"/>
      <point x="1275.9" y="522.24" type="qcurve"/>
      <point x="872.448" y="522.24" type="line"/>
      <point x="1042.43" y="30.72" type="line" smooth="yes"/>
      <point x="1048.58" y="12.288"/>
      <point x="1048.58" y="-4.096" type="qcurve" smooth="yes"/>
      <point x="1048.58" y="-40.96"/>
      <point x="991.232" y="-92.16"/>
      <point x="952.32" y="-92.16" type="qcurve" smooth="yes"/>
      <point x="890.88" y="-92.16"/>
      <point x="868.352" y="-30.72" type="qcurve" smooth="yes"/>
      <point x="696.32" y="468.992" type="line"/>
      <point x="602.112" y="446.464"/>
      <point x="516.096" y="446.464" type="qcurve" smooth="yes"/>
      <point x="387.072" y="446.464"/>
      <point x="303.104" y="499.712" type="qcurve" smooth="yes"/>
      <point x="204.8" y="563.2"/>
      <point x="204.8" y="686.08" type="qcurve" smooth="yes"/>
      <point x="204.8" y="878.592"/>
      <point x="505.856" y="1019.9" type="qcurve"/>
      <point x="493.568" y="1071.1"/>
      <point x="493.568" y="1071.1" type="qcurve"/>
      <point x="493.568" y="1110.02"/>
      <point x="548.864" y="1163.26"/>
      <point x="587.776" y="1163.26" type="qcurve" smooth="yes"/>
      <point x="598.016" y="1163.26"/>
      <point x="628.736" y="1155.07" type="qcurve" smooth="yes"/>
      <point x="884.736" y="1087.49" type="line"/>
      <point x="884.736" y="1343.49" type="line"/>
      <point x="567.296" y="1343.49" type="line" smooth="yes"/>
      <point x="475.136" y="1343.49"/>
      <point x="475.136" y="1435.65" type="qcurve" smooth="yes"/>
      <point x="475.136" y="1527.81"/>
      <point x="567.296" y="1527.81" type="qcurve" smooth="yes"/>
      <point x="1386.5" y="1527.81" type="line" smooth="yes"/>
      <point x="1478.66" y="1527.81"/>
      <point x="1478.66" y="1435.65" type="qcurve" smooth="yes"/>
      <point x="1478.66" y="1343.49"/>
      <point x="1386.5" y="1343.49" type="qcurve" smooth="yes"/>
      <point x="1069.06" y="1343.49" type="line"/>
      <point x="1069.06" y="978.944" type="line" smooth="yes"/>
      <point x="1069.06" y="874.496"/>
      <point x="978.944" y="874.496" type="qcurve" smooth="yes"/>
      <point x="966.656" y="874.496"/>
      <point x="942.08" y="880.64" type="qcurve" smooth="yes"/>
      <point x="731.136" y="935.936" type="line"/>
      <point x="808.96" y="706.56" type="line"/>
      <point x="1275.9" y="706.56" type="line"/>
      <point x="1243.14" y="757.76"/>
      <point x="1220.61" y="808.96" type="qcurve" smooth="yes"/>
      <point x="1210.37" y="831.488"/>
      <point x="1210.37" y="851.968" type="qcurve" smooth="yes"/>
      <point x="1210.37" y="888.832"/>
      <point x="1269.76" y="942.08"/>
      <point x="1306.62" y="942.08" type="qcurve" smooth="yes"/>
      <point x="1357.82" y="942.08"/>
      <point x="1386.5" y="888.832" type="qcurve" smooth="yes"/>
      <point x="1431.55" y="808.96"/>
      <point x="1474.56" y="747.52" type="qcurve"/>
      <point x="1581.06" y="827.392"/>
      <point x="1679.36" y="827.392" type="qcurve" smooth="yes"/>
      <point x="1787.9" y="827.392"/>
      <point x="1933.31" y="720.896"/>
      <point x="1933.31" y="614.4" type="qcurve"/>
    </contour>
    <contour>
      <point x="1748.99" y="614.4" type="line"/>
      <point x="1748.99" y="624.64"/>
      <point x="1744.9" y="630.784" type="qcurve"/>
      <point x="1726.46" y="643.072"/>
      <point x="1679.36" y="643.072" type="qcurve" smooth="yes"/>
      <point x="1642.5" y="643.072"/>
      <point x="1601.54" y="614.4" type="qcurve"/>
      <point x="1642.5" y="585.728"/>
      <point x="1679.36" y="585.728" type="qcurve" smooth="yes"/>
      <point x="1724.42" y="585.728"/>
      <point x="1746.94" y="600.064" type="qcurve"/>
      <point x="1748.99" y="604.16"/>
      <point x="1748.99" y="614.4" type="qcurve"/>
    </contour>
    <contour>
      <point x="636.928" y="643.072" type="line"/>
      <point x="567.296" y="845.824" type="line"/>
      <point x="391.168" y="763.904"/>
      <point x="391.168" y="681.984" type="qcurve" smooth="yes"/>
      <point x="391.168" y="628.736"/>
      <point x="520.192" y="628.736" type="qcurve" smooth="yes"/>
      <point x="573.44" y="628.736"/>
      <point x="636.928" y="643.072" type="qcurve"/>
    </contour>
  </outline>
</glyph>
<glyph name="uniE180" format="2">
  <advance width="1403"/>
  <unicode hex="E180"/>
  <outline>
    <contour>
      <point x="1402.88" y="83.968" type="line"/>
      <point x="1402.88" y="45.056"/>
      <point x="1370.11" y="14.336" type="qcurve" smooth="yes"/>
      <point x="1253.38" y="-92.16"/>
      <point x="1052.67" y="-92.16" type="qcurve" smooth="yes"/>
      <point x="940.032" y="-92.16"/>
      <point x="831.488" y="-18.432" type="qcurve" smooth="yes"/>
      <point x="710.656" y="63.488"/>
      <point x="710.656" y="169.984" type="qcurve" smooth="yes"/>
      <point x="710.656" y="1224.7" type="line"/>
      <point x="632.832" y="1183.74"/>
      <point x="548.864" y="1183.74" type="qcurve" smooth="yes"/>
      <point x="450.56" y="1183.74"/>
      <point x="276.48" y="1296.38"/>
      <point x="221.184" y="1384.45" type="qcurve"/>
      <point x="212.992" y="1400.83"/>
      <point x="204.8" y="1437.7" type="qcurve"/>
      <point x="204.8" y="1474.56"/>
      <point x="264.192" y="1529.86"/>
      <point x="301.056" y="1529.86" type="qcurve" smooth="yes"/>
      <point x="344.064" y="1529.86"/>
      <point x="374.784" y="1486.85" type="qcurve" smooth="yes"/>
      <point x="460.8" y="1368.06"/>
      <point x="548.864" y="1368.06" type="qcurve" smooth="yes"/>
      <point x="628.736" y="1368.06"/>
      <point x="770.048" y="1542.14"/>
      <point x="811.008" y="1542.14" type="qcurve" smooth="yes"/>
      <point x="892.928" y="1542.14"/>
      <point x="894.976" y="1435.65" type="qcurve"/>
      <point x="899.072" y="167.936" type="line"/>
      <point x="952.32" y="92.16"/>
      <point x="1052.67" y="92.16" type="qcurve" smooth="yes"/>
      <point x="1171.46" y="92.16"/>
      <point x="1249.28" y="153.6" type="qcurve" smooth="yes"/>
      <point x="1280" y="178.176"/>
      <point x="1308.67" y="178.176" type="qcurve" smooth="yes"/>
      <point x="1347.58" y="178.176"/>
      <point x="1402.88" y="120.832"/>
      <point x="1402.88" y="83.968" type="qcurve"/>
    </contour>
  </outline>
</glyph>
<glyph name="uniE181" format="2">
  <advance width="1403"/>
  <unicode hex="E181"/>
  <outline>
    <contour>
      <point x="1402.88" y="83.968" type="line"/>
      <point x="1402.88" y="45.056"/>
      <point x="1370.11" y="14.336" type="qcurve" smooth="yes"/>
      <point x="1253.38" y="-92.16"/>
      <point x="1052.67" y="-92.16" type="qcurve" smooth="yes"/>
      <point x="940.032" y="-92.16"/>
      <point x="831.488" y="-18.432" type="qcurve" smooth="yes"/>
      <point x="710.656" y="63.488"/>
      <point x="710.656" y="169.984" type="qcurve" smooth="yes"/>
      <point x="710.656" y="614.4" type="line"/>
      <point x="696.32" y="614.4" type="line"/>
      <point x="667.648" y="524.288"/>
      <point x="512" y="411.648"/>
      <point x="417.792" y="411.648" type="qcurve" smooth="yes"/>
      <point x="325.632" y="411.648"/>
      <point x="325.632" y="503.808" type="qcurve" smooth="yes"/>
      <point x="325.632" y="595.968"/>
      <point x="417.792" y="595.968" type="qcurve" smooth="yes"/>
      <point x="462.848" y="595.968"/>
      <point x="528.384" y="661.504"/>
      <point x="528.384" y="706.56" type="qcurve" smooth="yes"/>
      <point x="528.384" y="751.616"/>
      <point x="462.848" y="817.152"/>
      <point x="417.792" y="817.152" type="qcurve" smooth="yes"/>
      <point x="325.632" y="817.152"/>
      <point x="325.632" y="909.312" type="qcurve" smooth="yes"/>
      <point x="325.632" y="1001.47"/>
      <point x="417.792" y="1001.47" type="qcurve" smooth="yes"/>
      <point x="512" y="1001.47"/>
      <point x="667.648" y="888.832"/>
      <point x="696.32" y="798.72" type="qcurve"/>
      <point x="710.656" y="798.72" type="line"/>
      <point x="710.656" y="1224.7" type="line"/>
      <point x="632.832" y="1183.74"/>
      <point x="548.864" y="1183.74" type="qcurve" smooth="yes"/>
      <point x="450.56" y="1183.74"/>
      <point x="276.48" y="1296.38"/>
      <point x="221.184" y="1384.45" type="qcurve"/>
      <point x="204.8" y="1413.12"/>
      <point x="204.8" y="1437.7" type="qcurve" smooth="yes"/>
      <point x="204.8" y="1474.56"/>
      <point x="264.192" y="1529.86"/>
      <point x="301.056" y="1529.86" type="qcurve" smooth="yes"/>
      <point x="344.064" y="1529.86"/>
      <point x="374.784" y="1486.85" type="qcurve" smooth="yes"/>
      <point x="460.8" y="1368.06"/>
      <point x="548.864" y="1368.06" type="qcurve" smooth="yes"/>
      <point x="628.736" y="1368.06"/>
      <point x="770.048" y="1542.14"/>
      <point x="811.008" y="1542.14" type="qcurve" smooth="yes"/>
      <point x="892.928" y="1542.14"/>
      <point x="894.976" y="1435.65" type="qcurve"/>
      <point x="899.072" y="167.936" type="line"/>
      <point x="952.32" y="92.16"/>
      <point x="1052.67" y="92.16" type="qcurve" smooth="yes"/>
      <point x="1171.46" y="92.16"/>
      <point x="1249.28" y="153.6" type="qcurve" smooth="yes"/>
      <point x="1280" y="178.176"/>
      <point x="1308.67" y="178.176" type="qcurve" smooth="yes"/>
      <point x="1347.58" y="178.176"/>
      <point x="1402.88" y="120.832"/>
      <point x="1402.88" y="83.968" type="qcurve"/>
    </contour>
  </outline>
</glyph>
<glyph name="uniE18A" format="2">
  <advance width="1708"/>
  <unicode hex="E18A"/>
  <outline>
    <contour>
      <point x="1708.03" y="1179.65" type="line"/>
      <point x="1708.03" y="1044.48"/>
      <point x="1538.05" y="823.296"/>
      <point x="1409.02" y="776.192" type="qcurve"/>
      <point x="1388.54" y="770.048"/>
      <point x="1372.16" y="770.048" type="qcurve" smooth="yes"/>
      <point x="1335.3" y="770.048"/>
      <point x="1282.05" y="827.392"/>
      <point x="1282.05" y="866.304" type="qcurve" smooth="yes"/>
      <point x="1282.05" y="911.36"/>
      <point x="1331.2" y="942.08" type="qcurve"/>
      <point x="1374.21" y="966.656"/>
      <point x="1417.22" y="991.232" type="qcurve"/>
      <point x="1523.71" y="1064.96"/>
      <point x="1523.71" y="1179.65" type="qcurve" smooth="yes"/>
      <point x="1523.71" y="1282.05"/>
      <point x="1429.5" y="1318.91" type="qcurve" smooth="yes"/>
      <point x="1370.11" y="1343.49"/>
      <point x="1245.18" y="1343.49" type="qcurve" smooth="yes"/>
      <point x="1216.51" y="1343.49"/>
      <point x="1146.88" y="1306.62"/>
      <point x="1146.88" y="1280" type="qcurve" smooth="yes"/>
      <point x="1146.88" y="1228.8"/>
      <point x="1245.18" y="1228.8" type="qcurve" smooth="yes"/>
      <point x="1337.34" y="1228.8"/>
      <point x="1337.34" y="1136.64" type="qcurve" smooth="yes"/>
      <point x="1337.34" y="1044.48"/>
      <point x="1245.18" y="1044.48" type="qcurve" smooth="yes"/>
      <point x="1034.24" y="1044.48"/>
      <point x="978.944" y="1187.84" type="qcurve"/>
      <point x="894.976" y="1187.84" type="line"/>
      <point x="899.072" y="167.936" type="line"/>
      <point x="952.32" y="92.16"/>
      <point x="1052.67" y="92.16" type="qcurve" smooth="yes"/>
      <point x="1169.41" y="92.16"/>
      <point x="1249.28" y="153.6" type="qcurve" smooth="yes"/>
      <point x="1280" y="178.176"/>
      <point x="1308.67" y="178.176" type="qcurve" smooth="yes"/>
      <point x="1347.58" y="178.176"/>
      <point x="1402.88" y="120.832"/>
      <point x="1402.88" y="83.968" type="qcurve" smooth="yes"/>
      <point x="1402.88" y="47.104"/>
      <point x="1370.11" y="14.336" type="qcurve"/>
      <point x="1255.42" y="-92.16"/>
      <point x="1052.67" y="-92.16" type="qcurve" smooth="yes"/>
      <point x="940.032" y="-92.16"/>
      <point x="831.488" y="-18.432" type="qcurve" smooth="yes"/>
      <point x="710.656" y="63.488"/>
      <point x="710.656" y="169.984" type="qcurve" smooth="yes"/>
      <point x="710.656" y="1224.7" type="line"/>
      <point x="632.832" y="1183.74"/>
      <point x="548.864" y="1183.74" type="qcurve" smooth="yes"/>
      <point x="450.56" y="1183.74"/>
      <point x="276.48" y="1296.38"/>
      <point x="221.184" y="1384.45" type="qcurve"/>
      <point x="204.8" y="1413.12"/>
      <point x="204.8" y="1437.7" type="qcurve" smooth="yes"/>
      <point x="204.8" y="1474.56"/>
      <point x="264.192" y="1529.86"/>
      <point x="301.056" y="1529.86" type="qcurve" smooth="yes"/>
      <point x="344.064" y="1529.86"/>
      <point x="374.784" y="1486.85" type="qcurve" smooth="yes"/>
      <point x="460.8" y="1368.06"/>
      <point x="548.864" y="1368.06" type="qcurve" smooth="yes"/>
      <point x="628.736" y="1368.06"/>
      <point x="770.048" y="1542.14"/>
      <point x="811.008" y="1542.14" type="qcurve" smooth="yes"/>
      <point x="870.4" y="1542.14"/>
      <point x="886.784" y="1478.66" type="qcurve" smooth="yes"/>
      <point x="892.928" y="1452.03"/>
      <point x="894.976" y="1372.16" type="qcurve"/>
      <point x="980.992" y="1372.16" type="line"/>
      <point x="1011.71" y="1439.74"/>
      <point x="1167.36" y="1527.81"/>
      <point x="1245.18" y="1527.81" type="qcurve" smooth="yes"/>
      <point x="1708.03" y="1527.81"/>
      <point x="1708.03" y="1179.65" type="qcurve"/>
    </contour>
  </outline>
</glyph>
<glyph name="uniE194" format="2">
  <advance width="1602"/>
  <unicode hex="E194"/>
  <outline>
    <contour>
      <point x="1601.54" y="83.968" type="line"/>
      <point x="1601.54" y="45.056"/>
      <point x="1568.77" y="14.336" type="qcurve" smooth="yes"/>
      <point x="1452.03" y="-92.16"/>
      <point x="1251.33" y="-92.16" type="qcurve" smooth="yes"/>
      <point x="1153.02" y="-92.16"/>
      <point x="976.896" y="22.528"/>
      <point x="925.696" y="112.64" type="qcurve"/>
      <point x="729.088" y="112.64" type="line"/>
      <point x="700.416" y="22.528"/>
      <point x="546.816" y="-92.16"/>
      <point x="448.512" y="-92.16" type="qcurve" smooth="yes"/>
      <point x="313.344" y="-92.16"/>
      <point x="229.376" y="4.096" type="qcurve"/>
      <point x="204.8" y="34.816"/>
      <point x="204.8" y="65.536" type="qcurve" smooth="yes"/>
      <point x="204.8" y="104.448"/>
      <point x="262.144" y="159.744"/>
      <point x="299.008" y="159.744" type="qcurve" smooth="yes"/>
      <point x="331.776" y="159.744"/>
      <point x="407.552" y="92.16"/>
      <point x="448.512" y="92.16" type="qcurve" smooth="yes"/>
      <point x="493.568" y="92.16"/>
      <point x="559.104" y="157.696"/>
      <point x="559.104" y="202.752" type="qcurve" smooth="yes"/>
      <point x="559.104" y="247.808"/>
      <point x="493.568" y="313.344"/>
      <point x="448.512" y="313.344" type="qcurve" smooth="yes"/>
      <point x="356.352" y="313.344"/>
      <point x="356.352" y="405.504" type="qcurve" smooth="yes"/>
      <point x="356.352" y="497.664"/>
      <point x="448.512" y="497.664" type="qcurve" smooth="yes"/>
      <point x="544.768" y="497.664"/>
      <point x="698.368" y="385.024"/>
      <point x="727.04" y="296.96" type="qcurve"/>
      <point x="837.632" y="296.96" type="line"/>
      <point x="620.544" y="759.808" type="line" smooth="yes"/>
      <point x="600.064" y="802.816"/>
      <point x="600.064" y="821.248" type="qcurve" smooth="yes"/>
      <point x="600.064" y="911.36"/>
      <point x="708.608" y="911.36" type="qcurve" smooth="yes"/>
      <point x="1091.58" y="911.36" type="line"/>
      <point x="1091.58" y="1230.85" type="line"/>
      <point x="944.128" y="1136.64"/>
      <point x="774.144" y="1136.64" type="qcurve" smooth="yes"/>
      <point x="540.672" y="1136.64"/>
      <point x="354.304" y="1312.77" type="qcurve" smooth="yes"/>
      <point x="270.336" y="1390.59"/>
      <point x="270.336" y="1435.65" type="qcurve" smooth="yes"/>
      <point x="270.336" y="1472.51"/>
      <point x="329.728" y="1529.86"/>
      <point x="366.592" y="1529.86" type="qcurve" smooth="yes"/>
      <point x="399.36" y="1529.86"/>
      <point x="432.128" y="1499.14" type="qcurve"/>
      <point x="456.704" y="1472.51"/>
      <point x="483.328" y="1443.84" type="qcurve"/>
      <point x="612.352" y="1320.96"/>
      <point x="774.144" y="1320.96" type="qcurve" smooth="yes"/>
      <point x="954.368" y="1320.96"/>
      <point x="1114.11" y="1495.04" type="qcurve" smooth="yes"/>
      <point x="1155.07" y="1540.1"/>
      <point x="1196.03" y="1540.1" type="qcurve" smooth="yes"/>
      <point x="1275.9" y="1540.1"/>
      <point x="1275.9" y="1435.65" type="qcurve" smooth="yes"/>
      <point x="1275.9" y="817.152" type="line" smooth="yes"/>
      <point x="1275.9" y="778.24"/>
      <point x="1222.66" y="727.04"/>
      <point x="1183.74" y="727.04" type="qcurve" smooth="yes"/>
      <point x="847.872" y="727.04" type="line"/>
      <point x="1097.73" y="167.936" type="line" smooth="yes"/>
      <point x="1110.02" y="139.264"/>
      <point x="1216.51" y="92.16"/>
      <point x="1251.33" y="92.16" type="qcurve" smooth="yes"/>
      <point x="1370.11" y="92.16"/>
      <point x="1447.94" y="153.6" type="qcurve" smooth="yes"/>
      <point x="1478.66" y="178.176"/>
      <point x="1509.38" y="178.176" type="qcurve" smooth="yes"/>
      <point x="1546.24" y="178.176"/>
      <point x="1601.54" y="120.832"/>
      <point x="1601.54" y="83.968" type="qcurve"/>
    </contour>
  </outline>
</glyph>
